<?xml version="1.0" encoding="UTF-8" standalone="no"?>
<!-- Created with Inkscape (http://www.inkscape.org/) -->

<svg
   xmlns:dc="http://purl.org/dc/elements/1.1/"
   xmlns:cc="http://creativecommons.org/ns#"
   xmlns:rdf="http://www.w3.org/1999/02/22-rdf-syntax-ns#"
   xmlns:svg="http://www.w3.org/2000/svg"
   xmlns="http://www.w3.org/2000/svg"
   xmlns:sodipodi="http://sodipodi.sourceforge.net/DTD/sodipodi-0.dtd"
   xmlns:inkscape="http://www.inkscape.org/namespaces/inkscape"
   id="svg2"
   version="1.1"
   inkscape:version="0.91 r13725"
   xml:space="preserve"
   width="1000"
   height="1000"
   viewBox="0 0 1000 1000"
   sodipodi:docname="access_everywhere.svg"
   inkscape:export-filename="C:\Users\Admin\Downloads\access_everywhere.png"
   inkscape:export-xdpi="17.314175"
   inkscape:export-ydpi="17.314175"><metadata
     id="metadata8"><rdf:RDF><cc:Work
         rdf:about=""><dc:format>image/svg+xml</dc:format><dc:type
           rdf:resource="http://purl.org/dc/dcmitype/StillImage" /><dc:title></dc:title></cc:Work></rdf:RDF></metadata><defs
     id="defs6"><clipPath
       clipPathUnits="userSpaceOnUse"
       id="clipPath18"><path
         d="M 0,800 800,800 800,0 0,0 0,800 Z"
         id="path20"
         inkscape:connector-curvature="0" /></clipPath><clipPath
       clipPathUnits="userSpaceOnUse"
       id="clipPath274"><path
         d="M 0,800 800,800 800,0 0,0 0,800 Z"
         id="path276"
         inkscape:connector-curvature="0" /></clipPath></defs><sodipodi:namedview
     pagecolor="#ffffff"
     bordercolor="#666666"
     borderopacity="1"
     objecttolerance="10"
     gridtolerance="10"
     guidetolerance="10"
     inkscape:pageopacity="0"
     inkscape:pageshadow="2"
     inkscape:window-width="1920"
     inkscape:window-height="1051"
     id="namedview4"
     showgrid="false"
     inkscape:zoom="0.6675088"
     inkscape:cx="316.27258"
     inkscape:cy="437.82216"
     inkscape:window-x="-9"
     inkscape:window-y="-9"
     inkscape:window-maximized="1"
     inkscape:current-layer="g270" /><g
     id="g10"
     inkscape:groupmode="layer"
     inkscape:label="13635-NP2ABE"
     transform="matrix(1.25,0,0,-1.25,0,1000)"><g
       id="g270"><g
         id="g272"
         clip-path="url(#clipPath274)"><g
           id="g278"
           transform="translate(712.0107,410)"><path
             d="m 0,0 c 0,-162.459 -131.698,-294.156 -294.156,-294.156 -162.459,0 -294.157,131.697 -294.157,294.156 0,162.458 131.698,294.157 294.157,294.157 C -131.698,294.157 0,162.458 0,0"
             style="fill:#cad9b8;fill-opacity:1;fill-rule:nonzero;stroke:none"
             id="path280"
             inkscape:connector-curvature="0" /></g><g
           id="g282"
           transform="translate(622.6953,379.7598)"><path
             d="m 0,0 c 0,-5.5 -4.459,-9.959 -9.96,-9.959 l -290.828,0 c -5.501,0 -9.96,4.459 -9.96,9.959 l 0,186.25 c 0,5.501 4.459,9.96 9.96,9.96 l 290.828,0 c 5.501,0 9.96,-4.459 9.96,-9.96 L 0,0 Z"
             style="fill:#1d1d1b;fill-opacity:1;fill-rule:nonzero;stroke:none"
             id="path284"
             inkscape:connector-curvature="0" /></g><g
           id="g286"
           transform="translate(503.6748,332.9492)"><path
             d="m 0,0 c 0,-5.502 -4.459,-9.959 -9.959,-9.959 l -52.788,0 c -5.5,0 -9.961,4.457 -9.961,9.959 l 0,39.84 c 0,5.5 4.461,9.959 9.961,9.959 l 52.788,0 C -4.459,49.799 0,45.34 0,39.84 L 0,0 Z"
             style="fill:#1d1d1b;fill-opacity:1;fill-rule:nonzero;stroke:none"
             id="path288"
             inkscape:connector-curvature="0" /></g><path
           d="m 611.74,403.664 -288.837,0 0,152.386 288.837,0 0,-152.386 z"
           style="fill:#ffffff;fill-opacity:1;fill-rule:nonzero;stroke:none"
           id="path290"
           inkscape:connector-curvature="0" /><g
           id="g292"
           transform="translate(536.0449,312.0332)"><path
             d="m 0,0 -137.447,0 8.466,19.92 117.776,0 L 0,0 Z"
             style="fill:#1d1d1b;fill-opacity:1;fill-rule:nonzero;stroke:none"
             id="path294"
             inkscape:connector-curvature="0" /></g><g
           id="g296"
           transform="translate(469.9766,566.0107)"><path
             d="m 0,0 c 0,-1.466 -1.188,-2.655 -2.655,-2.655 -1.467,0 -2.656,1.189 -2.656,2.655 0,1.466 1.189,2.655 2.656,2.655 C -1.188,2.655 0,1.466 0,0"
             style="fill:#ffffff;fill-opacity:1;fill-rule:nonzero;stroke:none"
             id="path298"
             inkscape:connector-curvature="0" /></g><g
           id="g300"
           transform="translate(670.7539,319.1445)"><path
             d="m 0,0 c 0,-3.928 -3.184,-7.111 -7.108,-7.111 l -78.91,0 c -3.925,0 -7.109,3.183 -7.109,7.111 l 0,110.897 c 0,3.926 3.184,7.11 7.109,7.11 l 78.91,0 c 3.924,0 7.108,-3.184 7.108,-7.11 L 0,0 Z"
             style="fill:#1d1d1b;fill-opacity:1;fill-rule:nonzero;stroke:none"
             id="path302"
             inkscape:connector-curvature="0" /></g><path
           d="m 660.802,324.119 -73.223,0 0,99.524 73.223,0 0,-99.524 z"
           style="fill:#ffffff;fill-opacity:1;fill-rule:nonzero;stroke:none"
           id="path304"
           inkscape:connector-curvature="0" /><g
           id="g306"
           transform="translate(626.085,430.0415)"><path
             d="m 0,0 c 0,-1.046 -0.848,-1.896 -1.895,-1.896 -1.045,0 -1.895,0.85 -1.895,1.896 0,1.046 0.85,1.896 1.895,1.896 C -0.848,1.896 0,1.046 0,0"
             style="fill:#ffffff;fill-opacity:1;fill-rule:nonzero;stroke:none"
             id="path308"
             inkscape:connector-curvature="0" /></g><g
           id="g310"
           transform="translate(722.2793,315.6348)"><path
             d="m 0,0 c 0,-1.99 -1.33,-3.602 -2.968,-3.602 l -32.957,0 c -1.638,0 -2.968,1.612 -2.968,3.602 l 0,56.178 c 0,1.988 1.33,3.599 2.968,3.599 l 32.957,0 C -1.33,59.777 0,58.166 0,56.178 L 0,0 Z"
             style="fill:#1d1d1b;fill-opacity:1;fill-rule:nonzero;stroke:none"
             id="path312"
             inkscape:connector-curvature="0" /></g><path
           d="m 718.123,321.756 -30.58,0 0,46.816 30.58,0 0,-46.816 z"
           style="fill:#ffffff;fill-opacity:1;fill-rule:nonzero;stroke:none"
           id="path314"
           inkscape:connector-curvature="0" /><g
           id="g316"
           transform="translate(703.624,371.8125)"><path
             d="m 0,0 c 0,-0.531 -0.354,-0.961 -0.791,-0.961 -0.438,0 -0.791,0.43 -0.791,0.961 0,0.529 0.353,0.959 0.791,0.959 C -0.354,0.959 0,0.529 0,0"
             style="fill:#ffffff;fill-opacity:1;fill-rule:nonzero;stroke:none"
             id="path318"
             inkscape:connector-curvature="0" /></g><g
           id="g320"
           transform="translate(709.3145,317.0742)"><path
             d="m 0,0 c 0,-1.193 -0.968,-2.16 -2.16,-2.16 l -8.643,0 c -1.193,0 -2.161,0.967 -2.161,2.16 0,1.193 0.968,2.16 2.161,2.16 l 8.643,0 C -0.968,2.16 0,1.193 0,0 Z"
             style="fill:none;stroke:#ffffff;stroke-width:1;stroke-linecap:butt;stroke-linejoin:miter;stroke-miterlimit:10;stroke-dasharray:none;stroke-opacity:1"
             id="path322"
             inkscape:connector-curvature="0" /></g><g
           id="g324"
           transform="translate(338.0488,335.127)"><path
             d="m 0,0 c 0,-3.822 -3.448,-6.92 -7.701,-6.92 l -224.9,0 c -4.253,0 -7.702,3.098 -7.702,6.92 l 0,129.417 c 0,3.823 3.449,6.921 7.702,6.921 l 224.9,0 C -3.448,136.338 0,133.24 0,129.417 L 0,0 Z"
             style="fill:#1d1d1b;fill-opacity:1;fill-rule:nonzero;stroke:none"
             id="path326"
             inkscape:connector-curvature="0" /></g><path
           d="m 329.578,339.76 -223.359,0 0,117.841 223.359,0 0,-117.841 z"
           style="fill:#ffffff;fill-opacity:1;fill-rule:nonzero;stroke:none"
           id="path328"
           inkscape:connector-curvature="0" /><g
           id="g330"
           transform="translate(219.2373,463.7632)"><path
             d="m 0,0 c 0,-1.133 -0.919,-2.053 -2.052,-2.053 -1.135,0 -2.054,0.92 -2.054,2.053 0,1.135 0.919,2.054 2.054,2.054 C -0.919,2.054 0,1.135 0,0"
             style="fill:#ffffff;fill-opacity:1;fill-rule:nonzero;stroke:none"
             id="path332"
             inkscape:connector-curvature="0" /></g><g
           id="g334"
           transform="translate(358.0747,315.1133)"><path
             d="m 0,0 c 0,-1.701 -1.38,-3.08 -3.081,-3.08 l -274.191,0 c -1.703,0 -3.082,1.379 -3.082,3.08 l 0,7.703 c 0,1.701 1.379,3.08 3.082,3.08 l 274.191,0 C -1.38,10.783 0,9.404 0,7.703 L 0,0 Z"
             style="fill:#1d1d1b;fill-opacity:1;fill-rule:nonzero;stroke:none"
             id="path336"
             inkscape:connector-curvature="0" /></g><path
           d="m 429.809,531.953 -65.688,0 0,14.232 65.688,0 0,-14.232 z"
           style="fill:#a21e2c;fill-opacity:1;fill-rule:nonzero;stroke:none"
           id="path338"
           inkscape:connector-curvature="0" /><path
           d="m 577.475,483.782 -213.869,0 0,40.507 213.869,0 0,-40.507 z"
           style="fill:#dc9384;fill-opacity:1;fill-rule:nonzero;stroke:none"
           id="path340"
           inkscape:connector-curvature="0" /><path
           d="m 577.896,533.047 -75.541,0 0,5.474 75.541,0 0,-5.474 z"
           style="fill:#627981;fill-opacity:1;fill-rule:nonzero;stroke:none"
           id="path342"
           inkscape:connector-curvature="0" /><path
           d="m 577.896,540.711 -75.541,0 0,5.474 75.541,0 0,-5.474 z"
           style="fill:#9bafb0;fill-opacity:1;fill-rule:nonzero;stroke:none"
           id="path344"
           inkscape:connector-curvature="0" /><path
           d="m 423.174,442.543 -60.214,0 0,32.845 60.214,0 0,-32.845 z"
           style="fill:#dcc1a4;fill-opacity:1;fill-rule:nonzero;stroke:none"
           id="path346"
           inkscape:connector-curvature="0" /><path
           d="m 500.357,442.543 -60.215,0 0,32.845 60.215,0 0,-32.845 z"
           style="fill:#dcc1a4;fill-opacity:1;fill-rule:nonzero;stroke:none"
           id="path348"
           inkscape:connector-curvature="0" /><path
           d="m 577.54,442.543 -60.215,0 0,32.845 60.215,0 0,-32.845 z"
           style="fill:#dcc1a4;fill-opacity:1;fill-rule:nonzero;stroke:none"
           id="path350"
           inkscape:connector-curvature="0" /><path
           d="m 177.58,437.541 -62.522,0 0,13.546 62.522,0 0,-13.546 z"
           style="fill:#a21e2c;fill-opacity:1;fill-rule:nonzero;stroke:none"
           id="path352"
           inkscape:connector-curvature="0" /><path
           d="m 321.382,391.691 -206.325,0 0,38.554 206.325,0 0,-38.554 z"
           style="fill:#dc9384;fill-opacity:1;fill-rule:nonzero;stroke:none"
           id="path354"
           inkscape:connector-curvature="0" /><path
           d="m 321.382,438.583 -71.9,0 0,5.21 71.9,0 0,-5.21 z"
           style="fill:#627981;fill-opacity:1;fill-rule:nonzero;stroke:none"
           id="path356"
           inkscape:connector-curvature="0" /><path
           d="m 321.382,445.877 -71.9,0 0,5.209 71.9,0 0,-5.209 z"
           style="fill:#9bafb0;fill-opacity:1;fill-rule:nonzero;stroke:none"
           id="path358"
           inkscape:connector-curvature="0" /><path
           d="m 172.37,352.439 -57.313,0 0,31.262 57.313,0 0,-31.262 z"
           style="fill:#dcc1a4;fill-opacity:1;fill-rule:nonzero;stroke:none"
           id="path360"
           inkscape:connector-curvature="0" /><path
           d="m 246.877,352.439 -57.313,0 0,31.262 57.313,0 0,-31.262 z"
           style="fill:#dcc1a4;fill-opacity:1;fill-rule:nonzero;stroke:none"
           id="path362"
           inkscape:connector-curvature="0" /><path
           d="m 321.382,352.439 -57.313,0 0,31.262 57.313,0 0,-31.262 z"
           style="fill:#dcc1a4;fill-opacity:1;fill-rule:nonzero;stroke:none"
           id="path364"
           inkscape:connector-curvature="0" /><path
           d="m 653.779,400.321 -60.358,0 0,16.975 60.358,0 0,-16.975 z"
           style="fill:#a21e2c;fill-opacity:1;fill-rule:nonzero;stroke:none"
           id="path366"
           inkscape:connector-curvature="0" /><path
           d="m 653.635,390.292 -60.214,0 0,2.902 60.214,0 0,-2.902 z"
           style="fill:#627981;fill-opacity:1;fill-rule:nonzero;stroke:none"
           id="path368"
           inkscape:connector-curvature="0" /><path
           d="m 653.635,394.354 -60.214,0 0,2.902 60.214,0 0,-2.902 z"
           style="fill:#9bafb0;fill-opacity:1;fill-rule:nonzero;stroke:none"
           id="path370"
           inkscape:connector-curvature="0" /><path
           d="m 654.061,359.258 -60.64,0 0,25.68 60.64,0 0,-25.68 z"
           style="fill:#dc9384;fill-opacity:1;fill-rule:nonzero;stroke:none"
           id="path372"
           inkscape:connector-curvature="0" /><path
           d="m 619.964,329.586 -26.543,0 0,26.625 26.543,0 0,-26.625 z"
           style="fill:#dcc1a4;fill-opacity:1;fill-rule:nonzero;stroke:none"
           id="path374"
           inkscape:connector-curvature="0" /><path
           d="m 715.831,356.256 -26.642,0 0,8.805 26.642,0 0,-8.805 z"
           style="fill:#a21e2c;fill-opacity:1;fill-rule:nonzero;stroke:none"
           id="path376"
           inkscape:connector-curvature="0" /><path
           d="m 715.798,348.451 -26.577,0 0,2.246 26.577,0 0,-2.246 z"
           style="fill:#627981;fill-opacity:1;fill-rule:nonzero;stroke:none"
           id="path378"
           inkscape:connector-curvature="0" /><path
           d="m 715.798,351.594 -26.577,0 0,2.246 26.577,0 0,-2.246 z"
           style="fill:#9bafb0;fill-opacity:1;fill-rule:nonzero;stroke:none"
           id="path380"
           inkscape:connector-curvature="0" /><path
           d="m 715.297,324.652 -25.724,0 0,21.789 25.724,0 0,-21.789 z"
           style="fill:#dcc1a4;fill-opacity:1;fill-rule:nonzero;stroke:none"
           id="path382"
           inkscape:connector-curvature="0" /><path
           d="m 653.629,329.586 -26.833,0 0,26.625 26.833,0 0,-26.625 z"
           style="fill:#dcc1a4;fill-opacity:1;fill-rule:nonzero;stroke:none"
           id="path384"
           inkscape:connector-curvature="0" /><g
           id="g386"
           transform="translate(362.8428,439.5737)"><path
             d="M 0,0 60.072,0"
             style="fill:none;stroke:#b1b1b1;stroke-width:1;stroke-linecap:butt;stroke-linejoin:miter;stroke-miterlimit:10;stroke-dasharray:none;stroke-opacity:1"
             id="path388"
             inkscape:connector-curvature="0" /></g><g
           id="g390"
           transform="translate(362.8428,435.8013)"><path
             d="M 0,0 60.072,0"
             style="fill:none;stroke:#b1b1b1;stroke-width:1;stroke-linecap:butt;stroke-linejoin:miter;stroke-miterlimit:10;stroke-dasharray:none;stroke-opacity:1"
             id="path392"
             inkscape:connector-curvature="0" /></g><g
           id="g394"
           transform="translate(362.8428,432.0293)"><path
             d="M 0,0 60.072,0"
             style="fill:none;stroke:#b1b1b1;stroke-width:1;stroke-linecap:butt;stroke-linejoin:miter;stroke-miterlimit:10;stroke-dasharray:none;stroke-opacity:1"
             id="path396"
             inkscape:connector-curvature="0" /></g><g
           id="g398"
           transform="translate(362.8428,428.2568)"><path
             d="M 0,0 60.072,0"
             style="fill:none;stroke:#b1b1b1;stroke-width:1;stroke-linecap:butt;stroke-linejoin:miter;stroke-miterlimit:10;stroke-dasharray:none;stroke-opacity:1"
             id="path400"
             inkscape:connector-curvature="0" /></g><g
           id="g402"
           transform="translate(362.8428,424.4844)"><path
             d="M 0,0 60.072,0"
             style="fill:none;stroke:#b1b1b1;stroke-width:1;stroke-linecap:butt;stroke-linejoin:miter;stroke-miterlimit:10;stroke-dasharray:none;stroke-opacity:1"
             id="path404"
             inkscape:connector-curvature="0" /></g><g
           id="g406"
           transform="translate(362.8428,420.7119)"><path
             d="M 0,0 60.072,0"
             style="fill:none;stroke:#b1b1b1;stroke-width:1;stroke-linecap:butt;stroke-linejoin:miter;stroke-miterlimit:10;stroke-dasharray:none;stroke-opacity:1"
             id="path408"
             inkscape:connector-curvature="0" /></g><g
           id="g410"
           transform="translate(440.3271,439.5737)"><path
             d="M 0,0 60.073,0"
             style="fill:none;stroke:#b1b1b1;stroke-width:1;stroke-linecap:butt;stroke-linejoin:miter;stroke-miterlimit:10;stroke-dasharray:none;stroke-opacity:1"
             id="path412"
             inkscape:connector-curvature="0" /></g><g
           id="g414"
           transform="translate(440.3271,435.8013)"><path
             d="M 0,0 60.073,0"
             style="fill:none;stroke:#b1b1b1;stroke-width:1;stroke-linecap:butt;stroke-linejoin:miter;stroke-miterlimit:10;stroke-dasharray:none;stroke-opacity:1"
             id="path416"
             inkscape:connector-curvature="0" /></g><g
           id="g418"
           transform="translate(440.3271,432.0293)"><path
             d="M 0,0 60.073,0"
             style="fill:none;stroke:#b1b1b1;stroke-width:1;stroke-linecap:butt;stroke-linejoin:miter;stroke-miterlimit:10;stroke-dasharray:none;stroke-opacity:1"
             id="path420"
             inkscape:connector-curvature="0" /></g><g
           id="g422"
           transform="translate(440.3271,428.2568)"><path
             d="M 0,0 60.073,0"
             style="fill:none;stroke:#b1b1b1;stroke-width:1;stroke-linecap:butt;stroke-linejoin:miter;stroke-miterlimit:10;stroke-dasharray:none;stroke-opacity:1"
             id="path424"
             inkscape:connector-curvature="0" /></g><g
           id="g426"
           transform="translate(440.3271,424.4844)"><path
             d="M 0,0 60.073,0"
             style="fill:none;stroke:#b1b1b1;stroke-width:1;stroke-linecap:butt;stroke-linejoin:miter;stroke-miterlimit:10;stroke-dasharray:none;stroke-opacity:1"
             id="path428"
             inkscape:connector-curvature="0" /></g><g
           id="g430"
           transform="translate(440.3271,420.7119)"><path
             d="M 0,0 60.073,0"
             style="fill:none;stroke:#b1b1b1;stroke-width:1;stroke-linecap:butt;stroke-linejoin:miter;stroke-miterlimit:10;stroke-dasharray:none;stroke-opacity:1"
             id="path432"
             inkscape:connector-curvature="0" /></g><g
           id="g434"
           transform="translate(518.1025,439.5737)"><path
             d="M 0,0 60.071,0"
             style="fill:none;stroke:#b1b1b1;stroke-width:1;stroke-linecap:butt;stroke-linejoin:miter;stroke-miterlimit:10;stroke-dasharray:none;stroke-opacity:1"
             id="path436"
             inkscape:connector-curvature="0" /></g><g
           id="g438"
           transform="translate(518.1025,435.8013)"><path
             d="M 0,0 60.071,0"
             style="fill:none;stroke:#b1b1b1;stroke-width:1;stroke-linecap:butt;stroke-linejoin:miter;stroke-miterlimit:10;stroke-dasharray:none;stroke-opacity:1"
             id="path440"
             inkscape:connector-curvature="0" /></g><g
           id="g442"
           transform="translate(518.1025,432.0293)"><path
             d="M 0,0 60.071,0"
             style="fill:none;stroke:#b1b1b1;stroke-width:1;stroke-linecap:butt;stroke-linejoin:miter;stroke-miterlimit:10;stroke-dasharray:none;stroke-opacity:1"
             id="path444"
             inkscape:connector-curvature="0" /></g><g
           id="g446"
           transform="translate(518.1025,428.2568)"><path
             d="M 0,0 60.071,0"
             style="fill:none;stroke:#b1b1b1;stroke-width:1;stroke-linecap:butt;stroke-linejoin:miter;stroke-miterlimit:10;stroke-dasharray:none;stroke-opacity:1"
             id="path448"
             inkscape:connector-curvature="0" /></g><g
           id="g450"
           transform="translate(518.1025,424.4844)"><path
             d="M 0,0 60.071,0"
             style="fill:none;stroke:#b1b1b1;stroke-width:1;stroke-linecap:butt;stroke-linejoin:miter;stroke-miterlimit:10;stroke-dasharray:none;stroke-opacity:1"
             id="path452"
             inkscape:connector-curvature="0" /></g><g
           id="g454"
           transform="translate(518.1025,420.7119)"><path
             d="M 0,0 60.071,0"
             style="fill:none;stroke:#b1b1b1;stroke-width:1;stroke-linecap:butt;stroke-linejoin:miter;stroke-miterlimit:10;stroke-dasharray:none;stroke-opacity:1"
             id="path456"
             inkscape:connector-curvature="0" /></g></g></g></g></svg>