<?xml version="1.0" encoding="UTF-8" standalone="no"?>
<!-- Generator: Adobe Illustrator 16.0.0, SVG Export Plug-In . SVG Version: 6.00 Build 0)  -->

<svg
   xmlns:dc="http://purl.org/dc/elements/1.1/"
   xmlns:cc="http://creativecommons.org/ns#"
   xmlns:rdf="http://www.w3.org/1999/02/22-rdf-syntax-ns#"
   xmlns:svg="http://www.w3.org/2000/svg"
   xmlns="http://www.w3.org/2000/svg"
   xmlns:sodipodi="http://sodipodi.sourceforge.net/DTD/sodipodi-0.dtd"
   xmlns:inkscape="http://www.inkscape.org/namespaces/inkscape"
   version="1.1"
   id="Capa_1"
   x="0px"
   y="0px"
   width="1000"
   height="1000"
   viewBox="0 0 1000 1000"
   xml:space="preserve"
   inkscape:version="0.91 r13725"
   sodipodi:docname="create_devices.svg"><metadata
     id="metadata79"><rdf:RDF><cc:Work
         rdf:about=""><dc:format>image/svg+xml</dc:format><dc:type
           rdf:resource="http://purl.org/dc/dcmitype/StillImage" /><dc:title></dc:title></cc:Work></rdf:RDF></metadata><defs
     id="defs77" /><sodipodi:namedview
     pagecolor="#ffffff"
     bordercolor="#666666"
     borderopacity="1"
     objecttolerance="10"
     gridtolerance="10"
     guidetolerance="10"
     inkscape:pageopacity="0"
     inkscape:pageshadow="2"
     inkscape:window-width="1920"
     inkscape:window-height="1003"
     id="namedview75"
     showgrid="false"
     inkscape:zoom="0.38562092"
     inkscape:cx="-10.372881"
     inkscape:cy="306"
     inkscape:window-x="1911"
     inkscape:window-y="-9"
     inkscape:window-maximized="1"
     inkscape:current-layer="layer4" /><g
     inkscape:groupmode="layer"
     id="layer4"
     inkscape:label="Layer 4"><circle
       style="opacity:1;fill:#dde9af;fill-opacity:0.69926649;fill-rule:nonzero;stroke:none;stroke-width:1.39999998;stroke-linecap:round;stroke-linejoin:round;stroke-miterlimit:4;stroke-dasharray:none;stroke-opacity:1"
       id="path8196"
       cx="506.32202"
       cy="519.61017"
       r="400"
       inkscape:export-xdpi="16.875"
       inkscape:export-ydpi="16.875" /></g><g
     id="g45"
     transform="translate(0,388)" /><g
     id="g47"
     transform="translate(0,388)" /><g
     id="g49"
     transform="translate(0,388)" /><g
     id="g51"
     transform="translate(0,388)" /><g
     id="g53"
     transform="translate(0,388)" /><g
     id="g55"
     transform="translate(0,388)" /><g
     id="g57"
     transform="translate(0,388)" /><g
     id="g59"
     transform="translate(0,388)" /><g
     id="g61"
     transform="translate(0,388)" /><g
     id="g63"
     transform="translate(0,388)" /><g
     id="g65"
     transform="translate(0,388)" /><g
     id="g67"
     transform="translate(0,388)" /><g
     id="g69"
     transform="translate(0,388)" /><g
     id="g71"
     transform="translate(0,388)" /><g
     id="g73"
     transform="translate(0,388)" /><g
     inkscape:groupmode="layer"
     id="layer1"
     inkscape:label="Layer 1"><g
       id="g3"
       transform="translate(186.71186,201.28814)"
       style="fill:#165016"><g
         id="g5"
         style="fill:#165016"><g
           id="g7"
           style="fill:#165016"><path
             d="m 207.174,213.052 c 9.603,0 18.847,1.933 27.294,5.439 8.746,3.626 16.635,8.925 23.15,15.46 12.89,12.89 20.879,30.74 20.879,50.424 0,9.603 -1.933,18.827 -5.439,27.273 l -0.199,0.459 c -3.646,8.586 -8.846,16.315 -15.241,22.711 -6.515,6.496 -14.404,11.795 -23.17,15.44 l 0,0 c -8.447,3.507 -17.671,5.438 -27.274,5.438 -9.603,0 -18.827,-1.932 -27.274,-5.438 l -0.458,-0.198 c -8.587,-3.627 -16.317,-8.865 -22.692,-15.242 -12.89,-12.908 -20.899,-30.74 -20.899,-50.443 0,-9.603 1.933,-18.827 5.439,-27.274 l 0.199,-0.458 c 3.646,-8.606 8.885,-16.316 15.261,-22.691 6.495,-6.495 14.364,-11.814 23.15,-15.44 l 0,-0.02 c 8.448,-3.508 17.692,-5.44 27.274,-5.44 l 0,0 z m 19.983,23.05 c -6.096,-2.51 -12.85,-3.905 -19.982,-3.905 -7.132,0 -13.866,1.395 -19.962,3.925 l 0,-0.02 -0.02,0 c -6.295,2.61 -12.073,6.535 -16.914,11.376 -4.722,4.722 -8.567,10.34 -11.177,16.456 l -0.199,0.498 c -2.51,6.076 -3.905,12.83 -3.905,19.942 0,14.404 5.857,27.473 15.301,36.916 4.741,4.742 10.32,8.568 16.456,11.178 l 0.498,0.199 c 6.096,2.51 12.83,3.924 19.962,3.924 7.132,0 13.866,-1.395 19.962,-3.924 l 0,0.021 0.04,-0.021 c 6.295,-2.608 12.073,-6.496 16.914,-11.354 4.722,-4.742 8.567,-10.341 11.177,-16.458 l 0.199,-0.498 c 2.53,-6.097 3.925,-12.83 3.925,-19.962 0,-14.404 -5.857,-27.473 -15.281,-36.897 -4.901,-4.861 -10.659,-8.766 -16.994,-11.396 z"
             id="path9"
             inkscape:connector-curvature="0"
             style="fill:#165016" /><path
             d="m 216.757,370.838 c 0,5.279 -4.283,9.563 -9.563,9.563 -5.28,0 -9.563,-4.283 -9.563,-9.563 l 0,-24.705 c 0,-5.278 4.284,-9.562 9.563,-9.562 5.279,0 9.563,4.283 9.563,9.562 l 0,24.705 z"
             id="path11"
             inkscape:connector-curvature="0"
             style="fill:#165016" /><path
             d="m 478.918,274.811 c 5.279,0 9.563,4.283 9.563,9.563 0,5.279 -4.283,9.563 -9.563,9.563 l -123.521,0 c -5.279,0 -9.563,-4.283 -9.563,-9.563 0,-5.28 4.283,-9.563 9.563,-9.563 l 123.521,0 z"
             id="path13"
             inkscape:connector-curvature="0"
             style="fill:#165016" /><path
             d="m 478.918,213.052 c 5.279,0 9.563,4.283 9.563,9.563 0,5.279 -4.283,9.563 -9.563,9.563 l -123.521,0 c -5.279,0 -9.563,-4.283 -9.563,-9.563 0,-5.28 4.283,-9.563 9.563,-9.563 l 123.521,0 z"
             id="path15"
             inkscape:connector-curvature="0"
             style="fill:#165016" /><path
             d="m 478.918,336.571 c 5.279,0 9.563,4.283 9.563,9.562 0,5.28 -4.283,9.563 -9.563,9.563 l -123.521,0 c -5.279,0 -9.563,-4.283 -9.563,-9.563 0,-5.279 4.283,-9.562 9.563,-9.562 l 123.521,0 z"
             id="path17"
             inkscape:connector-curvature="0"
             style="fill:#165016" /><g
             id="g19"
             style="fill:#165016"><path
               d="m 207.174,250.108 c 9.463,0 18.05,3.845 24.246,10.041 l 0.638,0.697 c 5.817,6.136 9.403,14.444 9.403,23.529 0,9.423 -3.845,17.99 -10.061,24.207 l 0.02,0.021 c -6.196,6.194 -14.763,10.041 -24.246,10.041 -9.463,0 -18.05,-3.847 -24.246,-10.041 -6.196,-6.196 -10.021,-14.764 -10.021,-24.227 0,-9.423 3.845,-17.99 10.021,-24.186 l 0.04,-0.04 c 6.216,-6.198 14.803,-10.042 24.206,-10.042 l 0,0 z m 10.719,23.588 c -2.729,-2.749 -6.535,-4.442 -10.718,-4.442 -4.183,0 -7.969,1.693 -10.718,4.383 l -0.02,0.04 c -2.689,2.729 -4.383,6.515 -4.383,10.698 0,4.183 1.713,7.969 4.423,10.698 2.729,2.729 6.535,4.443 10.718,4.443 4.183,0 7.969,-1.713 10.698,-4.443 l 0.02,0.02 0.02,-0.02 c 2.709,-2.689 4.383,-6.495 4.383,-10.698 0,-4.004 -1.514,-7.63 -4.004,-10.28 l -0.419,-0.399 0,0 z m 14.165,-12.83 -0.638,12.83 c 3.506,-3.507 3.726,-9.085 0.638,-12.83 z"
               id="path21"
               inkscape:connector-curvature="0"
               style="fill:#165016" /></g><path
             d="m 83.675,515.674 c 5.279,0 9.563,4.283 9.563,9.563 0,5.28 -4.283,9.562 -9.563,9.562 l -24.704,0 c -5.279,0 -9.563,-4.282 -9.563,-9.562 0,-5.28 4.284,-9.563 9.563,-9.563 l 24.704,0 z"
             id="path23"
             inkscape:connector-curvature="0"
             style="fill:#165016" /><path
             d="m 553.029,515.674 c 5.278,0 9.562,4.283 9.562,9.563 0,5.28 -4.283,9.562 -9.562,9.562 l -24.704,0 c -5.279,0 -9.563,-4.282 -9.563,-9.562 0,-5.28 4.283,-9.563 9.563,-9.563 l 24.704,0 z"
             id="path25"
             inkscape:connector-curvature="0"
             style="fill:#165016" /><path
             d="m 58.971,77.2 494.059,0 c 16.236,0 30.979,6.634 41.657,17.313 10.679,10.678 17.313,25.44 17.313,41.658 l 0,296.447 c 0,16.217 -6.654,30.979 -17.333,41.639 -10.678,10.658 -25.421,17.313 -41.638,17.313 l -494.058,0 c -16.217,0 -30.979,-6.635 -41.658,-17.313 C 6.634,463.596 0,448.834 0,432.618 L 0,136.171 c 0,-16.177 6.634,-30.92 17.313,-41.618 l 0.02,-0.02 0.02,-0.02 0.02,-0.02 C 28.071,83.814 42.813,77.2 58.971,77.2 l 0,0 z m 494.058,19.125 -494.058,0 c -10.958,0 -20.958,4.482 -28.131,11.675 l -0.04,0.04 c -7.172,7.172 -11.675,17.173 -11.675,28.131 l 0,296.447 c 0,10.938 4.502,20.898 11.714,28.131 7.212,7.211 17.193,11.715 28.131,11.715 l 494.059,0 c 10.918,0 20.897,-4.504 28.109,-11.715 7.212,-7.213 11.715,-17.193 11.715,-28.111 l 0,-296.467 c 0,-10.917 -4.503,-20.899 -11.715,-28.131 -7.19,-7.212 -17.171,-11.715 -28.109,-11.715 z"
             id="path27"
             inkscape:connector-curvature="0"
             style="fill:#165016" /><path
             d="m 562.612,383.19 c 0,5.278 -4.283,9.562 -9.563,9.562 -5.279,0 -9.562,-4.283 -9.562,-9.562 l 0,-237.457 -474.953,0 0,277.322 484.496,0 c 5.278,0 9.562,4.282 9.562,9.562 0,5.28 -4.283,9.562 -9.562,9.562 l -493.82,0 -0.239,0 c -5.279,0 -9.563,-4.282 -9.563,-9.562 l 0,-296.208 0,-0.239 c 0,-5.28 4.284,-9.562 9.563,-9.562 l 493.819,0 0.259,0 c 5.28,0 9.563,4.283 9.563,9.562 l 0,247.02 0,0 z"
             id="path29"
             inkscape:connector-curvature="0"
             style="fill:#165016" /><path
             d="m 216.757,222.615 c 0,5.279 -4.283,9.563 -9.563,9.563 -5.28,0 -9.563,-4.283 -9.563,-9.563 l 0,-24.685 c 0,-5.28 4.284,-9.563 9.563,-9.563 5.279,0 9.563,4.283 9.563,9.563 l 0,24.685 z"
             id="path31"
             inkscape:connector-curvature="0"
             style="fill:#165016" /><path
             d="m 293.658,274.811 c 5.279,0 9.563,4.283 9.563,9.563 0,5.279 -4.283,9.563 -9.563,9.563 l -24.704,0 c -5.279,0 -9.563,-4.283 -9.563,-9.563 0,-5.28 4.284,-9.563 9.563,-9.563 l 24.704,0 z"
             id="path33"
             inkscape:connector-curvature="0"
             style="fill:#165016" /><path
             d="m 145.415,274.811 c 5.279,0 9.563,4.283 9.563,9.563 0,5.279 -4.284,9.563 -9.563,9.563 l -24.685,0 c -5.279,0 -9.563,-4.283 -9.563,-9.563 0,-5.28 4.284,-9.563 9.563,-9.563 l 24.685,0 z"
             id="path35"
             inkscape:connector-curvature="0"
             style="fill:#165016" /><path
             d="m 275.09,338.762 c 3.726,3.728 3.726,9.804 0,13.527 -3.726,3.728 -9.802,3.728 -13.527,0 l -17.452,-17.451 c -3.726,-3.727 -3.726,-9.803 0,-13.526 3.725,-3.728 9.802,-3.728 13.527,0 l 17.452,17.45 z"
             id="path37"
             inkscape:connector-curvature="0"
             style="fill:#165016" /><path
             d="m 170.278,233.95 c 3.726,3.726 3.726,9.802 0,13.527 -3.726,3.725 -9.802,3.726 -13.527,0 l -17.472,-17.472 c -3.726,-3.726 -3.726,-9.802 0,-13.527 3.726,-3.725 9.802,-3.726 13.527,0 l 17.472,17.472 z"
             id="path39"
             inkscape:connector-curvature="0"
             style="fill:#165016" /><path
             d="m 152.766,352.29 c -3.726,3.705 -9.782,3.687 -13.488,-0.039 -3.706,-3.727 -3.686,-9.783 0.04,-13.488 L 156.79,321.29 c 3.726,-3.705 9.782,-3.686 13.488,0.041 3.706,3.726 3.686,9.781 -0.04,13.486 l -17.472,17.473 z"
             id="path41"
             inkscape:connector-curvature="0"
             style="fill:#165016" /><path
             d="m 257.618,247.478 c -3.726,3.726 -9.802,3.726 -13.527,0 -3.725,-3.726 -3.726,-9.802 0,-13.527 l 17.472,-17.472 c 3.725,-3.726 9.802,-3.726 13.527,0 3.725,3.726 3.726,9.802 0,13.527 l -17.472,17.472 z"
             id="path43"
             inkscape:connector-curvature="0"
             style="fill:#165016" /></g></g></g></g><g
     inkscape:groupmode="layer"
     id="layer2"
     inkscape:label="Layer 2"><ellipse
       style="opacity:1;fill:#ffdd55;fill-opacity:1;fill-rule:nonzero;stroke:none;stroke-width:1.39999998;stroke-linecap:round;stroke-linejoin:round;stroke-miterlimit:4;stroke-dasharray:none;stroke-opacity:1"
       id="path8185"
       cx="719.61865"
       cy="652.50848"
       rx="141.33051"
       ry="142.62712" /></g><g
     inkscape:groupmode="layer"
     id="layer3"
     inkscape:label="Layer 3"><g
       id="g8188"
       transform="translate(256.72881,-202.27119)"
       style="fill:#ff8080"><rect
         y="780.42877"
         x="445.29324"
         height="148.63387"
         width="33.633858"
         id="rect8139"
         style="opacity:1;fill:#ff8080;fill-opacity:1;fill-rule:nonzero;stroke:none;stroke-width:1.3661412;stroke-linecap:round;stroke-linejoin:round;stroke-miterlimit:4;stroke-dasharray:none;stroke-opacity:1" /><rect
         transform="matrix(0,1,-1,0,0,0)"
         y="-535.70679"
         x="838.6153"
         height="148.63385"
         width="33.633858"
         id="rect8139-5"
         style="opacity:1;fill:#ff8080;fill-opacity:1;fill-rule:nonzero;stroke:none;stroke-width:1.36614132;stroke-linecap:round;stroke-linejoin:round;stroke-miterlimit:4;stroke-dasharray:none;stroke-opacity:1" /></g></g></svg>