<?xml version="1.0" encoding="UTF-8" standalone="no"?>
<!-- Generator: Adobe Illustrator 16.0.0, SVG Export Plug-In . SVG Version: 6.00 Build 0)  -->

<svg
   xmlns:dc="http://purl.org/dc/elements/1.1/"
   xmlns:cc="http://creativecommons.org/ns#"
   xmlns:rdf="http://www.w3.org/1999/02/22-rdf-syntax-ns#"
   xmlns:svg="http://www.w3.org/2000/svg"
   xmlns="http://www.w3.org/2000/svg"
   xmlns:sodipodi="http://sodipodi.sourceforge.net/DTD/sodipodi-0.dtd"
   xmlns:inkscape="http://www.inkscape.org/namespaces/inkscape"
   version="1.1"
   id="Capa_1"
   x="0px"
   y="0px"
   width="924"
   height="992"
   viewBox="0 0 924 992"
   xml:space="preserve"
   inkscape:version="0.91 r13725"
   sodipodi:docname="light102.svg"><metadata
     id="metadata71"><rdf:RDF><cc:Work
         rdf:about=""><dc:format>image/svg+xml</dc:format><dc:type
           rdf:resource="http://purl.org/dc/dcmitype/StillImage" /><dc:title></dc:title></cc:Work></rdf:RDF></metadata><defs
     id="defs69" /><sodipodi:namedview
     pagecolor="#ffffff"
     bordercolor="#666666"
     borderopacity="1"
     objecttolerance="10"
     gridtolerance="10"
     guidetolerance="10"
     inkscape:pageopacity="0"
     inkscape:pageshadow="2"
     inkscape:window-width="1920"
     inkscape:window-height="1051"
     id="namedview67"
     showgrid="false"
     inkscape:zoom="0.84281414"
     inkscape:cx="254.74686"
     inkscape:cy="526.70792"
     inkscape:window-x="-9"
     inkscape:window-y="-9"
     inkscape:window-maximized="1"
     inkscape:current-layer="layer5" /><g
     id="g37"
     transform="translate(0,200)" /><g
     id="g39"
     transform="translate(0,200)" /><g
     id="g41"
     transform="translate(0,200)" /><g
     id="g43"
     transform="translate(0,200)" /><g
     id="g45"
     transform="translate(0,200)" /><g
     id="g47"
     transform="translate(0,200)" /><g
     id="g49"
     transform="translate(0,200)" /><g
     id="g51"
     transform="translate(0,200)" /><g
     id="g53"
     transform="translate(0,200)" /><g
     id="g55"
     transform="translate(0,200)" /><g
     id="g57"
     transform="translate(0,200)" /><g
     id="g59"
     transform="translate(0,200)" /><g
     id="g61"
     transform="translate(0,200)" /><g
     id="g63"
     transform="translate(0,200)" /><g
     id="g65"
     transform="translate(0,200)" /><g
     inkscape:groupmode="layer"
     id="layer5"
     inkscape:label="Layer 3"
     style="display:inline"
     sodipodi:insensitive="true"><circle
       style="opacity:1;fill:#ffdcab;fill-opacity:0.64792175;fill-rule:nonzero;stroke:#ffffff;stroke-width:1.59407008;stroke-linecap:round;stroke-linejoin:round;stroke-miterlimit:4;stroke-dasharray:none;stroke-opacity:1"
       id="path8262"
       cx="448.79559"
       cy="460.2879"
       r="409.20297" /></g><g
     inkscape:groupmode="layer"
     id="layer4"
     inkscape:label="Layer 2"
     style="display:inline"
     transform="translate(0,200)"
     sodipodi:insensitive="true"><g
       transform="translate(53.684524,-137.92554)"
       id="g3"><g
         id="g5"><g
           id="g7"><path
             inkscape:connector-curvature="0"
             d="m 324.082,693.799 c -6.832,0 -12.401,-5.543 -12.401,-12.375 0,-6.832 5.543,-12.375 12.401,-12.375 l 143.86,0 c 6.832,0 12.375,5.543 12.375,12.375 0,6.832 -5.543,12.375 -12.375,12.375 l -143.86,0 z"
             id="path9"
             style="fill:#696a69;fill-opacity:1" /><path
             inkscape:connector-curvature="0"
             d="m 340.066,742.912 c -6.832,0 -12.375,-5.543 -12.375,-12.375 0,-6.832 5.569,-12.375 12.375,-12.375 l 111.891,0 c 6.832,0 12.375,5.543 12.375,12.375 0,6.832 -5.543,12.375 -12.375,12.375 l -111.891,0 z"
             id="path11"
             style="fill:#696a69;fill-opacity:1" /><path
             inkscape:connector-curvature="0"
             d="m 384.358,571.828 c 0,6.807 -5.517,12.323 -12.323,12.323 -6.806,0 -12.323,-5.518 -12.323,-12.323 -0.052,-52.104 -1.547,-91.033 -8.74,-127.076 -7.115,-35.629 -19.852,-68.655 -42.461,-109.39 -3.3,-5.955 -1.16,-13.458 4.77,-16.758 5.956,-3.3 13.458,-1.16 16.784,4.77 24.002,43.261 37.589,78.479 45.168,116.558 7.501,37.589 9.074,77.962 9.125,131.896 z"
             id="path13"
             style="fill:#ff6019;fill-opacity:1" /><path
             inkscape:connector-curvature="0"
             d="m 432.312,571.828 c 0,6.807 -5.518,12.323 -12.323,12.323 -6.805,0 -12.323,-5.518 -12.323,-12.323 0.053,-53.936 1.624,-94.282 9.126,-131.896 7.58,-38.079 21.167,-73.295 45.169,-116.558 3.301,-5.955 10.828,-8.095 16.759,-4.77 5.956,3.3 8.068,10.828 4.77,16.758 -22.61,40.734 -35.346,73.787 -42.462,109.39 -7.169,36.043 -8.689,74.973 -8.716,127.076 z"
             id="path15"
             style="fill:#ff6019;fill-opacity:1" /><path
             inkscape:connector-curvature="0"
             d="m 315.523,341.112 c -6.497,-2.063 -10.055,-9.023 -7.992,-15.521 2.088,-6.497 9.023,-10.055 15.521,-7.992 8.611,2.785 16.062,6.523 22.945,9.978 l 0.67,0.361 c 10.75,5.414 19.697,9.642 26.348,4.228 l 15.211,-12.401 c 5.285,-4.279 13.073,-3.48 17.351,1.805 4.28,5.285 3.48,13.071 -1.805,17.351 l -15.211,12.401 c -18.949,15.417 -34.444,7.915 -53.109,-1.444 l -0.567,-0.258 c -6.033,-3.043 -12.582,-6.317 -19.362,-8.508 z"
             id="path17"
             style="fill:#ff4819;fill-opacity:1" /><path
             inkscape:connector-curvature="0"
             d="m 408.388,60.328 c 0,6.832 -5.543,12.375 -12.376,12.375 -6.832,0 -12.375,-5.543 -12.375,-12.375 l 0,-47.953 C 383.637,5.543 389.18,0 396.012,0 c 6.834,0 12.376,5.543 12.376,12.375 l 0,47.953 z"
             id="path19"
             style="fill:#ffd032;fill-opacity:1" /><path
             inkscape:connector-curvature="0"
             d="m 468.974,317.599 c 6.497,-2.088 13.458,1.496 15.521,7.992 2.088,6.497 -1.495,13.458 -7.992,15.521 -6.779,2.191 -13.328,5.491 -19.388,8.534 l -0.566,0.258 c -18.641,9.358 -34.16,16.887 -53.109,1.443 l -15.211,-12.4 c -5.285,-4.28 -6.084,-12.066 -1.805,-17.351 4.28,-5.285 12.066,-6.084 17.352,-1.805 l 15.211,12.401 c 6.652,5.414 15.572,1.16 26.349,-4.228 l 0.672,-0.361 c 6.904,-3.481 14.354,-7.219 22.966,-10.004 z"
             id="path21"
             style="fill:#ff4819;fill-opacity:1" /><path
             inkscape:connector-curvature="0"
             d="m 551.706,192.354 c 39.832,39.832 64.505,94.901 64.505,155.693 0,23.771 -3.815,46.741 -10.828,68.27 -7.244,22.249 -17.995,43.003 -31.53,61.515 -22.713,31.066 -41.146,51.459 -55.455,67.313 -25.756,28.488 -37.048,40.968 -37.048,82.63 0,6.832 -5.543,12.375 -12.375,12.375 l -0.311,0 -72.11,0 -72.445,0 c -6.832,0 -12.401,-5.543 -12.401,-12.375 0,-41.25 -11.524,-53.857 -37.099,-81.882 l -0.026,-0.025 -0.026,0.025 c -14.463,-15.829 -33.077,-36.223 -56.358,-68.062 -13.535,-18.512 -24.286,-39.291 -31.53,-61.54 -7.013,-21.502 -10.828,-44.499 -10.828,-68.243 0,-29.751 5.956,-58.214 16.732,-84.202 l 0.232,-0.49 c 11.189,-26.813 27.483,-50.944 47.566,-71.001 20.213,-20.212 44.473,-36.558 71.492,-47.747 l 0,-0.026 c 25.987,-10.776 54.45,-16.732 84.202,-16.732 29.702,0 58.137,5.956 84.151,16.732 26.966,11.189 51.277,27.56 71.49,47.772 l 0,0 z m 39.729,155.693 c 0,-53.96 -21.89,-102.815 -57.234,-138.188 -18.071,-18.073 -39.6,-32.613 -63.422,-42.462 -22.945,-9.513 -48.211,-14.772 -74.767,-14.772 -26.529,0 -51.794,5.259 -74.714,14.772 l 0,-0.025 -0.052,0.025 c -23.822,9.849 -45.323,24.389 -63.396,42.462 -17.892,17.892 -32.355,39.239 -42.23,62.803 l -0.258,0.67 c -9.487,22.919 -14.772,48.185 -14.772,74.714 0,21.192 3.377,41.611 9.565,60.611 6.471,19.773 15.984,38.183 27.947,54.579 22.353,30.576 40.554,50.506 54.708,66.025 l -0.026,0.025 c 27.534,30.087 41.224,45.143 43.364,86.135 l 60.354,0 60.354,0 c 2.114,-41.275 15.546,-56.177 43.209,-86.754 13.819,-15.288 31.582,-34.959 53.832,-65.381 11.962,-16.371 21.476,-34.779 27.921,-54.553 6.24,-19.075 9.617,-39.468 9.617,-60.686 z"
             id="path23"
             style="fill:#256f7f;fill-opacity:0.44498824" /><path
             inkscape:connector-curvature="0"
             d="m 356.051,792 c -6.832,0 -12.375,-5.543 -12.375,-12.375 0,-6.832 5.543,-12.375 12.375,-12.375 l 79.923,0 c 6.832,0 12.375,5.543 12.375,12.375 0,6.832 -5.543,12.375 -12.375,12.375 l -79.923,0 z"
             id="path25"
             style="fill:#696a69;fill-opacity:1" /><path
             inkscape:connector-curvature="0"
             d="m 547.839,104.285 c -3.379,5.878 -10.933,7.915 -16.837,4.538 -5.878,-3.377 -7.913,-10.931 -4.536,-16.835 l 23.977,-41.533 c 3.377,-5.878 10.932,-7.915 16.835,-4.538 5.904,3.377 7.915,10.931 4.538,16.835 l -23.977,41.533 z"
             id="path27"
             style="fill:#ffd032;fill-opacity:1" /><path
             inkscape:connector-curvature="0"
             d="m 265.533,92.013 c 3.377,5.878 1.367,13.432 -4.538,16.81 -5.878,3.377 -13.432,1.34 -16.809,-4.538 L 220.209,62.751 c -3.377,-5.878 -1.341,-13.432 4.538,-16.809 5.904,-3.377 13.458,-1.341 16.835,4.537 l 23.951,41.534 z"
             id="path29"
             style="fill:#ffd032;fill-opacity:1" /><path
             inkscape:connector-curvature="0"
             d="m 157.69,190.781 c 5.878,3.377 7.915,10.931 4.538,16.835 -3.377,5.878 -10.932,7.915 -16.81,4.538 l -41.534,-23.977 c -5.904,-3.377 -7.94,-10.931 -4.563,-16.809 3.377,-5.904 10.931,-7.915 16.835,-4.538 l 41.534,23.951 z"
             id="path31"
             style="fill:#ffd032;fill-opacity:1" /><path
             inkscape:connector-curvature="0"
             d="m 646.606,212.154 c -5.904,3.377 -13.458,1.341 -16.835,-4.538 -3.378,-5.904 -1.341,-13.458 4.537,-16.835 l 41.534,-23.977 c 5.902,-3.377 13.456,-1.341 16.835,4.538 3.377,5.878 1.341,13.458 -4.538,16.835 l -41.533,23.977 z"
             id="path33"
             style="fill:#ffd032;fill-opacity:1" /><path
             inkscape:connector-curvature="0"
             d="m 267.441,396.954 c 2.63,6.265 -0.309,13.509 -6.574,16.139 -6.265,2.63 -13.509,-0.31 -16.139,-6.574 -4.203,-9.95 -7.477,-20.443 -9.643,-31.271 -2.14,-10.699 -3.3,-21.63 -3.3,-32.613 0,-6.832 5.569,-12.375 12.375,-12.375 6.832,0 12.375,5.569 12.375,12.375 0,9.668 0.954,18.975 2.733,27.792 1.831,9.176 4.615,18.096 8.173,26.527 l 0,0 z m 0,-108.668 c -2.629,6.265 -9.874,9.204 -16.139,6.574 -6.265,-2.63 -9.204,-9.875 -6.574,-16.139 4.15,-9.823 9.229,-19.13 15.03,-27.767 l 0.026,-0.026 -0.026,-0.025 c 5.956,-8.817 12.71,-17.016 20.109,-24.415 7.322,-7.322 15.521,-14.077 24.44,-20.083 l 0,-0.026 c 8.56,-5.775 17.918,-10.854 27.818,-15.03 9.926,-4.203 20.393,-7.477 31.247,-9.643 10.699,-2.166 21.682,-3.3 32.639,-3.3 6.834,0 12.376,5.543 12.376,12.375 0,6.832 -5.543,12.375 -12.376,12.375 -9.694,0 -19.026,0.954 -27.818,2.707 -9.204,1.831 -18.099,4.641 -26.503,8.198 -8.172,3.455 -16.062,7.76 -23.564,12.813 l 0,0 -0.026,0 c -7.296,4.898 -14.257,10.673 -20.702,17.119 -6.368,6.368 -12.143,13.355 -17.119,20.754 l -0.026,-0.026 c -5.026,7.452 -9.332,15.341 -12.812,23.565 z"
             id="path35"
             style="fill:#ff9019;fill-opacity:1" /></g></g></g><path
       style="display:inline;opacity:1;fill:#ff8119;fill-opacity:0.27383866;fill-rule:nonzero;stroke:#ffffff;stroke-width:1.6611017;stroke-linecap:round;stroke-linejoin:round;stroke-miterlimit:4;stroke-dasharray:none;stroke-opacity:1"
       d="m 389.22311,468.11651 c -1.97317,-26.00105 -10.88305,-42.25534 -41.78738,-76.23271 -36.29954,-39.90907 -59.70076,-70.36788 -71.13431,-92.5878 -14.77924,-28.72191 -21.34549,-56.65604 -21.18693,-90.13338 0.22904,-48.35764 16.554,-91.52599 48.3782,-127.92728 56.88486,-65.06627 151.8599,-84.4518204 230.32783,-47.01267 36.01091,17.18175 68.78769,48.54041 87.97915,84.1726 29.37114,54.53248 30.2993,122.82762 2.42541,178.46425 -11.78291,23.51884 -31.91411,50.21878 -70.30445,93.24453 -19.78908,22.1785 -26.25249,30.40568 -32.04926,40.79512 -5.04703,9.04568 -9.76504,25.10469 -10.83077,36.86541 l -0.81139,8.95406 -60.17665,0 -60.17665,0 -0.6528,-8.60213 z m 41.12762,-22.71482 c 7.54583,-3.15285 7.83048,-4.34427 7.81774,-32.7215 -0.036,-80.01797 -9.62861,-134.17055 -32.7576,-184.92379 -2.20686,-4.84263 -4.01246,-8.97784 -4.01246,-9.18936 0,-0.21152 1.82934,0.37977 4.06521,1.31398 11.57718,4.83726 25.13865,2.89899 35.55979,-5.08236 3.19534,-2.44725 6.45049,-4.92909 7.23369,-5.51521 0.9449,-0.70713 3.58097,0.54378 7.83506,3.71803 12.83692,9.57846 21.42151,11.64682 33.62045,8.10049 3.77353,-1.09699 7.10777,-1.74771 7.40945,-1.44604 0.30167,0.30166 -0.53745,2.67709 -1.86469,5.27872 -7.59533,14.88807 -18.39989,46.69717 -23.25191,68.45466 -6.90629,30.9692 -9.63005,58.87799 -10.77056,110.3595 -0.65528,29.57877 -0.54286,32.35401 1.46581,36.18829 1.55157,2.96172 3.5502,4.62806 6.96862,5.80995 4.26738,1.47544 5.26591,1.43285 9.1037,-0.3883 7.35641,-3.49084 8.05346,-6.49344 8.05346,-34.6905 0,-84.69811 10.49393,-134.10784 41.49656,-195.38287 5.89021,-11.64173 10.7095,-22.48024 10.7095,-24.08557 0,-6.93192 -5.627,-12.29297 -12.90278,-12.29297 -3.79303,0 -14.4383,4.14226 -27.42233,10.6705 -11.80945,5.93766 -17.77919,7.53242 -22.07819,5.89794 -1.82023,-0.69205 -7.5263,-4.70307 -12.68016,-8.91336 -7.79521,-6.36808 -10.10083,-7.64801 -13.71377,-7.61304 -5.23393,0.0507 -6.75905,0.90299 -17.95868,10.03636 -11.57948,9.44311 -13.22285,9.38408 -35.85084,-1.28787 -20.32849,-9.58745 -25.88791,-10.62443 -31.52586,-5.88039 -7.10829,5.98122 -6.72568,7.8079 7.85662,37.50968 30.21815,61.54938 37.73533,96.78696 39.97533,187.38841 0.8511,34.42422 1.09369,35.58972 8.03672,38.60978 4.74828,2.0654 4.82143,2.06598 9.58212,0.0769 l 0,-4e-5 z M 317.70481,273.53031 c 5.02913,-4.39714 5.58907,-8.9215 2.26171,-18.27457 -4.8104,-13.52183 -7.53549,-26.38683 -8.67743,-40.96564 -1.18807,-15.16773 -2.61619,-18.76183 -8.40835,-21.16102 -5.15178,-2.13393 -11.12518,-0.56754 -14.88772,3.90399 -3.17916,3.77821 -3.19791,3.90809 -2.43473,16.86729 1.41725,24.06559 8.77132,51.49819 15.6674,58.44345 4.82417,4.85858 11.71206,5.35451 16.47912,1.1865 z m -0.84632,-117.86683 c 1.46736,-0.94911 4.59539,-5.58479 6.95119,-10.30154 14.12111,-28.27311 37.34079,-51.97122 63.94396,-65.2615 15.54782,-7.7673 39.2868,-13.90339 53.8446,-13.91784 13.76719,-0.0137 20.31173,-4.2818 20.31173,-13.24665 0,-10.46563 -5.61247,-13.53846 -22.68433,-12.41968 -29.30951,1.92077 -57.01913,11.52588 -83.23978,28.85381 -11.97026,7.91054 -34.38768,30.65813 -42.7662,43.39608 -8.06107,12.2553 -16.23336,28.67614 -16.23336,32.61817 0,10.25138 11.0657,15.97526 19.87219,10.27915 z"
       id="path8258"
       inkscape:connector-curvature="0" /></g></svg>