<?xml version="1.0" encoding="UTF-8" standalone="no"?>
<!-- Created with Inkscape (http://www.inkscape.org/) -->

<svg
   xmlns:dc="http://purl.org/dc/elements/1.1/"
   xmlns:cc="http://creativecommons.org/ns#"
   xmlns:rdf="http://www.w3.org/1999/02/22-rdf-syntax-ns#"
   xmlns:svg="http://www.w3.org/2000/svg"
   xmlns="http://www.w3.org/2000/svg"
   xmlns:sodipodi="http://sodipodi.sourceforge.net/DTD/sodipodi-0.dtd"
   xmlns:inkscape="http://www.inkscape.org/namespaces/inkscape"
   id="svg2"
   version="1.1"
   inkscape:version="0.91 r13725"
   xml:space="preserve"
   width="1500"
   height="1100"
   viewBox="0 0 1500 1100"
   sodipodi:docname="management.svg"><metadata
     id="metadata8"><rdf:RDF><cc:Work
         rdf:about=""><dc:format>image/svg+xml</dc:format><dc:type
           rdf:resource="http://purl.org/dc/dcmitype/StillImage" /><dc:title></dc:title></cc:Work></rdf:RDF></metadata><defs
     id="defs6"><radialGradient
       fx="0"
       fy="0"
       cx="0"
       cy="0"
       r="1"
       gradientUnits="userSpaceOnUse"
       gradientTransform="matrix(870.86438,0,0,-812.80676,610.28516,424)"
       spreadMethod="pad"
       id="radialGradient24"><stop
         style="stop-opacity:1;stop-color:#676767"
         offset="0"
         id="stop26" /><stop
         style="stop-opacity:1;stop-color:#676767"
         offset="0.0180097"
         id="stop28" /><stop
         style="stop-opacity:1;stop-color:#4d4e4e"
         offset="1"
         id="stop30" /></radialGradient><clipPath
       clipPathUnits="userSpaceOnUse"
       id="clipPath38"><path
         d="M 0,800 1200,800 1200,0 0,0 0,800 Z"
         id="path40"
         inkscape:connector-curvature="0" /></clipPath><clipPath
       clipPathUnits="userSpaceOnUse"
       id="clipPath46"><path
         d="m 68.4951,679.889 1055.7149,0 0,-587.7943 -1055.7149,0 0,587.7943 z"
         id="path48"
         inkscape:connector-curvature="0" /></clipPath><clipPath
       clipPathUnits="userSpaceOnUse"
       id="clipPath50"><path
         d="m 137.55,623.352 57.438,0 0,-57.432 -57.438,0 0,57.432 z"
         id="path52"
         inkscape:connector-curvature="0" /></clipPath><clipPath
       clipPathUnits="userSpaceOnUse"
       id="clipPath54"><path
         d="m 146.113,614.787 40.316,0 0,-40.308 -40.316,0 0,40.308 z"
         id="path56"
         inkscape:connector-curvature="0" /></clipPath><clipPath
       clipPathUnits="userSpaceOnUse"
       id="clipPath58"><path
         d="m 137.55,149.529 57.438,0 0,-57.4343 -57.438,0 0,57.4343 z"
         id="path60"
         inkscape:connector-curvature="0" /></clipPath><clipPath
       clipPathUnits="userSpaceOnUse"
       id="clipPath62"><path
         d="m 146.113,140.956 40.316,0 0,-40.307 -40.316,0 0,40.307 z"
         id="path64"
         inkscape:connector-curvature="0" /></clipPath><clipPath
       clipPathUnits="userSpaceOnUse"
       id="clipPath66"><path
         d="m 966.372,464.178 109.938,0 0,-109.932 -109.938,0 0,109.932 z"
         id="path68"
         inkscape:connector-curvature="0" /></clipPath><clipPath
       clipPathUnits="userSpaceOnUse"
       id="clipPath70"><path
         d="m 1021.79,450.774 36.58,0 0,-41.565 -36.58,0 0,41.565 z"
         id="path72"
         inkscape:connector-curvature="0" /></clipPath><clipPath
       clipPathUnits="userSpaceOnUse"
       id="clipPath480"><path
         d="m 0,181.153 1200,0 0,-150.821 -1200,0 0,150.821 z"
         id="path482"
         inkscape:connector-curvature="0" /></clipPath><clipPath
       clipPathUnits="userSpaceOnUse"
       id="clipPath484"><path
         d="m 0,105.645 1200,0 0,-75.313 -1200,0 0,75.313 z"
         id="path486"
         inkscape:connector-curvature="0" /></clipPath><clipPath
       clipPathUnits="userSpaceOnUse"
       id="clipPath488"><path
         d="m 1200,30.332 -1200,0 0,75.313 1200,0 0,-75.313 z"
         id="path490"
         inkscape:connector-curvature="0" /></clipPath><linearGradient
       x1="0"
       y1="0"
       x2="1"
       y2="0"
       gradientUnits="userSpaceOnUse"
       gradientTransform="matrix(0,-78.639053,-78.639053,0,599.99951,113.4668)"
       spreadMethod="pad"
       id="linearGradient496"><stop
         style="stop-opacity:1;stop-color:#ffffff"
         offset="0"
         id="stop498" /><stop
         style="stop-opacity:0;stop-color:#ffffff"
         offset="0.53644615"
         id="stop500" /><stop
         style="stop-opacity:0;stop-color:#ffffff"
         offset="1"
         id="stop502" /></linearGradient><mask
       maskUnits="userSpaceOnUse"
       x="0"
       y="0"
       width="1"
       height="1"
       id="mask504"><g
         id="g506"><g
           id="g508"><g
             id="g510"><g
               id="g512"><path
                 d="m -32768,32767 65535,0 0,-65534 -65535,0 0,65534 z"
                 style="fill:url(#linearGradient496);stroke:none"
                 id="path514"
                 inkscape:connector-curvature="0" /></g></g></g></g></mask><linearGradient
       x1="0"
       y1="0"
       x2="1"
       y2="0"
       gradientUnits="userSpaceOnUse"
       gradientTransform="matrix(0,-78.639053,-106.25277,0,984.73216,118.55155)"
       spreadMethod="pad"
       id="linearGradient516"><stop
         style="stop-opacity:1;stop-color:#929497"
         offset="0"
         id="stop518" /><stop
         style="stop-opacity:1;stop-color:#f1f1f2"
         offset="0.53644615"
         id="stop520" /><stop
         style="stop-opacity:1;stop-color:#f1f1f2"
         offset="1"
         id="stop522" /></linearGradient><clipPath
       clipPathUnits="userSpaceOnUse"
       id="clipPath524"><path
         d="m 0,181.153 1200,0 0,-75.312 -1200,0 0,75.312 z"
         id="path526"
         inkscape:connector-curvature="0" /></clipPath><clipPath
       clipPathUnits="userSpaceOnUse"
       id="clipPath528"><path
         d="m 0,181.153 1200,0 0,-75.313 -1200,0 0,75.313 z"
         id="path530"
         inkscape:connector-curvature="0" /></clipPath><linearGradient
       x1="0"
       y1="0"
       x2="1"
       y2="0"
       gradientUnits="userSpaceOnUse"
       gradientTransform="matrix(0,78.639053,78.639053,0,600,98.019531)"
       spreadMethod="pad"
       id="linearGradient536"><stop
         style="stop-opacity:1;stop-color:#ffffff"
         offset="0"
         id="stop538" /><stop
         style="stop-opacity:0;stop-color:#ffffff"
         offset="0.53644615"
         id="stop540" /><stop
         style="stop-opacity:0;stop-color:#ffffff"
         offset="1"
         id="stop542" /></linearGradient><mask
       maskUnits="userSpaceOnUse"
       x="0"
       y="0"
       width="1"
       height="1"
       id="mask544"><g
         id="g546"><g
           id="g548"><g
             id="g550"><g
               id="g552"><path
                 d="m -32768,32767 65535,0 0,-65534 -65535,0 0,65534 z"
                 style="fill:url(#linearGradient536);stroke:none"
                 id="path554"
                 inkscape:connector-curvature="0" /></g></g></g></g></mask><linearGradient
       x1="0"
       y1="0"
       x2="1"
       y2="0"
       gradientUnits="userSpaceOnUse"
       gradientTransform="matrix(0,78.639053,106.25277,0,984.73283,103.10428)"
       spreadMethod="pad"
       id="linearGradient556"><stop
         style="stop-opacity:1;stop-color:#929497"
         offset="0"
         id="stop558" /><stop
         style="stop-opacity:1;stop-color:#f1f1f2"
         offset="0.53644615"
         id="stop560" /><stop
         style="stop-opacity:1;stop-color:#f1f1f2"
         offset="1"
         id="stop562" /></linearGradient></defs><sodipodi:namedview
     pagecolor="#ffffff"
     bordercolor="#666666"
     borderopacity="1"
     objecttolerance="10"
     gridtolerance="10"
     guidetolerance="10"
     inkscape:pageopacity="0"
     inkscape:pageshadow="2"
     inkscape:window-width="1920"
     inkscape:window-height="1051"
     id="namedview4"
     showgrid="false"
     inkscape:zoom="0.472"
     inkscape:cx="499.76307"
     inkscape:cy="559.33793"
     inkscape:window-x="-9"
     inkscape:window-y="-9"
     inkscape:window-maximized="1"
     inkscape:current-layer="g76" /><g
     inkscape:groupmode="layer"
     id="layer2"
     inkscape:label="Layer 2"
     transform="translate(0,100)"><circle
       style="opacity:1;fill:#f55127;fill-opacity:0.31784842;fill-rule:nonzero;stroke:none;stroke-width:1.49122167;stroke-linecap:round;stroke-linejoin:round;stroke-miterlimit:4;stroke-dasharray:none;stroke-opacity:1"
       id="path9127"
       cx="693.16443"
       cy="454.08978"
       r="499.25439" /></g><g
     id="g10"
     inkscape:groupmode="layer"
     inkscape:label="infographic-25"
     transform="matrix(1.25,0,0,-1.25,0,1100)"
     style="display:inline"><g
       id="g34"
       style="display:inline"
       transform="translate(-1.6949152,101.69492)"><g
         id="g36"
         clip-path="url(#clipPath38)"><g
           id="g42"><g
             id="g44" /><g
             id="g74"><g
               clip-path="url(#clipPath46)"
               id="g76"
               style="opacity:0.30000299"><g
                 id="g102"><g
                   id="g104" /><g
                   id="g106"><g
                     clip-path="url(#clipPath58)"
                     id="g108"
                     style="opacity:0.60000598"><g
                       transform="translate(194.9883,120.8008)"
                       id="g110"><path
                         d="m 0,0 c 0,15.868 -12.85,28.729 -28.716,28.729 -15.863,0 -28.722,-12.861 -28.722,-28.729 0,-15.861 12.859,-28.706 28.722,-28.706 C -12.85,-28.706 0,-15.861 0,0"
                         style="fill:#333333;fill-opacity:1;fill-rule:nonzero;stroke:none"
                         id="path112"
                         inkscape:connector-curvature="0" /></g></g></g></g><path
                 d="m 169.087,122.683 -5.641,0 0,468.193 5.641,0 0,-468.193 z"
                 style="fill:#333333;fill-opacity:1;fill-rule:nonzero;stroke:none"
                 id="path126"
                 inkscape:connector-curvature="0" /><path
                 d="m 1016.155,121.746 -853.645,0 0,5.642 853.645,0 0,-5.642 z"
                 style="fill:#333333;fill-opacity:1;fill-rule:nonzero;stroke:none"
                 id="path128"
                 inkscape:connector-curvature="0" /><g
                 transform="translate(1010.0459,143.1641)"
                 id="g130"><path
                   d="M 0,0 33.839,-19.539 0,-39.078 0,0 Z"
                   style="fill:#333333;fill-opacity:1;fill-rule:nonzero;stroke:none"
                   id="path132"
                   inkscape:connector-curvature="0" /><path
                   d="m -863.57812,447.15706 19.539,33.83902 19.539,-33.83902 -39.078,0 z"
                   style="display:inline;opacity:0.656;fill:#111111;fill-opacity:1;fill-rule:nonzero;stroke:none"
                   id="path132-1"
                   inkscape:connector-curvature="0" /></g><path
                 d="m 292.243,124.799 -61.105,0 0,78.268 61.105,0 0,-78.268 z"
                 style="fill:#333333;fill-opacity:1;fill-rule:nonzero;stroke:none"
                 id="path134"
                 inkscape:connector-curvature="0" /><path
                 d="m 390.962,124.799 -61.113,0 0,129.502 61.113,0 0,-129.502 z"
                 style="fill:#723e33;fill-opacity:1;fill-rule:nonzero;stroke:none"
                 id="path136"
                 inkscape:connector-curvature="0" /><path
                 d="m 390.962,259.471 -61.113,0 0,13.163 61.113,0 0,-13.163 z"
                 style="fill:#723e33;fill-opacity:1;fill-rule:nonzero;stroke:none"
                 id="path138"
                 inkscape:connector-curvature="0" /><path
                 d="m 489.673,294.023 -61.107,0 0,13.161 61.107,0 0,-13.161 z"
                 style="fill:#db3333;fill-opacity:1;fill-rule:nonzero;stroke:none"
                 id="path140"
                 inkscape:connector-curvature="0" /><path
                 d="m 489.673,310.947 -61.107,0 0,13.16 61.107,0 0,-13.16 z"
                 style="fill:#db3333;fill-opacity:1;fill-rule:nonzero;stroke:none"
                 id="path142"
                 inkscape:connector-curvature="0" /><path
                 d="m 588.388,294.023 -61.104,0 0,13.161 61.104,0 0,-13.161 z"
                 style="fill:#c95a27;fill-opacity:1;fill-rule:nonzero;stroke:none"
                 id="path144"
                 inkscape:connector-curvature="0" /><path
                 d="m 588.388,310.947 -61.104,0 0,13.16 61.104,0 0,-13.16 z"
                 style="fill:#c95a27;fill-opacity:1;fill-rule:nonzero;stroke:none"
                 id="path146"
                 inkscape:connector-curvature="0" /><path
                 d="m 588.388,327.87 -61.104,0 0,13.157 61.104,0 0,-13.157 z"
                 style="fill:#c95a27;fill-opacity:1;fill-rule:nonzero;stroke:none"
                 id="path148"
                 inkscape:connector-curvature="0" /><path
                 d="m 588.388,344.79 -61.104,0 0,13.159 61.104,0 0,-13.159 z"
                 style="fill:#c95a27;fill-opacity:1;fill-rule:nonzero;stroke:none"
                 id="path150"
                 inkscape:connector-curvature="0" /><path
                 d="m 588.388,361.713 -61.104,0 0,13.157 61.104,0 0,-13.157 z"
                 style="fill:#c95a27;fill-opacity:1;fill-rule:nonzero;stroke:none"
                 id="path152"
                 inkscape:connector-curvature="0" /><path
                 d="m 687.105,294.023 -61.11,0 0,13.161 61.11,0 0,-13.161 z"
                 style="fill:#333366;fill-opacity:1;fill-rule:nonzero;stroke:none"
                 id="path154"
                 inkscape:connector-curvature="0" /><path
                 d="m 687.105,310.947 -61.11,0 0,13.16 61.11,0 0,-13.16 z"
                 style="fill:#333366;fill-opacity:1;fill-rule:nonzero;stroke:none"
                 id="path156"
                 inkscape:connector-curvature="0" /><path
                 d="m 687.105,327.87 -61.11,0 0,13.157 61.11,0 0,-13.157 z"
                 style="fill:#333366;fill-opacity:1;fill-rule:nonzero;stroke:none"
                 id="path158"
                 inkscape:connector-curvature="0" /><path
                 d="m 687.105,344.79 -61.11,0 0,13.159 61.11,0 0,-13.159 z"
                 style="fill:#333366;fill-opacity:1;fill-rule:nonzero;stroke:none"
                 id="path160"
                 inkscape:connector-curvature="0" /><path
                 d="m 687.105,361.713 -61.11,0 0,13.157 61.11,0 0,-13.157 z"
                 style="fill:#333366;fill-opacity:1;fill-rule:nonzero;stroke:none"
                 id="path162"
                 inkscape:connector-curvature="0" /><path
                 d="m 687.105,378.636 -61.11,0 0,13.157 61.11,0 0,-13.157 z"
                 style="fill:#333366;fill-opacity:1;fill-rule:nonzero;stroke:none"
                 id="path164"
                 inkscape:connector-curvature="0" /><path
                 d="m 687.105,395.56 -61.11,0 0,13.157 61.11,0 0,-13.157 z"
                 style="fill:#333366;fill-opacity:1;fill-rule:nonzero;stroke:none"
                 id="path166"
                 inkscape:connector-curvature="0" /><path
                 d="m 687.105,412.479 -61.11,0 0,13.16 61.11,0 0,-13.16 z"
                 style="fill:#333366;fill-opacity:1;fill-rule:nonzero;stroke:none"
                 id="path168"
                 inkscape:connector-curvature="0" /><path
                 d="m 785.815,294.023 -61.105,0 0,13.161 61.105,0 0,-13.161 z"
                 style="fill:#337233;fill-opacity:1;fill-rule:nonzero;stroke:none"
                 id="path170"
                 inkscape:connector-curvature="0" /><path
                 d="m 785.815,310.947 -61.105,0 0,13.16 61.105,0 0,-13.16 z"
                 style="fill:#337233;fill-opacity:1;fill-rule:nonzero;stroke:none"
                 id="path172"
                 inkscape:connector-curvature="0" /><path
                 d="m 785.815,327.87 -61.105,0 0,13.157 61.105,0 0,-13.157 z"
                 style="fill:#337233;fill-opacity:1;fill-rule:nonzero;stroke:none"
                 id="path174"
                 inkscape:connector-curvature="0" /><path
                 d="m 785.815,344.79 -61.105,0 0,13.159 61.105,0 0,-13.159 z"
                 style="fill:#337233;fill-opacity:1;fill-rule:nonzero;stroke:none"
                 id="path176"
                 inkscape:connector-curvature="0" /><path
                 d="m 785.815,361.713 -61.105,0 0,13.157 61.105,0 0,-13.157 z"
                 style="fill:#337233;fill-opacity:1;fill-rule:nonzero;stroke:none"
                 id="path178"
                 inkscape:connector-curvature="0" /><path
                 d="m 785.815,378.636 -61.105,0 0,13.157 61.105,0 0,-13.157 z"
                 style="fill:#337233;fill-opacity:1;fill-rule:nonzero;stroke:none"
                 id="path180"
                 inkscape:connector-curvature="0" /><path
                 d="m 785.815,395.56 -61.105,0 0,13.157 61.105,0 0,-13.157 z"
                 style="fill:#337233;fill-opacity:1;fill-rule:nonzero;stroke:none"
                 id="path182"
                 inkscape:connector-curvature="0" /><path
                 d="m 785.815,412.479 -61.105,0 0,13.16 61.105,0 0,-13.16 z"
                 style="fill:#337233;fill-opacity:1;fill-rule:nonzero;stroke:none"
                 id="path184"
                 inkscape:connector-curvature="0" /><path
                 d="m 785.815,429.405 -61.105,0 0,13.159 61.105,0 0,-13.159 z"
                 style="fill:#337233;fill-opacity:1;fill-rule:nonzero;stroke:none"
                 id="path186"
                 inkscape:connector-curvature="0" /><path
                 d="m 785.815,446.324 -61.105,0 0,13.164 61.105,0 0,-13.164 z"
                 style="fill:#337233;fill-opacity:1;fill-rule:nonzero;stroke:none"
                 id="path188"
                 inkscape:connector-curvature="0" /><path
                 d="m 785.815,463.249 -61.105,0 0,13.161 61.105,0 0,-13.161 z"
                 style="fill:#337233;fill-opacity:1;fill-rule:nonzero;stroke:none"
                 id="path190"
                 inkscape:connector-curvature="0" /><path
                 d="m 884.533,294.023 -61.108,0 0,13.161 61.108,0 0,-13.161 z"
                 style="fill:#e97844;fill-opacity:1;fill-rule:nonzero;stroke:none"
                 id="path192"
                 inkscape:connector-curvature="0" /><path
                 d="m 884.533,310.947 -61.108,0 0,13.16 61.108,0 0,-13.16 z"
                 style="fill:#e97844;fill-opacity:1;fill-rule:nonzero;stroke:none"
                 id="path194"
                 inkscape:connector-curvature="0" /><path
                 d="m 884.533,327.87 -61.108,0 0,13.157 61.108,0 0,-13.157 z"
                 style="fill:#e97844;fill-opacity:1;fill-rule:nonzero;stroke:none"
                 id="path196"
                 inkscape:connector-curvature="0" /><path
                 d="m 884.533,344.79 -61.108,0 0,13.159 61.108,0 0,-13.159 z"
                 style="fill:#e97844;fill-opacity:1;fill-rule:nonzero;stroke:none"
                 id="path198"
                 inkscape:connector-curvature="0" /><path
                 d="m 884.533,361.713 -61.108,0 0,13.157 61.108,0 0,-13.157 z"
                 style="fill:#e97844;fill-opacity:1;fill-rule:nonzero;stroke:none"
                 id="path200"
                 inkscape:connector-curvature="0" /><path
                 d="m 884.533,378.636 -61.108,0 0,13.157 61.108,0 0,-13.157 z"
                 style="fill:#e97844;fill-opacity:1;fill-rule:nonzero;stroke:none"
                 id="path202"
                 inkscape:connector-curvature="0" /><path
                 d="m 884.533,395.56 -61.108,0 0,13.157 61.108,0 0,-13.157 z"
                 style="fill:#e97844;fill-opacity:1;fill-rule:nonzero;stroke:none"
                 id="path204"
                 inkscape:connector-curvature="0" /><path
                 d="m 884.533,412.479 -61.108,0 0,13.16 61.108,0 0,-13.16 z"
                 style="fill:#e97844;fill-opacity:1;fill-rule:nonzero;stroke:none"
                 id="path206"
                 inkscape:connector-curvature="0" /><path
                 d="m 884.533,429.405 -61.108,0 0,13.159 61.108,0 0,-13.159 z"
                 style="fill:#e97844;fill-opacity:1;fill-rule:nonzero;stroke:none"
                 id="path208"
                 inkscape:connector-curvature="0" /><path
                 d="m 884.533,446.324 -61.108,0 0,13.164 61.108,0 0,-13.164 z"
                 style="fill:#e97844;fill-opacity:1;fill-rule:nonzero;stroke:none"
                 id="path210"
                 inkscape:connector-curvature="0" /><path
                 d="m 884.533,463.249 -61.108,0 0,13.161 61.108,0 0,-13.161 z"
                 style="fill:#e97844;fill-opacity:1;fill-rule:nonzero;stroke:none"
                 id="path212"
                 inkscape:connector-curvature="0" /><path
                 d="m 884.533,480.169 -61.108,0 0,13.162 61.108,0 0,-13.162 z"
                 style="fill:#e97844;fill-opacity:1;fill-rule:nonzero;stroke:none"
                 id="path214"
                 inkscape:connector-curvature="0" /><path
                 d="m 884.533,497.092 -61.108,0 0,13.16 61.108,0 0,-13.16 z"
                 style="fill:#e97844;fill-opacity:1;fill-rule:nonzero;stroke:none"
                 id="path216"
                 inkscape:connector-curvature="0" /><path
                 d="m 489.673,124.799 -61.107,0 0,129.502 61.107,0 0,-129.502 z"
                 style="fill:#db3333;fill-opacity:1;fill-rule:nonzero;stroke:none"
                 id="path220"
                 inkscape:connector-curvature="0" /><path
                 d="m 489.673,259.471 -61.107,0 0,13.163 61.107,0 0,-13.163 z"
                 style="fill:#db3333;fill-opacity:1;fill-rule:nonzero;stroke:none"
                 id="path222"
                 inkscape:connector-curvature="0" /><path
                 d="m 489.673,277.099 -61.107,0 0,13.164 61.107,0 0,-13.164 z"
                 style="fill:#db3333;fill-opacity:1;fill-rule:nonzero;stroke:none"
                 id="path224"
                 inkscape:connector-curvature="0" /><path
                 d="m 588.388,124.799 -61.104,0 0,129.502 61.104,0 0,-129.502 z"
                 style="fill:#c95a27;fill-opacity:1;fill-rule:nonzero;stroke:none"
                 id="path226"
                 inkscape:connector-curvature="0" /><path
                 d="m 588.388,259.471 -61.104,0 0,13.163 61.104,0 0,-13.163 z"
                 style="fill:#c95a27;fill-opacity:1;fill-rule:nonzero;stroke:none"
                 id="path228"
                 inkscape:connector-curvature="0" /><path
                 d="m 588.388,277.099 -61.104,0 0,13.164 61.104,0 0,-13.164 z"
                 style="fill:#c95a27;fill-opacity:1;fill-rule:nonzero;stroke:none"
                 id="path230"
                 inkscape:connector-curvature="0" /><path
                 d="m 687.105,124.799 -61.11,0 0,129.502 61.11,0 0,-129.502 z"
                 style="fill:#333366;fill-opacity:1;fill-rule:nonzero;stroke:none"
                 id="path232"
                 inkscape:connector-curvature="0" /><path
                 d="m 687.105,259.471 -61.11,0 0,13.163 61.11,0 0,-13.163 z"
                 style="fill:#333366;fill-opacity:1;fill-rule:nonzero;stroke:none"
                 id="path234"
                 inkscape:connector-curvature="0" /><path
                 d="m 687.105,277.099 -61.11,0 0,13.164 61.11,0 0,-13.164 z"
                 style="fill:#333366;fill-opacity:1;fill-rule:nonzero;stroke:none"
                 id="path236"
                 inkscape:connector-curvature="0" /><path
                 d="m 785.815,124.799 -61.105,0 0,129.502 61.105,0 0,-129.502 z"
                 style="fill:#337233;fill-opacity:1;fill-rule:nonzero;stroke:none"
                 id="path238"
                 inkscape:connector-curvature="0" /><path
                 d="m 785.815,259.471 -61.105,0 0,13.163 61.105,0 0,-13.163 z"
                 style="fill:#337233;fill-opacity:1;fill-rule:nonzero;stroke:none"
                 id="path240"
                 inkscape:connector-curvature="0" /><path
                 d="m 785.815,277.099 -61.105,0 0,13.164 61.105,0 0,-13.164 z"
                 style="fill:#337233;fill-opacity:1;fill-rule:nonzero;stroke:none"
                 id="path242"
                 inkscape:connector-curvature="0" /><path
                 d="m 884.533,124.799 -61.108,0 0,129.502 61.108,0 0,-129.502 z"
                 style="fill:#e97844;fill-opacity:1;fill-rule:nonzero;stroke:none"
                 id="path244"
                 inkscape:connector-curvature="0" /><path
                 d="m 884.533,259.471 -61.108,0 0,13.163 61.108,0 0,-13.163 z"
                 style="fill:#e97844;fill-opacity:1;fill-rule:nonzero;stroke:none"
                 id="path246"
                 inkscape:connector-curvature="0" /><path
                 d="m 884.533,277.099 -61.108,0 0,13.164 61.108,0 0,-13.164 z"
                 style="fill:#e97844;fill-opacity:1;fill-rule:nonzero;stroke:none"
                 id="path248"
                 inkscape:connector-curvature="0" /></g></g></g><g
           id="g716"
           transform="translate(562.5498,360.5381)" /></g></g></g><g
     inkscape:groupmode="layer"
     id="layer1"
     inkscape:label="Layer 1"
     style="display:inline"
     transform="translate(0,100)"><g
       style="display:inline"
       id="g624"
       transform="matrix(1.25,0,0,-1.25,749.13135,352.88136)"><path
         d="m 0,0 0,145.98 c -4,0.309 -7.648,0.472 -11.6,0.472 -80.411,0 -145.536,-65.181 -145.536,-145.604 0,-80.426 65.229,-145.605 145.64,-145.605 80.409,0 145.621,65.179 145.621,145.605 0,-0.284 0.009,-0.565 0.007,-0.848 L 0,0 Z"
         style="fill:#d14358;fill-opacity:1;fill-rule:nonzero;stroke:none"
         id="path626"
         inkscape:connector-curvature="0" /></g><g
       style="display:inline"
       id="g628"
       transform="matrix(1.25,0,0,-1.25,976.77172,418.26586)"><path
         d="m 0,0 c 2.816,10.252 4.991,20.759 6.153,31.592 l 1.238,0.09 47.356,11.488 -0.599,9.138 -81.145,0 c -0.458,-91.629 -74.857,-165.739 -166.576,-165.739 -92.005,0 -166.587,74.567 -166.587,166.586 0,92.016 74.582,166.586 166.587,166.586 3.954,0 7.735,-0.147 11.621,-0.419 -0.008,0.001 -0.16,0.001 -0.16,0.002 l 0,80.984 -35.944,0 -9.642,-49.151 c -14.158,-2.428 -27.807,-6.341 -40.785,-11.572 l -0.464,0.687 -32.291,36.541 -42.696,-26.271 17.497,-46.932 c -12.205,-10.789 -23.159,-22.937 -32.442,-36.378 l -0.985,0.458 -47.089,12.711 -21.159,-45.436 40.637,-29.639 0.059,-0.031 c -2.756,-10.266 -4.946,-20.773 -6.049,-31.621 l -1.253,-0.088 -47.402,-11.504 3.308,-50.012 49.875,-6.452 0.33,0.045 c 2.548,-10.505 5.722,-20.772 9.835,-30.549 l -1.253,-0.802 -36.018,-32.875 26.943,-42.262 46.837,18.329 0.461,0.344 c 7.198,-7.883 14.948,-15.231 23.306,-21.891 l -0.892,-1.623 -15.766,-46.136 43.942,-24.095 32.249,38.592 2.578,0.539 c 9.983,-3.429 19.273,-6.051 33.273,-7.883 l 0,-1.968 3.714,-42.075 50.114,0 9.714,46.379 -0.043,-0.879 c 13.964,2.383 27.434,5.396 40.265,10.507 l 0.952,-1.922 32.261,-36.71 42.727,26.141 -17.571,47.063 -0.268,0.357 c 12.159,10.67 23.055,22.712 32.335,36.004 l 1.446,-0.686 L 19.58,-75.135 40.77,-29.699 0.147,-0.059 0,0 Z"
         style="fill:#d14358;fill-opacity:1;fill-rule:nonzero;stroke:none"
         id="path630"
         inkscape:connector-curvature="0" /></g><g
       style="display:inline"
       id="g632"
       transform="matrix(1.25,0,0,-1.25,749.47922,170.40573)"><path
         d="M 0,0 0,0 C 0.057,-0.005 0.112,-0.011 0.169,-0.016 0.112,-0.011 0.057,-0.005 0,0"
         style="fill:#1fc1b1;fill-opacity:1;fill-rule:nonzero;stroke:none"
         id="path634"
         inkscape:connector-curvature="0" /></g><g
       style="display:inline"
       id="g636"
       transform="matrix(1.25,0,0,-1.25,943.02535,352.88136)"><path
         d="M 0,0 0,0 C 0.001,0.283 0.011,0.564 0.011,0.848 0.011,0.564 0.001,0.283 0,0"
         style="fill:#1fc1b1;fill-opacity:1;fill-rule:nonzero;stroke:none"
         id="path638"
         inkscape:connector-curvature="0" /></g><g
       style="display:inline;fill:#1f87b1;fill-opacity:1;stroke:#1f87b1;stroke-opacity:1"
       id="g640"
       transform="matrix(1.25,0,0,-1.25,938.94098,308.74199)"><path
         d="m 0,0 c -0.025,0.743 -0.048,1.487 -0.085,2.228 -0.021,0.448 -0.054,0.892 -0.081,1.338 -0.039,0.672 -0.077,1.343 -0.127,2.012 -0.035,0.473 -0.079,0.943 -0.119,1.415 -0.054,0.637 -0.107,1.274 -0.17,1.906 -0.048,0.492 -0.106,0.98 -0.159,1.468 -0.067,0.612 -0.134,1.225 -0.209,1.833 -0.062,0.497 -0.131,0.992 -0.198,1.488 -0.081,0.597 -0.162,1.194 -0.251,1.789 -0.075,0.501 -0.155,0.999 -0.235,1.498 -0.095,0.585 -0.189,1.171 -0.291,1.754 -0.088,0.5 -0.18,0.999 -0.272,1.498 -0.109,0.577 -0.217,1.153 -0.332,1.727 -0.099,0.5 -0.204,0.998 -0.309,1.495 -0.121,0.569 -0.243,1.136 -0.37,1.702 -0.113,0.499 -0.229,0.996 -0.346,1.494 -0.134,0.558 -0.269,1.116 -0.408,1.671 -0.125,0.497 -0.253,0.996 -0.384,1.492 -0.145,0.552 -0.294,1.101 -0.446,1.651 -0.137,0.492 -0.274,0.985 -0.416,1.476 -0.159,0.545 -0.321,1.089 -0.486,1.633 -0.15,0.49 -0.298,0.98 -0.452,1.468 -0.17,0.537 -0.346,1.071 -0.523,1.607 -0.16,0.487 -0.32,0.974 -0.486,1.459 -0.182,0.532 -0.371,1.06 -0.56,1.588 -0.172,0.482 -0.343,0.964 -0.519,1.442 -0.195,0.526 -0.397,1.049 -0.598,1.57 -0.183,0.478 -0.363,0.955 -0.552,1.429 -0.207,0.518 -0.421,1.032 -0.633,1.548 -0.194,0.472 -0.386,0.946 -0.586,1.416 -0.218,0.513 -0.445,1.022 -0.669,1.532 -0.206,0.464 -0.406,0.931 -0.616,1.393 -0.232,0.51 -0.472,1.015 -0.711,1.522 -0.214,0.457 -0.423,0.915 -0.643,1.368 -0.245,0.51 -0.503,1.014 -0.755,1.521 -0.411,0.824 -0.83,1.643 -1.258,2.458 -0.282,0.538 -0.561,1.08 -0.851,1.614 -0.264,0.486 -0.539,0.966 -0.808,1.448 -0.245,0.44 -0.486,0.882 -0.736,1.319 -0.283,0.489 -0.573,0.974 -0.86,1.46 -0.248,0.42 -0.492,0.842 -0.744,1.259 -0.297,0.49 -0.602,0.976 -0.904,1.462 -0.254,0.407 -0.505,0.816 -0.763,1.22 -0.308,0.485 -0.626,0.965 -0.941,1.446 -0.261,0.399 -0.52,0.797 -0.785,1.193 -0.322,0.479 -0.65,0.953 -0.977,1.427 -0.269,0.389 -0.536,0.78 -0.809,1.166 -0.334,0.474 -0.674,0.945 -1.015,1.414 -0.276,0.379 -0.549,0.759 -0.827,1.135 -0.349,0.47 -0.703,0.936 -1.056,1.401 -0.279,0.367 -0.559,0.734 -0.842,1.099 -0.363,0.465 -0.729,0.927 -1.097,1.387 -0.285,0.356 -0.57,0.713 -0.858,1.066 -0.376,0.461 -0.756,0.919 -1.139,1.376 -0.288,0.344 -0.576,0.686 -0.867,1.026 -0.392,0.458 -0.786,0.914 -1.183,1.366 -0.29,0.33 -0.582,0.659 -0.875,0.986 -0.408,0.455 -0.818,0.907 -1.231,1.357 -0.291,0.316 -0.583,0.629 -0.876,0.941 -0.426,0.454 -0.852,0.904 -1.284,1.353 -0.288,0.298 -0.58,0.594 -0.871,0.891 -0.444,0.452 -0.889,0.903 -1.34,1.349 -0.284,0.281 -0.572,0.559 -0.857,0.839 -0.467,0.453 -0.932,0.905 -1.406,1.35 -0.273,0.259 -0.551,0.515 -0.829,0.773 -0.491,0.457 -0.983,0.913 -1.483,1.363 -0.255,0.231 -0.515,0.458 -0.774,0.687 -0.527,0.468 -1.054,0.936 -1.589,1.396 -0.22,0.189 -0.443,0.373 -0.663,0.561 -0.58,0.492 -1.16,0.984 -1.749,1.467 -0.145,0.119 -0.293,0.235 -0.439,0.354 -3.817,3.106 -7.806,6.011 -11.954,8.689 l -0.085,0.056 c -0.735,0.474 -1.478,0.937 -2.222,1.397 -0.149,0.091 -0.296,0.186 -0.445,0.278 -0.695,0.426 -1.398,0.841 -2.101,1.255 -0.201,0.118 -0.4,0.238 -0.602,0.355 -0.677,0.393 -1.36,0.777 -2.043,1.158 -0.236,0.131 -0.468,0.263 -0.702,0.392 -0.668,0.366 -1.339,0.725 -2.013,1.08 -0.257,0.136 -0.514,0.273 -0.772,0.408 -0.665,0.345 -1.333,0.681 -2.003,1.016 -0.272,0.135 -0.542,0.27 -0.815,0.404 -0.667,0.326 -1.337,0.646 -2.009,0.961 -0.283,0.132 -0.564,0.265 -0.846,0.396 -0.672,0.308 -1.347,0.611 -2.025,0.911 -0.286,0.125 -0.573,0.251 -0.86,0.376 -0.681,0.294 -1.364,0.583 -2.051,0.866 -0.288,0.119 -0.577,0.237 -0.866,0.353 -0.692,0.281 -1.386,0.555 -2.084,0.824 -0.286,0.11 -0.572,0.218 -0.859,0.327 -0.707,0.266 -1.418,0.529 -2.13,0.784 -0.278,0.1 -0.556,0.197 -0.834,0.294 -0.728,0.255 -1.458,0.506 -2.191,0.749 -0.263,0.088 -0.529,0.172 -0.794,0.258 -0.751,0.244 -1.504,0.482 -2.259,0.714 -0.246,0.075 -0.493,0.146 -0.738,0.218 -0.782,0.235 -1.565,0.464 -2.353,0.684 -0.21,0.059 -0.422,0.113 -0.633,0.17 -0.826,0.226 -1.654,0.448 -2.487,0.659 -0.152,0.038 -0.305,0.073 -0.457,0.111 -0.896,0.223 -1.793,0.441 -2.697,0.646 -0.038,0.009 -0.078,0.017 -0.117,0.025 -6.114,1.382 -12.524,2.348 -18.923,2.866 -0.052,0.004 -0.295,0.009 -0.295,0.014 l 0,-134.846 123.922,0 c 0.002,0.262 0.01,0.522 0.01,0.784 0,1.132 -0.016,2.261 -0.042,3.387 C 0.032,-0.76 0.013,-0.381 0,0"
         style="fill:#1f87b1;fill-opacity:1;fill-rule:nonzero;stroke:#1f87b1;stroke-opacity:1"
         id="path642"
         inkscape:connector-curvature="0" /></g><g
       style="display:inline"
       id="g644"
       transform="matrix(1.25,0,0,-1.25,784.3291,122.53711)"><path
         d="m 0,0 c 1.184,-0.082 2.435,-0.181 3.612,-0.29 0.081,-0.007 0.196,-0.013 0.276,-0.022 1.14,-0.107 2.294,-0.228 3.425,-0.361 0.116,-0.014 0.241,-0.025 0.356,-0.039 1.105,-0.133 2.212,-0.277 3.31,-0.433 0.14,-0.019 0.282,-0.038 0.419,-0.057 1.083,-0.156 2.162,-0.324 3.237,-0.503 0.151,-0.024 0.302,-0.05 0.452,-0.074 1.063,-0.18 2.125,-0.371 3.181,-0.573 0.159,-0.031 0.319,-0.06 0.477,-0.091 1.05,-0.203 2.097,-0.418 3.14,-0.643 0.158,-0.034 0.317,-0.069 0.475,-0.103 1.044,-0.23 2.084,-0.469 3.12,-0.718 0.151,-0.037 0.302,-0.073 0.453,-0.111 1.042,-0.254 2.08,-0.519 3.114,-0.795 0.139,-0.037 0.278,-0.075 0.417,-0.113 1.045,-0.281 2.086,-0.572 3.123,-0.876 0.118,-0.034 0.235,-0.071 0.354,-0.106 1.056,-0.311 2.107,-0.633 3.154,-0.967 0.088,-0.027 0.176,-0.057 0.263,-0.085 1.076,-0.345 2.146,-0.699 3.211,-1.067 0.046,-0.017 0.092,-0.034 0.139,-0.049 12.428,-4.31 24.132,-10.165 34.882,-17.339 0.045,-0.03 0.091,-0.06 0.137,-0.09 0.878,-0.589 1.75,-1.187 2.616,-1.793 0.122,-0.086 0.244,-0.169 0.366,-0.254 0.809,-0.568 1.607,-1.146 2.404,-1.73 0.178,-0.13 0.357,-0.258 0.533,-0.389 0.754,-0.557 1.501,-1.123 2.245,-1.694 0.212,-0.163 0.425,-0.324 0.636,-0.489 0.713,-0.553 1.42,-1.114 2.123,-1.679 0.235,-0.19 0.47,-0.377 0.704,-0.568 0.679,-0.552 1.351,-1.112 2.02,-1.676 0.251,-0.211 0.503,-0.422 0.752,-0.635 0.649,-0.554 1.293,-1.115 1.934,-1.68 0.261,-0.231 0.522,-0.462 0.781,-0.693 0.625,-0.559 1.244,-1.123 1.859,-1.692 0.268,-0.247 0.534,-0.495 0.799,-0.744 0.602,-0.563 1.197,-1.131 1.789,-1.703 0.273,-0.264 0.543,-0.529 0.813,-0.794 0.58,-0.568 1.154,-1.14 1.724,-1.719 0.274,-0.278 0.547,-0.557 0.819,-0.836 0.557,-0.577 1.113,-1.154 1.664,-1.738 0.273,-0.29 0.544,-0.583 0.815,-0.875 0.54,-0.583 1.079,-1.169 1.611,-1.76 0.27,-0.3 0.536,-0.604 0.804,-0.906 0.525,-0.594 1.049,-1.188 1.565,-1.791 0.262,-0.305 0.521,-0.614 0.781,-0.923 0.512,-0.607 1.025,-1.214 1.528,-1.83 0.253,-0.309 0.5,-0.622 0.751,-0.932 0.501,-0.622 1.003,-1.246 1.494,-1.876 0.24,-0.307 0.474,-0.619 0.712,-0.928 0.493,-0.643 0.987,-1.285 1.472,-1.937 0.22,-0.294 0.433,-0.595 0.65,-0.893 0.493,-0.672 0.986,-1.343 1.467,-2.024 0.187,-0.262 0.367,-0.531 0.551,-0.793 0.504,-0.722 1.009,-1.445 1.5,-2.175 0.106,-0.158 0.208,-0.319 0.313,-0.475 1.758,-2.633 3.438,-5.322 5.034,-8.065 0.106,-0.182 0.215,-0.36 0.32,-0.54 0.384,-0.665 0.754,-1.338 1.128,-2.01 0.217,-0.391 0.44,-0.778 0.655,-1.172 0.334,-0.612 0.656,-1.23 0.981,-1.847 0.244,-0.46 0.491,-0.918 0.729,-1.38 0.304,-0.591 0.599,-1.188 0.895,-1.785 0.247,-0.494 0.498,-0.987 0.738,-1.485 0.282,-0.58 0.554,-1.166 0.828,-1.749 0.246,-0.523 0.493,-1.043 0.732,-1.568 0.262,-0.575 0.516,-1.154 0.77,-1.732 0.238,-0.542 0.478,-1.081 0.711,-1.625 0.246,-0.573 0.482,-1.15 0.72,-1.726 0.231,-0.558 0.461,-1.116 0.685,-1.675 0.228,-0.572 0.449,-1.146 0.67,-1.721 0.22,-0.572 0.44,-1.145 0.655,-1.721 0.212,-0.572 0.418,-1.146 0.624,-1.722 0.208,-0.583 0.416,-1.168 0.618,-1.755 0.199,-0.575 0.391,-1.154 0.581,-1.733 0.198,-0.593 0.392,-1.188 0.582,-1.787 0.182,-0.576 0.361,-1.153 0.537,-1.732 0.184,-0.608 0.366,-1.215 0.543,-1.825 0.168,-0.577 0.332,-1.155 0.493,-1.735 0.172,-0.618 0.339,-1.238 0.504,-1.859 0.152,-0.578 0.302,-1.156 0.448,-1.736 0.158,-0.63 0.31,-1.262 0.463,-1.895 0.137,-0.578 0.273,-1.156 0.404,-1.737 0.145,-0.641 0.283,-1.284 0.42,-1.927 0.123,-0.579 0.245,-1.158 0.361,-1.739 0.131,-0.651 0.254,-1.305 0.375,-1.958 0.109,-0.58 0.218,-1.159 0.321,-1.741 0.115,-0.664 0.222,-1.332 0.33,-1.998 0.093,-0.576 0.187,-1.15 0.273,-1.727 0.103,-0.681 0.195,-1.364 0.286,-2.047 0.078,-0.571 0.16,-1.142 0.231,-1.713 0.087,-0.698 0.162,-1.398 0.239,-2.099 0.063,-0.562 0.129,-1.124 0.185,-1.688 0.072,-0.725 0.131,-1.453 0.194,-2.182 0.046,-0.544 0.098,-1.086 0.139,-1.631 0.056,-0.767 0.099,-1.538 0.145,-2.307 0.031,-0.512 0.069,-1.022 0.094,-1.535 0.042,-0.85 0.068,-1.705 0.097,-2.559 0.014,-0.436 0.037,-0.871 0.047,-1.307 0.033,-1.293 0.049,-2.588 0.049,-3.888 0,-0.262 -0.009,-0.522 -0.01,-0.783 l 74.957,0 -2.476,37.768 -45.948,5.947 c -2.325,9.802 -5.284,19.34 -9.082,28.466 l 0.728,0.469 33.256,30.352 -24.874,39.051 -43.017,-16.836 c -6.716,7.421 -13.941,14.329 -21.775,20.581 l 0.399,0.728 14.564,42.604 L 79.286,57.127 49.665,21.804 c -0.017,0.007 -0.034,0.011 -0.05,0.018 L 49.6,21.804 c -3.631,1.257 -6.853,2.397 -10.204,3.423 -3.545,1.077 -7.468,2.027 -11.847,2.853 -2.266,0.423 -4.707,0.815 -7.707,1.172 l 0,0.826 -6.892,44.647 -13.108,0 0,-74.723 C -0.158,0.001 -0.006,0.001 0,0"
         style="fill:#1f87b1;fill-opacity:1;fill-rule:nonzero;stroke:none"
         id="path646"
         inkscape:connector-curvature="0" /></g></g></svg>