<?xml version="1.0" encoding="UTF-8" standalone="no"?>
<!-- Generator: Adobe Illustrator 16.0.0, SVG Export Plug-In . SVG Version: 6.00 Build 0)  -->

<svg
   xmlns:dc="http://purl.org/dc/elements/1.1/"
   xmlns:cc="http://creativecommons.org/ns#"
   xmlns:rdf="http://www.w3.org/1999/02/22-rdf-syntax-ns#"
   xmlns:svg="http://www.w3.org/2000/svg"
   xmlns="http://www.w3.org/2000/svg"
   xmlns:sodipodi="http://sodipodi.sourceforge.net/DTD/sodipodi-0.dtd"
   xmlns:inkscape="http://www.inkscape.org/namespaces/inkscape"
   version="1.1"
   id="Capa_1"
   x="0px"
   y="0px"
   width="615.62903"
   height="610.62903"
   viewBox="0 0 615.62903 610.62903"
   xml:space="preserve"
   inkscape:version="0.91 r13725"
   sodipodi:docname="newsletter.svg"><metadata
     id="metadata51"><rdf:RDF><cc:Work
         rdf:about=""><dc:format>image/svg+xml</dc:format><dc:type
           rdf:resource="http://purl.org/dc/dcmitype/StillImage" /><dc:title /></cc:Work></rdf:RDF></metadata><defs
     id="defs49" /><sodipodi:namedview
     pagecolor="#ffffff"
     bordercolor="#666666"
     borderopacity="1"
     objecttolerance="10"
     gridtolerance="10"
     guidetolerance="10"
     inkscape:pageopacity="0"
     inkscape:pageshadow="2"
     inkscape:window-width="1920"
     inkscape:window-height="1003"
     id="namedview47"
     showgrid="false"
     inkscape:zoom="0.57472804"
     inkscape:cx="287.33334"
     inkscape:cy="205.3145"
     inkscape:window-x="1911"
     inkscape:window-y="-9"
     inkscape:window-maximized="1"
     inkscape:current-layer="layer2" /><g
     inkscape:groupmode="layer"
     id="layer2"
     inkscape:label="Layer 2"><circle
       style="opacity:1;fill:#ffccaa;fill-opacity:0.51589245;fill-rule:nonzero;stroke:#ffffff;stroke-width:1.44625294;stroke-linecap:round;stroke-linejoin:round;stroke-miterlimit:4;stroke-dasharray:none;stroke-opacity:1"
       id="path8122"
       cx="303.4986"
       cy="303.21078"
       r="259.27689" /></g><g
     inkscape:groupmode="layer"
     id="layer1"
     inkscape:label="Layer 1"><g
       style=""
       id="g3"
       transform="translate(120.05678,95.602767)"><path
         d="m 179.779,111.836 c 0,-3.118 -2.551,-5.669 -5.67,-5.669 l -118.842,0 c -3.119,0 -5.67,2.551 -5.67,5.669 l 0,67.184 c 0,3.118 2.551,5.669 5.67,5.669 l 118.842,0 c 3.119,0 5.67,-2.551 5.67,-5.669 l 0,-67.184 0,0 z"
         id="path5"
         inkscape:connector-curvature="0"
         style="fill:#b40000;fill-opacity:1" /><path
         d="m 52.616,302.997 c 0,2.338 1.914,4.252 4.252,4.252 l 242.092,0 c 2.338,0 4.252,-1.914 4.252,-4.252 l 0,-8.739 c 0,-2.338 -1.914,-4.252 -4.252,-4.252 l -242.092,0 c -2.338,0 -4.252,1.914 -4.252,4.252 l 0,8.739 z"
         id="path7"
         inkscape:connector-curvature="0"
         style="fill:#155c20;fill-opacity:1" /><path
         d="m 52.616,241.717 c 0,2.339 1.913,4.252 4.252,4.252 l 242.092,0 c 2.339,0 4.252,-1.912 4.252,-4.252 l 0,-8.738 c 0,-2.34 -1.913,-4.252 -4.252,-4.252 l -242.092,0 c -2.339,0 -4.252,1.912 -4.252,4.252 l 0,8.738 z"
         id="path9"
         inkscape:connector-curvature="0"
         style="fill:#155c20;fill-opacity:1" /><path
         d="m 217.207,119.159 c 0,2.338 1.914,4.252 4.252,4.252 l 77.31,0 c 2.338,0 4.252,-1.914 4.252,-4.252 l 0,-8.739 c 0,-2.338 -1.914,-4.252 -4.252,-4.252 l -77.31,0 c -2.338,0 -4.252,1.914 -4.252,4.252 l 0,8.739 z"
         id="path11"
         inkscape:connector-curvature="0"
         style="fill:#15497a;fill-opacity:1" /><path
         d="m 217.207,180.438 c 0,2.338 1.913,4.252 4.252,4.252 l 77.31,0 c 2.339,0 4.252,-1.914 4.252,-4.252 l 0,-8.739 c 0,-2.338 -1.913,-4.252 -4.252,-4.252 l -77.31,0 c -2.339,0 -4.252,1.914 -4.252,4.252 l 0,8.739 z"
         id="path13"
         inkscape:connector-curvature="0"
         style="fill:#15497a;fill-opacity:1" /><path
         d="m 406.248,110.758 c -3.812,-4.709 -9.703,-7.409 -16.16,-7.409 l -13.419,0 c 0,0 -5.04,-0.107 -5.04,4.002 0,2.31 0,6.93 0,9.239 0,4.069 5.04,4.002 5.04,4.002 l 13.419,0 c 1.248,0 2.229,0.36 2.761,1.017 0.53,0.657 0.68,1.689 0.42,2.91 0,0 -28.771,109.211 -38.59,145.971 -0.117,0.435 -0.886,0.246 -0.886,-0.29 -0.033,-51.875 0,-205.755 0,-205.755 0,-12.839 -10.444,-23.285 -23.283,-23.285 l -307.225,0 C 10.445,41.161 0,51.606 0,64.445 l 0,281.739 c 0,12.838 10.445,23.284 23.285,23.284 l 307.225,0 c 7.748,0 14.619,-3.808 18.854,-9.646 2.73,-1.988 4.68,-5.638 5.811,-10.949 l 54.959,-220.768 c 1.343,-6.314 -0.073,-12.638 -3.886,-17.347 z m -69.697,235.426 c 0,3.332 -2.711,6.042 -6.041,6.042 l -307.225,0 c -3.332,0 -6.043,-2.71 -6.043,-6.042 l 0,-281.739 c 0,-3.275 2.768,-6.042 6.043,-6.042 l 307.225,0 c 3.275,0 6.041,2.767 6.041,6.042 l 0,281.739 z"
         id="path15"
         inkscape:connector-curvature="0" /></g></g><g
     id="g17"
     transform="translate(0,199.99997)" /><g
     id="g19"
     transform="translate(0,199.99997)" /><g
     id="g21"
     transform="translate(0,199.99997)" /><g
     id="g23"
     transform="translate(0,199.99997)" /><g
     id="g25"
     transform="translate(0,199.99997)" /><g
     id="g27"
     transform="translate(0,199.99997)" /><g
     id="g29"
     transform="translate(0,199.99997)" /><g
     id="g31"
     transform="translate(0,199.99997)" /><g
     id="g33"
     transform="translate(0,199.99997)" /><g
     id="g35"
     transform="translate(0,199.99997)" /><g
     id="g37"
     transform="translate(0,199.99997)" /><g
     id="g39"
     transform="translate(0,199.99997)" /><g
     id="g41"
     transform="translate(0,199.99997)" /><g
     id="g43"
     transform="translate(0,199.99997)" /><g
     id="g45"
     transform="translate(0,199.99997)" /></svg>