<?xml version="1.0" encoding="UTF-8" standalone="no"?>
<!-- Generator: Adobe Illustrator 19.0.0, SVG Export Plug-In . SVG Version: 6.00 Build 0)  -->

<svg
   xmlns:dc="http://purl.org/dc/elements/1.1/"
   xmlns:cc="http://creativecommons.org/ns#"
   xmlns:rdf="http://www.w3.org/1999/02/22-rdf-syntax-ns#"
   xmlns:svg="http://www.w3.org/2000/svg"
   xmlns="http://www.w3.org/2000/svg"
   xmlns:sodipodi="http://sodipodi.sourceforge.net/DTD/sodipodi-0.dtd"
   xmlns:inkscape="http://www.inkscape.org/namespaces/inkscape"
   version="1.1"
   id="Capa_1"
   x="0px"
   y="0px"
   viewBox="0 0 1000 1000"
   xml:space="preserve"
   inkscape:version="0.91 r13725"
   sodipodi:docname="register.svg"
   width="1000"
   height="1000"><metadata
     id="metadata77"><rdf:RDF><cc:Work
         rdf:about=""><dc:format>image/svg+xml</dc:format><dc:type
           rdf:resource="http://purl.org/dc/dcmitype/StillImage" /><dc:title></dc:title></cc:Work></rdf:RDF></metadata><defs
     id="defs75" /><sodipodi:namedview
     pagecolor="#ffffff"
     bordercolor="#666666"
     borderopacity="1"
     objecttolerance="10"
     gridtolerance="10"
     guidetolerance="10"
     inkscape:pageopacity="0"
     inkscape:pageshadow="2"
     inkscape:window-width="1920"
     inkscape:window-height="1051"
     id="namedview73"
     showgrid="false"
     inkscape:zoom="0.46919702"
     inkscape:cx="-8.5252034"
     inkscape:cy="251.4935"
     inkscape:window-x="-9"
     inkscape:window-y="-9"
     inkscape:window-maximized="1"
     inkscape:current-layer="g5" /><g
     inkscape:groupmode="layer"
     id="layer3"
     inkscape:label="Layer 2"><ellipse
       style="opacity:1;fill:#ff8080;fill-opacity:0.51589242;fill-rule:nonzero;stroke:#ffffff;stroke-width:1.20996916;stroke-linecap:round;stroke-linejoin:round;stroke-miterlimit:4;stroke-dasharray:none;stroke-opacity:1"
       id="path8164"
       cx="441.59103"
       cy="502.14551"
       rx="274.49503"
       ry="274.39499" /></g><g
     inkscape:groupmode="layer"
     id="layer2"
     inkscape:label="Layer 1"
     style="display:inline"><g
       id="g3"
       transform="translate(253.6248,264.70121)"
       style="display:inline"><g
         id="g13" /><g
         id="g15" /><g
         id="g17" /><g
         id="g19" /><g
         id="g21" /><g
         id="g23" /><g
         id="g25" /><g
         id="g27" /><g
         id="g29" /><g
         id="g31" /><g
         id="g33" /><g
         id="g35" /><g
         id="g37" /><g
         id="g39" /><g
         id="g41" /><g
         id="g5"><circle
           style="fill:#ff2a2a"
           cx="185.994"
           cy="102.008"
           r="102.008"
           id="circle7" /><path
           style="fill:#ff2a2a"
           d="m 334.444,261.459 c -13.244,0 -25.95,2.243 -37.9,6.191 -25.216,-32.335 -65.273,-53.323 -110.55,-53.323 -76.361,0.022 -138.226,59.471 -138.226,132.898 l 0,73.794 172.437,0 c 16.221,47.585 61.261,81.969 114.239,81.969 66.611,0 120.775,-54.186 120.775,-120.775 0,-66.589 -54.164,-120.754 -120.775,-120.754 z m -94.135,120.754 c 0,-51.899 42.236,-94.156 94.135,-94.156 51.942,0 94.178,42.257 94.178,94.156 0,51.921 -42.236,94.156 -94.178,94.156 -51.899,0 -94.135,-42.235 -94.135,-94.156 z"
           id="path9"
           inkscape:connector-curvature="0" /><path
           style="fill:#ff7f2a"
           d="m 351.269,312.97 -29.983,0 c -0.022,14.366 0,52.158 0,52.158 0,0 -32.529,0 -48.621,0.043 l 0,29.962 c 16.092,-0.022 48.621,-0.022 48.621,-0.022 0,0 0,37.749 -0.022,52.18 l 29.983,0 c 0.022,-14.431 0.022,-52.18 0.022,-52.18 0,0 32.507,0 48.599,0 l 0,-29.983 c -16.092,0 -48.599,0 -48.599,0 0,0 -0.043,-37.791 0,-52.158 z"
           id="path11"
           inkscape:connector-curvature="0" /></g></g></g><g
     id="g43"
     transform="translate(0,497.013)" /><g
     id="g45"
     transform="translate(0,497.013)" /><g
     id="g47"
     transform="translate(0,497.013)" /><g
     id="g49"
     transform="translate(0,497.013)" /><g
     id="g51"
     transform="translate(0,497.013)" /><g
     id="g53"
     transform="translate(0,497.013)" /><g
     id="g55"
     transform="translate(0,497.013)" /><g
     id="g57"
     transform="translate(0,497.013)" /><g
     id="g59"
     transform="translate(0,497.013)" /><g
     id="g61"
     transform="translate(0,497.013)" /><g
     id="g63"
     transform="translate(0,497.013)" /><g
     id="g65"
     transform="translate(0,497.013)" /><g
     id="g67"
     transform="translate(0,497.013)" /><g
     id="g69"
     transform="translate(0,497.013)" /><g
     id="g71"
     transform="translate(0,497.013)" /></svg>