<?xml version="1.0" encoding="UTF-8" standalone="no"?>
<!-- Created with Inkscape (http://www.inkscape.org/) -->

<svg
   xmlns:dc="http://purl.org/dc/elements/1.1/"
   xmlns:cc="http://creativecommons.org/ns#"
   xmlns:rdf="http://www.w3.org/1999/02/22-rdf-syntax-ns#"
   xmlns:svg="http://www.w3.org/2000/svg"
   xmlns="http://www.w3.org/2000/svg"
   xmlns:sodipodi="http://sodipodi.sourceforge.net/DTD/sodipodi-0.dtd"
   xmlns:inkscape="http://www.inkscape.org/namespaces/inkscape"
   id="svg2"
   version="1.1"
   inkscape:version="0.91 r13725"
   xml:space="preserve"
   width="1000"
   height="1000"
   viewBox="0 0 1000 1000"
   sodipodi:docname="voucher1.svg"
   inkscape:export-filename="C:\Users\Admin\Downloads\voucher1.png"
   inkscape:export-xdpi="20"
   inkscape:export-ydpi="20"><metadata
     id="metadata8"><rdf:RDF><cc:Work
         rdf:about=""><dc:format>image/svg+xml</dc:format><dc:type
           rdf:resource="http://purl.org/dc/dcmitype/StillImage" /><dc:title></dc:title></cc:Work></rdf:RDF></metadata><defs
     id="defs6"><clipPath
       clipPathUnits="userSpaceOnUse"
       id="clipPath18"><path
         d="M 0,800 800,800 800,0 0,0 0,800 Z"
         id="path20"
         inkscape:connector-curvature="0" /></clipPath><clipPath
       clipPathUnits="userSpaceOnUse"
       id="clipPath130"><path
         d="m 95.4229,232.9 609.1541,0 0,-44.406 -609.1541,0 0,44.406 z"
         id="path132"
         inkscape:connector-curvature="0" /></clipPath><clipPath
       clipPathUnits="userSpaceOnUse"
       id="clipPath134"><path
         d="m 95.4229,232.9 609.1541,0 0,-44.406 -609.1541,0 0,44.406 z"
         id="path136"
         inkscape:connector-curvature="0" /></clipPath><clipPath
       clipPathUnits="userSpaceOnUse"
       id="clipPath138"><path
         d="m 95.4229,232.9 609.1541,0 0,-44.406 -609.1541,0 0,44.406 z"
         id="path140"
         inkscape:connector-curvature="0" /></clipPath><clipPath
       clipPathUnits="userSpaceOnUse"
       id="clipPath142"><path
         d="m 99.2773,232.646 601.4967,0 0,-43.716 -601.4967,0 0,43.716 z"
         id="path144"
         inkscape:connector-curvature="0" /></clipPath><clipPath
       clipPathUnits="userSpaceOnUse"
       id="clipPath146"><path
         d="m 103.132,232.393 593.84,0 0,-43.028 -593.84,0 0,43.028 z"
         id="path148"
         inkscape:connector-curvature="0" /></clipPath><clipPath
       clipPathUnits="userSpaceOnUse"
       id="clipPath150"><path
         d="m 106.986,232.138 586.184,0 0,-42.338 -586.184,0 0,42.338 z"
         id="path152"
         inkscape:connector-curvature="0" /></clipPath><clipPath
       clipPathUnits="userSpaceOnUse"
       id="clipPath154"><path
         d="m 110.84,231.884 578.527,0 0,-41.649 -578.527,0 0,41.649 z"
         id="path156"
         inkscape:connector-curvature="0" /></clipPath><clipPath
       clipPathUnits="userSpaceOnUse"
       id="clipPath158"><path
         d="m 114.695,231.63 570.869,0 0,-40.959 -570.869,0 0,40.959 z"
         id="path160"
         inkscape:connector-curvature="0" /></clipPath><clipPath
       clipPathUnits="userSpaceOnUse"
       id="clipPath162"><path
         d="m 118.549,231.376 563.213,0 0,-40.27 -563.213,0 0,40.27 z"
         id="path164"
         inkscape:connector-curvature="0" /></clipPath><clipPath
       clipPathUnits="userSpaceOnUse"
       id="clipPath166"><path
         d="m 122.404,231.121 555.556,0 0,-39.58 -555.556,0 0,39.58 z"
         id="path168"
         inkscape:connector-curvature="0" /></clipPath><clipPath
       clipPathUnits="userSpaceOnUse"
       id="clipPath170"><path
         d="m 126.258,230.867 547.899,0 0,-38.89 -547.899,0 0,38.89 z"
         id="path172"
         inkscape:connector-curvature="0" /></clipPath><clipPath
       clipPathUnits="userSpaceOnUse"
       id="clipPath174"><path
         d="m 130.113,230.613 540.241,0 0,-38.201 -540.241,0 0,38.201 z"
         id="path176"
         inkscape:connector-curvature="0" /></clipPath><clipPath
       clipPathUnits="userSpaceOnUse"
       id="clipPath178"><path
         d="m 133.967,230.359 532.585,0 0,-37.511 -532.585,0 0,37.511 z"
         id="path180"
         inkscape:connector-curvature="0" /></clipPath><clipPath
       clipPathUnits="userSpaceOnUse"
       id="clipPath182"><path
         d="m 137.821,230.105 524.929,0 0,-36.823 -524.929,0 0,36.823 z"
         id="path184"
         inkscape:connector-curvature="0" /></clipPath><clipPath
       clipPathUnits="userSpaceOnUse"
       id="clipPath186"><path
         d="m 141.676,229.851 517.271,0 0,-36.133 -517.271,0 0,36.133 z"
         id="path188"
         inkscape:connector-curvature="0" /></clipPath><clipPath
       clipPathUnits="userSpaceOnUse"
       id="clipPath190"><path
         d="m 145.53,229.597 509.615,0 0,-35.444 -509.615,0 0,35.444 z"
         id="path192"
         inkscape:connector-curvature="0" /></clipPath><clipPath
       clipPathUnits="userSpaceOnUse"
       id="clipPath194"><path
         d="m 149.385,229.343 501.957,0 0,-34.754 -501.957,0 0,34.754 z"
         id="path196"
         inkscape:connector-curvature="0" /></clipPath><clipPath
       clipPathUnits="userSpaceOnUse"
       id="clipPath198"><path
         d="m 153.239,229.088 494.301,0 0,-34.065 -494.301,0 0,34.065 z"
         id="path200"
         inkscape:connector-curvature="0" /></clipPath><clipPath
       clipPathUnits="userSpaceOnUse"
       id="clipPath202"><path
         d="m 157.094,228.834 486.643,0 0,-33.374 -486.643,0 0,33.374 z"
         id="path204"
         inkscape:connector-curvature="0" /></clipPath><clipPath
       clipPathUnits="userSpaceOnUse"
       id="clipPath206"><path
         d="m 160.948,228.579 478.987,0 0,-32.683 -478.987,0 0,32.683 z"
         id="path208"
         inkscape:connector-curvature="0" /></clipPath><clipPath
       clipPathUnits="userSpaceOnUse"
       id="clipPath210"><path
         d="m 164.802,228.325 471.33,0 0,-31.994 -471.33,0 0,31.994 z"
         id="path212"
         inkscape:connector-curvature="0" /></clipPath><clipPath
       clipPathUnits="userSpaceOnUse"
       id="clipPath214"><path
         d="m 168.657,228.071 463.672,0 0,-31.304 -463.672,0 0,31.304 z"
         id="path216"
         inkscape:connector-curvature="0" /></clipPath><clipPath
       clipPathUnits="userSpaceOnUse"
       id="clipPath218"><path
         d="m 172.511,227.817 456.016,0 0,-30.616 -456.016,0 0,30.616 z"
         id="path220"
         inkscape:connector-curvature="0" /></clipPath><clipPath
       clipPathUnits="userSpaceOnUse"
       id="clipPath222"><path
         d="m 176.366,227.562 448.359,0 0,-29.925 -448.359,0 0,29.925 z"
         id="path224"
         inkscape:connector-curvature="0" /></clipPath><clipPath
       clipPathUnits="userSpaceOnUse"
       id="clipPath226"><path
         d="m 180.22,227.309 440.702,0 0,-29.237 -440.702,0 0,29.237 z"
         id="path228"
         inkscape:connector-curvature="0" /></clipPath><clipPath
       clipPathUnits="userSpaceOnUse"
       id="clipPath230"><path
         d="m 184.074,227.055 433.045,0 0,-28.547 -433.045,0 0,28.547 z"
         id="path232"
         inkscape:connector-curvature="0" /></clipPath><clipPath
       clipPathUnits="userSpaceOnUse"
       id="clipPath234"><path
         d="m 187.929,226.801 425.388,0 0,-27.859 -425.388,0 0,27.859 z"
         id="path236"
         inkscape:connector-curvature="0" /></clipPath><clipPath
       clipPathUnits="userSpaceOnUse"
       id="clipPath238"><path
         d="m 191.783,226.547 417.732,0 0,-27.169 -417.732,0 0,27.169 z"
         id="path240"
         inkscape:connector-curvature="0" /></clipPath><clipPath
       clipPathUnits="userSpaceOnUse"
       id="clipPath242"><path
         d="m 195.638,226.292 410.074,0 0,-26.479 -410.074,0 0,26.479 z"
         id="path244"
         inkscape:connector-curvature="0" /></clipPath><clipPath
       clipPathUnits="userSpaceOnUse"
       id="clipPath246"><path
         d="m 199.492,226.038 402.417,0 0,-25.789 -402.417,0 0,25.789 z"
         id="path248"
         inkscape:connector-curvature="0" /></clipPath><clipPath
       clipPathUnits="userSpaceOnUse"
       id="clipPath250"><path
         d="m 203.347,225.784 394.76,0 0,-25.1 -394.76,0 0,25.1 z"
         id="path252"
         inkscape:connector-curvature="0" /></clipPath><clipPath
       clipPathUnits="userSpaceOnUse"
       id="clipPath254"><path
         d="m 207.201,225.53 387.104,0 0,-24.411 -387.104,0 0,24.411 z"
         id="path256"
         inkscape:connector-curvature="0" /></clipPath><clipPath
       clipPathUnits="userSpaceOnUse"
       id="clipPath258"><path
         d="m 211.055,225.276 379.447,0 0,-23.721 -379.447,0 0,23.721 z"
         id="path260"
         inkscape:connector-curvature="0" /></clipPath><clipPath
       clipPathUnits="userSpaceOnUse"
       id="clipPath262"><path
         d="m 214.91,225.021 371.789,0 0,-23.031 -371.789,0 0,23.031 z"
         id="path264"
         inkscape:connector-curvature="0" /></clipPath><clipPath
       clipPathUnits="userSpaceOnUse"
       id="clipPath266"><path
         d="m 218.764,224.768 364.133,0 0,-22.343 -364.133,0 0,22.343 z"
         id="path268"
         inkscape:connector-curvature="0" /></clipPath><clipPath
       clipPathUnits="userSpaceOnUse"
       id="clipPath270"><path
         d="m 222.619,224.514 356.476,0 0,-21.654 -356.476,0 0,21.654 z"
         id="path272"
         inkscape:connector-curvature="0" /></clipPath><clipPath
       clipPathUnits="userSpaceOnUse"
       id="clipPath274"><path
         d="m 226.473,224.259 348.819,0 0,-20.963 -348.819,0 0,20.963 z"
         id="path276"
         inkscape:connector-curvature="0" /></clipPath><clipPath
       clipPathUnits="userSpaceOnUse"
       id="clipPath278"><path
         d="m 230.328,224.004 341.161,0 0,-20.272 -341.161,0 0,20.272 z"
         id="path280"
         inkscape:connector-curvature="0" /></clipPath><clipPath
       clipPathUnits="userSpaceOnUse"
       id="clipPath282"><path
         d="m 234.182,223.75 333.505,0 0,-19.582 -333.505,0 0,19.582 z"
         id="path284"
         inkscape:connector-curvature="0" /></clipPath><clipPath
       clipPathUnits="userSpaceOnUse"
       id="clipPath286"><path
         d="m 238.036,223.496 325.849,0 0,-18.893 -325.849,0 0,18.893 z"
         id="path288"
         inkscape:connector-curvature="0" /></clipPath><clipPath
       clipPathUnits="userSpaceOnUse"
       id="clipPath290"><path
         d="m 241.891,223.242 318.191,0 0,-18.204 -318.191,0 0,18.204 z"
         id="path292"
         inkscape:connector-curvature="0" /></clipPath><clipPath
       clipPathUnits="userSpaceOnUse"
       id="clipPath294"><path
         d="m 245.745,222.988 310.534,0 0,-17.514 -310.534,0 0,17.514 z"
         id="path296"
         inkscape:connector-curvature="0" /></clipPath><clipPath
       clipPathUnits="userSpaceOnUse"
       id="clipPath298"><path
         d="m 249.6,222.733 302.877,0 0,-16.824 -302.877,0 0,16.824 z"
         id="path300"
         inkscape:connector-curvature="0" /></clipPath><clipPath
       clipPathUnits="userSpaceOnUse"
       id="clipPath302"><path
         d="m 253.454,222.479 295.221,0 0,-16.135 -295.221,0 0,16.135 z"
         id="path304"
         inkscape:connector-curvature="0" /></clipPath><clipPath
       clipPathUnits="userSpaceOnUse"
       id="clipPath306"><path
         d="m 257.308,222.226 287.564,0 0,-15.447 -287.564,0 0,15.447 z"
         id="path308"
         inkscape:connector-curvature="0" /></clipPath><clipPath
       clipPathUnits="userSpaceOnUse"
       id="clipPath310"><path
         d="m 261.163,221.972 279.906,0 0,-14.757 -279.906,0 0,14.757 z"
         id="path312"
         inkscape:connector-curvature="0" /></clipPath><clipPath
       clipPathUnits="userSpaceOnUse"
       id="clipPath314"><path
         d="m 265.017,221.718 272.25,0 0,-14.068 -272.25,0 0,14.068 z"
         id="path316"
         inkscape:connector-curvature="0" /></clipPath><clipPath
       clipPathUnits="userSpaceOnUse"
       id="clipPath318"><path
         d="m 268.872,221.463 264.593,0 0,-13.378 -264.593,0 0,13.378 z"
         id="path320"
         inkscape:connector-curvature="0" /></clipPath><clipPath
       clipPathUnits="userSpaceOnUse"
       id="clipPath322"><path
         d="m 272.726,221.209 256.936,0 0,-12.688 -256.936,0 0,12.688 z"
         id="path324"
         inkscape:connector-curvature="0" /></clipPath><clipPath
       clipPathUnits="userSpaceOnUse"
       id="clipPath326"><path
         d="m 276.581,220.955 249.278,0 0,-11.999 -249.278,0 0,11.999 z"
         id="path328"
         inkscape:connector-curvature="0" /></clipPath><clipPath
       clipPathUnits="userSpaceOnUse"
       id="clipPath330"><path
         d="m 280.435,220.701 241.622,0 0,-11.309 -241.622,0 0,11.309 z"
         id="path332"
         inkscape:connector-curvature="0" /></clipPath><clipPath
       clipPathUnits="userSpaceOnUse"
       id="clipPath334"><path
         d="m 284.289,220.446 233.966,0 0,-10.62 -233.966,0 0,10.62 z"
         id="path336"
         inkscape:connector-curvature="0" /></clipPath><clipPath
       clipPathUnits="userSpaceOnUse"
       id="clipPath338"><path
         d="m 288.144,220.192 226.308,0 0,-9.93 -226.308,0 0,9.93 z"
         id="path340"
         inkscape:connector-curvature="0" /></clipPath><clipPath
       clipPathUnits="userSpaceOnUse"
       id="clipPath342"><path
         d="m 291.998,219.938 218.651,0 0,-9.241 -218.651,0 0,9.241 z"
         id="path344"
         inkscape:connector-curvature="0" /></clipPath><radialGradient
       fx="0"
       fy="0"
       cx="0"
       cy="0"
       r="1"
       gradientUnits="userSpaceOnUse"
       gradientTransform="matrix(322.11673,175.18204,175.18204,-322.11673,374.5376,252.76491)"
       spreadMethod="pad"
       id="radialGradient994"><stop
         style="stop-opacity:1;stop-color:#fcfcfc"
         offset="0"
         id="stop996" /><stop
         style="stop-opacity:1;stop-color:#f6f6f6"
         offset="0.515152"
         id="stop998" /><stop
         style="stop-opacity:1;stop-color:#e4e0dd"
         offset="1"
         id="stop1000" /></radialGradient><clipPath
       clipPathUnits="userSpaceOnUse"
       id="clipPath1012"><path
         d="M 0,800 800,800 800,0 0,0 0,800 Z"
         id="path1014"
         inkscape:connector-curvature="0" /></clipPath><clipPath
       clipPathUnits="userSpaceOnUse"
       id="clipPath1020"><path
         d="m 329.99,489.208 28.864,0 0,-28.864 -28.864,0 0,28.864 z"
         id="path1022"
         inkscape:connector-curvature="0" /></clipPath><clipPath
       clipPathUnits="userSpaceOnUse"
       id="clipPath1036"><path
         d="m 354.579,440.07 28.864,0 0,-28.864 -28.864,0 0,28.864 z"
         id="path1038"
         inkscape:connector-curvature="0" /></clipPath><clipPath
       clipPathUnits="userSpaceOnUse"
       id="clipPath1052"><path
         d="m 213.046,472.847 48.864,0 0,-48.864 -48.864,0 0,48.864 z"
         id="path1054"
         inkscape:connector-curvature="0" /></clipPath><clipPath
       clipPathUnits="userSpaceOnUse"
       id="clipPath1068"><path
         d="m 599.152,403.656 24.284,0 0,-24.285 -24.284,0 0,24.285 z"
         id="path1070"
         inkscape:connector-curvature="0" /></clipPath><clipPath
       clipPathUnits="userSpaceOnUse"
       id="clipPath1084"><path
         d="m 475.487,558.754 43.284,0 0,-43.285 -43.284,0 0,43.285 z"
         id="path1086"
         inkscape:connector-curvature="0" /></clipPath><clipPath
       clipPathUnits="userSpaceOnUse"
       id="clipPath1100"><path
         d="m 240.36,391.514 20.139,0 0,-20.139 -20.139,0 0,20.139 z"
         id="path1102"
         inkscape:connector-curvature="0" /></clipPath><clipPath
       clipPathUnits="userSpaceOnUse"
       id="clipPath1116"><path
         d="m 125.677,444.779 98.077,0 0,-112.672 -98.077,0 0,112.672 z"
         id="path1118"
         inkscape:connector-curvature="0" /></clipPath><clipPath
       clipPathUnits="userSpaceOnUse"
       id="clipPath1132"><path
         d="m 276.436,447.341 51.268,0 0,-58.898 -51.268,0 0,58.898 z"
         id="path1134"
         inkscape:connector-curvature="0" /></clipPath><clipPath
       clipPathUnits="userSpaceOnUse"
       id="clipPath1148"><path
         d="m 273.391,537.111 40.629,0 0,-46.674 -40.629,0 0,46.674 z"
         id="path1150"
         inkscape:connector-curvature="0" /></clipPath><clipPath
       clipPathUnits="userSpaceOnUse"
       id="clipPath1164"><path
         d="m 498.8,402.046 53.394,0 0,-61.342 -53.394,0 0,61.342 z"
         id="path1166"
         inkscape:connector-curvature="0" /></clipPath><clipPath
       clipPathUnits="userSpaceOnUse"
       id="clipPath1180"><path
         d="m 622.459,361.36 35.961,0 0,-41.312 -35.961,0 0,41.312 z"
         id="path1182"
         inkscape:connector-curvature="0" /></clipPath><clipPath
       clipPathUnits="userSpaceOnUse"
       id="clipPath1196"><path
         d="m 659.836,392.561 22.961,0 0,-26.378 -22.961,0 0,26.378 z"
         id="path1198"
         inkscape:connector-curvature="0" /></clipPath><clipPath
       clipPathUnits="userSpaceOnUse"
       id="clipPath1212"><path
         d="m 434.104,455.171 38.628,0 0,-44.378 -38.628,0 0,44.378 z"
         id="path1214"
         inkscape:connector-curvature="0" /></clipPath><clipPath
       clipPathUnits="userSpaceOnUse"
       id="clipPath1228"><path
         d="m 151.099,511.488 56.851,0 0,-49.138 -56.851,0 0,49.138 z"
         id="path1230"
         inkscape:connector-curvature="0" /></clipPath><clipPath
       clipPathUnits="userSpaceOnUse"
       id="clipPath1244"><path
         d="m 387.596,538.097 60.67,0 0,-68.942 -60.67,0 0,68.942 z"
         id="path1246"
         inkscape:connector-curvature="0" /></clipPath></defs><sodipodi:namedview
     pagecolor="#ffffff"
     bordercolor="#666666"
     borderopacity="1"
     objecttolerance="10"
     gridtolerance="10"
     guidetolerance="10"
     inkscape:pageopacity="0"
     inkscape:pageshadow="2"
     inkscape:window-width="1920"
     inkscape:window-height="1051"
     id="namedview4"
     showgrid="false"
     inkscape:zoom="0.6675088"
     inkscape:cx="240.05973"
     inkscape:cy="558.05383"
     inkscape:window-x="-9"
     inkscape:window-y="-9"
     inkscape:window-maximized="1"
     inkscape:current-layer="g1010" /><g
     id="g10"
     inkscape:groupmode="layer"
     inkscape:label="108"
     transform="matrix(1.25,0,0,-1.25,0,1000)"><g
       id="g14" /><g
       id="g1008"><g
         id="g1010"
         clip-path="url(#clipPath1012)"><g
           id="g1224"><g
             id="g1226" /><g
             id="g1232"><g
               clip-path="url(#clipPath1228)"
               id="g1234"
               style="opacity:0.80000299"><g
                 transform="translate(185.7778,479.4448)"
                 id="g1236" /></g></g></g><g
           id="g1258"
           transform="translate(421.94824,452.9251)"><path
             d="m 0,0 c 0,0 6.373,-2.323 15.195,-25.18 8.824,-22.857 40.193,-34.621 49.505,-36.091 4.903,7.352 11.276,13.724 13.725,17.646 2.45,3.921 8.332,17.155 5.391,28.919 C 57.839,0.488 0,0 0,0"
             style="fill:#027fa5;fill-opacity:1;fill-rule:nonzero;stroke:none"
             id="path1260"
             inkscape:connector-curvature="0" /></g><g
           id="g1262"
           transform="translate(414.15924,452.9251)"><path
             d="m 0,0 c 0,0 -6.371,-2.323 -15.194,-25.18 -8.823,-22.857 -40.192,-34.621 -49.505,-36.091 -4.902,7.352 -11.273,13.724 -13.724,17.646 -2.451,3.921 -8.334,17.155 -5.392,28.919 C -57.837,0.488 0,0 0,0"
             style="fill:#027fa5;fill-opacity:1;fill-rule:nonzero;stroke:none"
             id="path1264"
             inkscape:connector-curvature="0" /></g><path
           d="m 431.26184,452.9246 -23.037,0 0,22.546 23.037,0 0,-22.546 z"
           style="fill:#0d628f;fill-opacity:1;fill-rule:nonzero;stroke:none"
           id="path1266"
           inkscape:connector-curvature="0" /><g
           id="g1268"
           transform="translate(428.81054,475.4714)"><path
             d="M 0,0 C 0,0 5.884,35.29 33.331,54.405 51.956,39.701 61.76,33.82 69.111,21.076 49.995,9.802 3.922,0 3.922,0 L 0,0 Z"
             style="fill:#159cdc;fill-opacity:1;fill-rule:nonzero;stroke:none"
             id="path1270"
             inkscape:connector-curvature="0" /></g><g
           id="g1272"
           transform="translate(414.15924,475.4714)"><path
             d="M 0,0 C 0,0 -5.882,35.29 -33.329,54.405 -51.955,39.701 -61.759,33.82 -69.111,21.076 -49.995,9.802 -3.92,0 -3.92,0 L 0,0 Z"
             style="fill:#159cdc;fill-opacity:1;fill-rule:nonzero;stroke:none"
             id="path1274"
             inkscape:connector-curvature="0" /></g><g
           id="g1276"
           transform="translate(431.26174,475.4714)"><path
             d="m 0,0 c 0,0 46.563,29.409 75.483,24.998 3.922,-17.155 5.393,-45.093 6.371,-72.542 -16.174,0 -26.957,-1.469 -40.926,3.921 C 26.959,-38.232 9.314,-22.546 0,-22.546 L 0,0 Z"
             style="fill:#32b8e9;fill-opacity:1;fill-rule:nonzero;stroke:none"
             id="path1278"
             inkscape:connector-curvature="0" /></g><g
           id="g1280"
           transform="translate(408.22464,475.4714)"><path
             d="m 0,0 c 0,0 -46.563,29.409 -75.483,24.998 -3.921,-17.155 -5.392,-45.093 -6.372,-72.542 16.174,0 26.959,-1.469 40.928,3.921 13.969,5.391 31.614,21.077 40.927,21.077 L 0,0 Z"
             style="fill:#32b8e9;fill-opacity:1;fill-rule:nonzero;stroke:none"
             id="path1282"
             inkscape:connector-curvature="0" /></g></g></g></g></svg>