<?xml version="1.0" encoding="UTF-8" standalone="no"?>
<!-- Created with Inkscape (http://www.inkscape.org/) -->

<svg
   xmlns:dc="http://purl.org/dc/elements/1.1/"
   xmlns:cc="http://creativecommons.org/ns#"
   xmlns:rdf="http://www.w3.org/1999/02/22-rdf-syntax-ns#"
   xmlns:svg="http://www.w3.org/2000/svg"
   xmlns="http://www.w3.org/2000/svg"
   xmlns:sodipodi="http://sodipodi.sourceforge.net/DTD/sodipodi-0.dtd"
   xmlns:inkscape="http://www.inkscape.org/namespaces/inkscape"
   id="svg2"
   version="1.1"
   inkscape:version="0.91 r13725"
   xml:space="preserve"
   width="1000"
   height="1000"
   viewBox="0 0 1000 1000"
   sodipodi:docname="voucher2.svg"><metadata
     id="metadata8"><rdf:RDF><cc:Work
         rdf:about=""><dc:format>image/svg+xml</dc:format><dc:type
           rdf:resource="http://purl.org/dc/dcmitype/StillImage" /><dc:title></dc:title></cc:Work></rdf:RDF></metadata><defs
     id="defs6"><clipPath
       clipPathUnits="userSpaceOnUse"
       id="clipPath18"><path
         d="M 0,800 800,800 800,0 0,0 0,800 Z"
         id="path20"
         inkscape:connector-curvature="0" /></clipPath></defs><sodipodi:namedview
     pagecolor="#ffffff"
     bordercolor="#666666"
     borderopacity="1"
     objecttolerance="10"
     gridtolerance="10"
     guidetolerance="10"
     inkscape:pageopacity="0"
     inkscape:pageshadow="2"
     inkscape:window-width="1920"
     inkscape:window-height="1051"
     id="namedview4"
     showgrid="false"
     inkscape:zoom="0.236"
     inkscape:cx="-16.949153"
     inkscape:cy="161.01695"
     inkscape:window-x="-9"
     inkscape:window-y="-9"
     inkscape:window-maximized="1"
     inkscape:current-layer="g10" /><g
     id="g10"
     inkscape:groupmode="layer"
     inkscape:label="11870-NNYWMV"
     transform="matrix(1.25,0,0,-1.25,0,1000)"><path
       d="M 0,0 800,0 800,800 0,800 0,0 Z"
       style="fill:#f8feff;fill-opacity:1;fill-rule:nonzero;stroke:none"
       id="path12"
       inkscape:connector-curvature="0" /><g
       id="g14"><g
         id="g16"
         clip-path="url(#clipPath18)"><g
           id="g22"
           transform="translate(215.3115,398.457)"><path
             d="m 0,0 c -9.47,0 -17.146,-7.677 -17.146,-17.144 0,-2.638 0.597,-5.133 1.66,-7.367 0.073,4.746 3.937,8.57 8.698,8.57 4.809,0 8.708,-3.898 8.708,-8.707 0,-4.466 -3.365,-8.141 -7.699,-8.643 1.806,-0.647 3.752,-1.001 5.779,-1.001 9.47,0 17.146,7.678 17.146,17.148 C 17.146,-7.677 9.47,0 0,0"
             style="fill:#aa71cc;fill-opacity:1;fill-rule:nonzero;stroke:none"
             id="path24"
             inkscape:connector-curvature="0" /></g><g
           id="g26"
           transform="translate(181.4238,368.6064)"><path
             d="m 0,0 c 0,2.928 2.373,5.301 5.3,5.301 2.891,0 5.238,-2.316 5.295,-5.195 0.642,1.354 1.011,2.866 1.011,4.46 0,5.765 -4.673,10.439 -10.436,10.439 -5.765,0 -10.438,-4.674 -10.438,-10.439 0,-5.76 4.673,-10.437 10.438,-10.437 1.227,0 2.4,0.223 3.494,0.613 C 2.039,-4.94 0,-2.71 0,0"
             style="fill:#aa71cc;fill-opacity:1;fill-rule:nonzero;stroke:none"
             id="path28"
             inkscape:connector-curvature="0" /></g><g
           id="g30"
           transform="translate(232.5898,330.2383)"><path
             d="M 0,0 -1.88,-6.824 -22.89,25.304 -10.365,25.171 6.96,-1.274 0,0 Z m -27.233,10.095 -10.097,0 0,15.209 10.097,0 0,-15.209 z m 0,-68.991 -10.097,0 0,66.707 10.097,0 0,-66.707 z m 41.66,87.771 -1.177,0 -91.062,0 -1.175,0 c -1.816,0 -3.287,-1.473 -3.287,-3.286 l 0,-15.494 4.462,0 0,-71.132 91.062,0 0,71.132 4.462,0 0,15.494 c 0,1.813 -1.472,3.286 -3.285,3.286"
             style="fill:#aa71cc;fill-opacity:1;fill-rule:nonzero;stroke:none"
             id="path32"
             inkscape:connector-curvature="0" /></g><g
           id="g34"
           transform="translate(655.8369,344.2979)"><path
             d="m 0,0 c 0,-2.09 -1.695,-3.79 -3.788,-3.79 l -104.97,0 c -2.095,0 -3.788,1.7 -3.788,3.79 l 0,22.733 c 0,2.092 1.693,3.788 3.788,3.788 l 104.97,0 C -1.695,26.521 0,24.825 0,22.733 L 0,0 Z"
             style="fill:#82ad2f;fill-opacity:1;fill-rule:nonzero;stroke:none"
             id="path36"
             inkscape:connector-curvature="0" /></g><g
           id="g38"
           transform="translate(603.4941,374.7061)"><path
             d="m 0,0 c 0.4,0.678 0.633,1.466 0.633,2.306 0,2.522 -2.043,4.565 -4.563,4.565 -2.521,0 -4.563,-2.043 -4.563,-4.565 0,-0.84 0.232,-1.628 0.631,-2.306 L 0,0 Z"
             style="fill:#82ad2f;fill-opacity:1;fill-rule:nonzero;stroke:none"
             id="path40"
             inkscape:connector-curvature="0" /></g><g
           id="g42"
           transform="translate(596.1719,374.7061)"><path
             d="M 0,0 C 0.02,0.057 0.046,0.107 0.066,0.161 0.388,1.049 0.611,1.944 0.76,2.846 -3.285,3.731 -7.535,5.8 -11.352,8.992 c -3.587,2.997 -6.259,6.544 -7.89,10.128 -3.906,-1.492 -7.165,-4.608 -8.698,-8.846 C -29.187,6.812 -29.073,3.194 -27.874,0 L 0,0 Z"
             style="fill:#82ad2f;fill-opacity:1;fill-rule:nonzero;stroke:none"
             id="path44"
             inkscape:connector-curvature="0" /></g><g
           id="g46"
           transform="translate(574.4814,374.7061)"><path
             d="m 0,0 c 0.009,0.021 0.018,0.037 0.025,0.059 0.254,0.703 0.433,1.412 0.549,2.123 -3.2,0.699 -6.559,2.337 -9.58,4.861 -2.836,2.367 -4.95,5.175 -6.24,8.008 -3.088,-1.178 -5.666,-3.641 -6.877,-6.992 C -23.101,5.341 -23.005,2.51 -22.084,0 L 0,0 Z"
             style="fill:#82ad2f;fill-opacity:1;fill-rule:nonzero;stroke:none"
             id="path48"
             inkscape:connector-curvature="0" /></g><g
           id="g50"
           transform="translate(602.9561,374.7061)"><path
             d="m 0,0 27.876,0 c 1.195,3.194 1.312,6.812 0.061,10.274 -1.532,4.238 -4.789,7.354 -8.694,8.846 C 17.611,15.536 14.939,11.989 11.352,8.992 7.535,5.8 3.286,3.731 -0.759,2.846 -0.613,1.944 -0.386,1.049 -0.066,0.161 -0.049,0.107 -0.019,0.057 0,0"
             style="fill:#82ad2f;fill-opacity:1;fill-rule:nonzero;stroke:none"
             id="path52"
             inkscape:connector-curvature="0" /></g><g
           id="g54"
           transform="translate(624.6445,374.7061)"><path
             d="m 0,0 22.083,0 c 0.927,2.51 1.022,5.341 0.042,8.059 -1.21,3.351 -3.79,5.814 -6.879,6.992 C 13.957,12.218 11.842,9.41 9.008,7.043 5.986,4.519 2.626,2.881 -0.571,2.182 -0.455,1.471 -0.278,0.762 -0.022,0.059 -0.015,0.037 -0.006,0.021 0,0"
             style="fill:#82ad2f;fill-opacity:1;fill-rule:nonzero;stroke:none"
             id="path56"
             inkscape:connector-curvature="0" /></g><g
           id="g58"
           transform="translate(551.2715,336.5703)"><path
             d="m 0,0 0,-57.91 c 0,-2.667 2.162,-4.828 4.83,-4.828 l 86.925,0 c 2.667,0 4.828,2.161 4.828,4.828 L 96.583,0 0,0 Z"
             style="fill:#82ad2f;fill-opacity:1;fill-rule:nonzero;stroke:none"
             id="path60"
             inkscape:connector-curvature="0" /></g><g
           id="g62"
           transform="translate(551.3359,180.998)"><path
             d="m 0,0 0,-79.886 c 0,-2.092 1.692,-3.784 3.783,-3.784 l 88.893,0 c 2.087,0 3.781,1.692 3.781,3.784 L 96.457,0 0,0 Z"
             style="fill:#cea6dd;fill-opacity:1;fill-rule:nonzero;stroke:none"
             id="path64"
             inkscape:connector-curvature="0" /></g><g
           id="g66"
           transform="translate(657.8848,189.2451)"><path
             d="m 0,0 c 0,-2.091 -1.694,-3.782 -3.784,-3.782 l -109.073,0 c -2.09,0 -3.784,1.691 -3.784,3.782 0,2.091 1.694,3.786 3.784,3.786 l 109.073,0 C -1.694,3.786 0,2.091 0,0"
             style="fill:#cea6dd;fill-opacity:1;fill-rule:nonzero;stroke:none"
             id="path68"
             inkscape:connector-curvature="0" /></g><g
           id="g70"
           transform="translate(643.3828,228.9268)"><path
             d="m 0,0 c 0,0 -0.637,-12.04 -10.896,-24.039 -6.214,-7.267 -13.521,-9.435 -19.724,-3.51 -6.121,5.84 -3.613,12.767 2.082,18.676 C -18.268,1.779 0,0 0,0"
             style="fill:#cea6dd;fill-opacity:1;fill-rule:nonzero;stroke:none"
             id="path72"
             inkscape:connector-curvature="0" /></g><g
           id="g74"
           transform="translate(557.0723,218.2031)"><path
             d="m 0,0 c 0,0 18.16,2.057 25.444,-1.589 7.033,-3.514 9.093,-10.059 4.898,-15.734 C 26.206,-22.918 20.295,-21.59 14.888,-17.55 5.134,-10.263 0,0 0,0"
             style="fill:#cea6dd;fill-opacity:1;fill-rule:nonzero;stroke:none"
             id="path76"
             inkscape:connector-curvature="0" /></g><g
           id="g78"
           transform="translate(599.5645,207.9629)"><path
             d="m 0,0 c -3.735,0 -6.766,-3.028 -6.766,-6.764 0,-2.416 1.268,-4.526 3.166,-5.722 -0.523,0.725 -0.834,1.618 -0.834,2.583 0,2.447 1.985,4.431 4.434,4.431 2.448,0 4.434,-1.984 4.434,-4.431 0,-0.965 -0.313,-1.858 -0.836,-2.583 1.9,1.196 3.167,3.306 3.167,5.722 C 6.765,-3.028 3.735,0 0,0"
             style="fill:#cea6dd;fill-opacity:1;fill-rule:nonzero;stroke:none"
             id="path80"
             inkscape:connector-curvature="0" /></g><g
           id="g82"
           transform="translate(445.2129,229.9736)"><path
             d="m 0,0 0,-33.249 -38.6,0 L 0,0 Z"
             style="fill:#ffb031;fill-opacity:1;fill-rule:nonzero;stroke:none"
             id="path84"
             inkscape:connector-curvature="0" /></g><g
           id="g86"
           transform="translate(363.7466,221.7529)"><path
             d="m 0,0 0,-26.338 26.709,1.31 L 0,0 Z"
             style="fill:#ffb031;fill-opacity:1;fill-rule:nonzero;stroke:none"
             id="path88"
             inkscape:connector-curvature="0" /></g><g
           id="g90"
           transform="translate(398.6221,196.418)"><path
             d="m 0,0 c 1.732,0 3.443,-0.01 5.128,-0.029 0.073,0.346 0.113,0.708 0.113,1.076 0,2.894 -2.345,5.238 -5.241,5.238 -2.894,0 -5.238,-2.344 -5.238,-5.238 0,-0.368 0.038,-0.73 0.11,-1.076 C -3.442,-0.01 -1.731,0 0,0"
             style="fill:#ffb031;fill-opacity:1;fill-rule:nonzero;stroke:none"
             id="path92"
             inkscape:connector-curvature="0" /></g><path
           d="m 402.753,98.896 -8.262,0 0,60.125 8.262,0 0,-60.125 z m -51.501,-2.503 94.494,0 0,65.129 -94.494,0 0,-65.129 z"
           style="fill:#ffb031;fill-opacity:1;fill-rule:nonzero;stroke:none"
           id="path94"
           inkscape:connector-curvature="0" /><path
           d="m 402.753,168.687 -8.262,0 0,20.613 8.262,0 0,-20.613 z m -35.677,-0.172 0.975,7.055 -7.044,-0.986 14.475,14.473 12.381,0.243 -20.787,-20.785 z m 81.113,21.123 c -4.355,1.275 -24.801,3.284 -49.689,3.284 -24.889,0 -45.336,-2.009 -49.692,-3.284 -1.734,-0.508 -3.164,-1.788 -3.164,-3.65 l 0,-17.075 c 0,-2.048 1.659,-3.706 3.708,-3.706 l 98.295,0 c 2.049,0 3.707,1.658 3.707,3.706 l 0,17.075 c 0,1.862 -1.429,3.142 -3.165,3.65"
           style="fill:#ffb031;fill-opacity:1;fill-rule:nonzero;stroke:none"
           id="path96"
           inkscape:connector-curvature="0" /><g
           id="g98"
           transform="translate(253.9419,155.4443)"><path
             d="m 0,0 c 0,-2.118 -1.715,-3.83 -3.832,-3.83 l -99.6,0 c -2.118,0 -3.833,1.712 -3.833,3.83 l 0,32.19 c 0,2.117 1.715,3.831 3.833,3.831 l 99.6,0 C -1.715,36.021 0,34.307 0,32.19 L 0,0 Z"
             style="fill:#5ea4dd;fill-opacity:1;fill-rule:nonzero;stroke:none"
             id="path100"
             inkscape:connector-curvature="0" /></g><path
           d="m 152.373,95.595 95.873,0 0,51.001 -95.873,0 0,-51.001 z"
           style="fill:#5ea4dd;fill-opacity:1;fill-rule:nonzero;stroke:none"
           id="path102"
           inkscape:connector-curvature="0" /><g
           id="g104"
           transform="translate(224.894,207.9404)"><path
             d="m 0,0 c 0,-7.224 -5.857,-13.081 -13.08,-13.081 -7.224,0 -13.081,5.857 -13.081,13.081 0,7.223 5.857,13.08 13.081,13.08 C -5.857,13.08 0,7.223 0,0"
             style="fill:#5ea4dd;fill-opacity:1;fill-rule:nonzero;stroke:none"
             id="path106"
             inkscape:connector-curvature="0" /></g><g
           id="g108"
           transform="translate(194.2524,204.9727)"><path
             d="m 0,0 c 0,-4.69 -3.805,-8.495 -8.498,-8.495 -4.692,0 -8.496,3.805 -8.496,8.495 0,4.694 3.804,8.5 8.496,8.5 C -3.805,8.5 0,4.694 0,0"
             style="fill:#5ea4dd;fill-opacity:1;fill-rule:nonzero;stroke:none"
             id="path110"
             inkscape:connector-curvature="0" /></g><g
           id="g112"
           transform="translate(198.6069,222.8301)"><path
             d="m 0,0 c 0,-3.551 -2.878,-6.426 -6.427,-6.426 -3.549,0 -6.426,2.875 -6.426,6.426 0,3.546 2.877,6.426 6.426,6.426 C -2.878,6.426 0,3.546 0,0"
             style="fill:#5ea4dd;fill-opacity:1;fill-rule:nonzero;stroke:none"
             id="path114"
             inkscape:connector-curvature="0" /></g><g
           id="g116"
           transform="translate(208.9536,227.3145)"><path
             d="m 0,0 c 0,-1.907 -1.546,-3.454 -3.456,-3.454 -1.908,0 -3.457,1.547 -3.457,3.454 0,1.91 1.549,3.459 3.457,3.459 C -1.546,3.459 0,1.91 0,0"
             style="fill:#5ea4dd;fill-opacity:1;fill-rule:nonzero;stroke:none"
             id="path118"
             inkscape:connector-curvature="0" /></g><path
           d="m 448.386,342.852 -99.773,0 0,21.354 99.773,0 0,-21.354 z"
           style="fill:#3060a5;fill-opacity:1;fill-rule:nonzero;stroke:none"
           id="path120"
           inkscape:connector-curvature="0" /><g
           id="g122"
           transform="translate(351.8545,339.1523)"><path
             d="m 0,0 0,-60.913 c 0,-4.043 3.276,-7.319 7.319,-7.319 l 78.652,0 c 4.039,0 7.318,3.276 7.318,7.319 L 93.289,0 0,0 Z"
             style="fill:#3060a5;fill-opacity:1;fill-rule:nonzero;stroke:none"
             id="path124"
             inkscape:connector-curvature="0" /></g><g
           id="g126"
           transform="translate(400.5107,368.8652)"><path
             d="m 0,0 19.199,13.224 c -1.079,1.47 -2.318,2.835 -3.682,4.054 L -0.342,0.391 C -0.215,0.273 -0.1,0.143 0,0"
             style="fill:#3060a5;fill-opacity:1;fill-rule:nonzero;stroke:none"
             id="path128"
             inkscape:connector-curvature="0" /></g><g
           id="g130"
           transform="translate(401.4609,367.5869)"><path
             d="m 0,0 28.698,5.167 c -0.477,2.214 -1.192,4.384 -2.119,6.445 L -0.172,0.61 C -0.094,0.416 -0.039,0.214 0,0"
             style="fill:#3060a5;fill-opacity:1;fill-rule:nonzero;stroke:none"
             id="path132"
             inkscape:connector-curvature="0" /></g><g
           id="g134"
           transform="translate(400.0503,369.6221)"><path
             d="m 0,0 14.571,24.372 c -1.964,1.127 -4.052,2.051 -6.203,2.743 L -0.589,0.267 C -0.383,0.198 -0.186,0.109 0,0"
             style="fill:#3060a5;fill-opacity:1;fill-rule:nonzero;stroke:none"
             id="path136"
             inkscape:connector-curvature="0" /></g><g
           id="g138"
           transform="translate(396.833,369.2471)"><path
             d="m 0,0 -15.961,16.792 c -1.355,-1.226 -2.585,-2.595 -3.658,-4.076 L -0.34,-0.393 C -0.242,-0.247 -0.125,-0.117 0,0"
             style="fill:#3060a5;fill-opacity:1;fill-rule:nonzero;stroke:none"
             id="path140"
             inkscape:connector-curvature="0" /></g><g
           id="g142"
           transform="translate(395.7407,368.1797)"><path
             d="M 0,0 -26.822,10.839 C -27.738,8.768 -28.44,6.595 -28.905,4.379 L -0.171,-0.61 C -0.134,-0.397 -0.079,-0.196 0,0"
             style="fill:#3060a5;fill-opacity:1;fill-rule:nonzero;stroke:none"
             id="path144"
             inkscape:connector-curvature="0" /></g><g
           id="g146"
           transform="translate(398.5073,369.9209)"><path
             d="m 0,0 c 0.086,0 0.167,-0.017 0.251,-0.025 l 2.394,22.81 c -0.879,0.088 -1.772,0.124 -2.651,0.132 -0.934,0 -1.88,-0.052 -2.806,-0.151 L -0.269,-0.03 C -0.179,-0.017 -0.093,0 0,0"
             style="fill:#3060a5;fill-opacity:1;fill-rule:nonzero;stroke:none"
             id="path148"
             inkscape:connector-curvature="0" /></g><g
           id="g150"
           transform="translate(397.5547,369.8809)"><path
             d="m 0,0 -9.124,26.794 c -2.147,-0.705 -4.228,-1.64 -6.183,-2.779 L -0.588,-0.267 C -0.403,-0.155 -0.208,-0.067 0,0"
             style="fill:#3060a5;fill-opacity:1;fill-rule:nonzero;stroke:none"
             id="path152"
             inkscape:connector-curvature="0" /></g><g
           id="g154"
           transform="translate(405.2852,368.2656)"><path
             d="m 0,0 c -0.041,3.825 -3.036,6.856 -6.869,6.856 -3.834,0 -6.783,-3.031 -6.825,-6.856 L -6.869,-1.19 0,0 Z"
             style="fill:#3060a5;fill-opacity:1;fill-rule:nonzero;stroke:none"
             id="path156"
             inkscape:connector-curvature="0" /></g><g
           id="g158"
           transform="translate(363.2178,677.3633)"><path
             d="M 0,0 C 0.879,6.872 0.287,14.042 -2.04,21.059 -6.816,35.456 -18.129,46.14 -31.344,50.979 -39.26,33.229 -63.074,11.932 -84.141,4.947 -86.55,4.143 -88.955,3.455 -91.349,2.865 -91.321,1.913 -91.252,0.957 -91.152,0 L 0,0 Z"
             style="fill:#e0384c;fill-opacity:1;fill-rule:nonzero;stroke:none"
             id="path160"
             inkscape:connector-curvature="0" /></g><g
           id="g162"
           transform="translate(332.6226,727.1855)"><path
             d="M 0,0 C -9.992,5.014 -62.496,-33.812 -59.983,-48.193"
             style="fill:none;stroke:#e0384c;stroke-width:1.76300001;stroke-linecap:round;stroke-linejoin:round;stroke-miterlimit:10;stroke-dasharray:none;stroke-opacity:1"
             id="path164"
             inkscape:connector-curvature="0" /></g><g
           id="g166"
           transform="translate(244.5996,677.3633)"><path
             d="M 0,0 C 0.04,0.501 0.081,1.004 0.097,1.505 -1.784,1.968 -3.674,2.512 -5.566,3.141 -22.123,8.629 -40.834,25.366 -47.052,39.314 -57.437,35.511 -66.329,27.116 -70.079,15.801 -71.825,10.541 -72.325,5.172 -71.768,0 L 0,0 Z"
             style="fill:#e0384c;fill-opacity:1;fill-rule:nonzero;stroke:none"
             id="path168"
             inkscape:connector-curvature="0" /></g><g
           id="g170"
           transform="translate(196.9561,715.7686)"><path
             d="M 0,0 C 7.854,3.94 49.112,-26.569 47.136,-37.873"
             style="fill:none;stroke:#e0384c;stroke-width:1.38600004;stroke-linecap:round;stroke-linejoin:round;stroke-miterlimit:10;stroke-dasharray:none;stroke-opacity:1"
             id="path172"
             inkscape:connector-curvature="0" /></g><g
           id="g174"
           transform="translate(277.2588,677.3633)"><path
             d="m 0,0 c 0.049,0.538 0.083,1.078 0.083,1.629 0,10.061 -8.16,18.218 -18.222,18.218 -10.062,0 -18.221,-8.157 -18.221,-18.218 0,-0.551 0.035,-1.091 0.086,-1.629 L 0,0 Z"
             style="fill:#e0384c;fill-opacity:1;fill-rule:nonzero;stroke:none"
             id="path176"
             inkscape:connector-curvature="0" /></g><path
           d="m 270.002,630.334 -21.765,0 0,31.05 21.765,0 0,-31.05 z m 98.731,37.244 -209.866,0 c -9.523,0 -17.246,-7.721 -17.246,-17.246 l 0,-8.945 c 0,-9.526 7.723,-17.246 17.246,-17.246 l 209.866,0 c 9.527,0 17.25,7.72 17.25,17.246 l 0,8.945 c 0,9.525 -7.723,17.246 -17.25,17.246"
           style="fill:#e0384c;fill-opacity:1;fill-rule:nonzero;stroke:none"
           id="path178"
           inkscape:connector-curvature="0" /><path
           d="m 269.704,461.646 -21.167,0 0,145.936 21.167,0 0,-145.936 z m -113.781,-8.098 215.756,0 0,161.265 -215.756,0 0,-161.265 z"
           style="fill:#e0384c;fill-opacity:1;fill-rule:nonzero;stroke:none"
           id="path180"
           inkscape:connector-curvature="0" /><g
           id="g182"
           transform="translate(283.3916,29.5215)"><path
             d="M 0,0 C 0,-0.703 0.109,-1.301 0.328,-1.795 0.547,-2.289 0.846,-2.66 1.226,-2.91 1.605,-3.16 2.021,-3.287 2.47,-3.287 c 0.456,0 0.872,0.119 1.249,0.357 0.377,0.237 0.677,0.602 0.902,1.092 0.225,0.49 0.337,1.106 0.337,1.838 0,0.691 -0.112,1.285 -0.337,1.783 C 4.396,2.279 4.093,2.658 3.709,2.922 3.326,3.184 2.906,3.314 2.451,3.314 1.977,3.314 1.552,3.18 1.178,2.912 0.805,2.643 0.515,2.258 0.31,1.754 0.103,1.25 0,0.666 0,0 m 5.101,-3.809 0,0.258 C 4.752,-3.949 4.409,-4.275 4.07,-4.523 3.731,-4.775 3.364,-4.965 2.968,-5.094 2.572,-5.227 2.141,-5.289 1.672,-5.289 c -0.621,0 -1.195,0.131 -1.725,0.393 -0.528,0.263 -0.985,0.638 -1.371,1.126 -0.388,0.487 -0.68,1.059 -0.879,1.719 -0.199,0.658 -0.3,1.371 -0.3,2.137 0,1.621 0.397,2.885 1.188,3.791 C -0.623,4.781 0.418,5.234 1.71,5.234 2.457,5.234 3.087,5.105 3.6,4.85 4.113,4.594 4.613,4.197 5.101,3.668 l 0,3.826 c 0,0.533 0.105,0.934 0.318,1.207 0.212,0.272 0.514,0.408 0.907,0.408 0.393,0 0.695,-0.125 0.906,-0.375 C 7.445,8.482 7.551,8.115 7.551,7.627 l 0,-11.436 c 0,-0.494 -0.114,-0.863 -0.342,-1.111 -0.228,-0.246 -0.522,-0.369 -0.883,-0.369 -0.354,0 -0.647,0.127 -0.879,0.383 -0.231,0.258 -0.346,0.623 -0.346,1.097"
             style="fill:#5ea4dd;fill-opacity:1;fill-rule:nonzero;stroke:none"
             id="path184"
             inkscape:connector-curvature="0" /></g><g
           id="g186"
           transform="translate(294.8545,30.3379)"><path
             d="M 0,0 4.702,0 C 4.64,0.887 4.398,1.551 3.984,1.99 3.569,2.432 3.024,2.65 2.347,2.65 1.7,2.65 1.17,2.428 0.756,1.982 0.341,1.535 0.09,0.875 0,0 m 5.071,-1.473 -5.071,0 c 0.007,-0.588 0.125,-1.107 0.356,-1.556 0.231,-0.45 0.539,-0.789 0.921,-1.016 0.384,-0.228 0.807,-0.342 1.269,-0.342 0.309,0 0.593,0.035 0.85,0.108 0.256,0.074 0.504,0.187 0.746,0.343 0.241,0.155 0.462,0.321 0.665,0.498 0.202,0.178 0.464,0.42 0.788,0.723 0.133,0.113 0.323,0.172 0.57,0.172 0.266,0 0.481,-0.074 0.645,-0.221 0.165,-0.146 0.248,-0.349 0.248,-0.617 0,-0.234 -0.093,-0.506 -0.276,-0.82 C 6.598,-4.516 6.32,-4.816 5.951,-5.104 5.579,-5.393 5.115,-5.631 4.554,-5.82 3.994,-6.012 3.35,-6.105 2.621,-6.105 c -1.664,0 -2.96,0.474 -3.884,1.423 -0.925,0.95 -1.386,2.239 -1.386,3.866 0,0.767 0.113,1.478 0.341,2.132 0.229,0.657 0.561,1.217 0.997,1.686 0.437,0.469 0.975,0.828 1.616,1.078 0.638,0.25 1.348,0.375 2.127,0.375 1.012,0 1.881,-0.213 2.606,-0.641 0.726,-0.427 1.27,-0.98 1.63,-1.656 0.359,-0.678 0.541,-1.369 0.541,-2.07 0,-0.654 -0.187,-1.076 -0.56,-1.27 C 6.276,-1.375 5.75,-1.473 5.071,-1.473"
             style="fill:#5ea4dd;fill-opacity:1;fill-rule:nonzero;stroke:none"
             id="path188"
             inkscape:connector-curvature="0" /></g><g
           id="g190"
           transform="translate(311.7412,27.623)"><path
             d="m 0,0 c 0,-0.715 -0.174,-1.328 -0.522,-1.838 -0.348,-0.51 -0.863,-0.896 -1.544,-1.16 -0.68,-0.262 -1.508,-0.393 -2.484,-0.393 -0.93,0 -1.728,0.143 -2.393,0.428 -0.664,0.283 -1.156,0.641 -1.472,1.067 -0.316,0.429 -0.475,0.857 -0.475,1.289 0,0.285 0.101,0.527 0.304,0.73 0.202,0.201 0.459,0.303 0.77,0.303 0.271,0 0.48,-0.067 0.626,-0.199 0.146,-0.133 0.286,-0.321 0.418,-0.559 0.265,-0.465 0.585,-0.807 0.955,-1.037 0.37,-0.227 0.875,-0.342 1.515,-0.342 0.519,0 0.945,0.117 1.278,0.348 0.332,0.232 0.498,0.496 0.498,0.793 0,0.457 -0.172,0.787 -0.518,0.996 -0.346,0.209 -0.914,0.41 -1.705,0.599 -0.893,0.221 -1.619,0.455 -2.18,0.7 -0.56,0.242 -1.008,0.564 -1.343,0.963 -0.336,0.398 -0.504,0.89 -0.504,1.472 0,0.518 0.155,1.01 0.465,1.473 0.311,0.461 0.768,0.83 1.374,1.105 0.603,0.276 1.333,0.414 2.188,0.414 0.671,0 1.274,-0.07 1.809,-0.211 0.536,-0.136 0.983,-0.326 1.339,-0.56 0.359,-0.233 0.63,-0.492 0.817,-0.777 0.186,-0.286 0.28,-0.563 0.28,-0.836 0,-0.297 -0.1,-0.541 -0.299,-0.733 -0.199,-0.187 -0.482,-0.285 -0.85,-0.285 -0.266,0 -0.493,0.076 -0.679,0.23 -0.187,0.151 -0.4,0.379 -0.641,0.682 C -3.169,4.916 -3.399,5.119 -3.666,5.271 -3.932,5.424 -4.293,5.498 -4.749,5.498 -5.218,5.498 -5.606,5.4 -5.917,5.199 -6.228,5 -6.383,4.752 -6.383,4.455 c 0,-0.273 0.114,-0.496 0.342,-0.67 0.229,-0.176 0.535,-0.32 0.922,-0.433 C -4.732,3.238 -4.202,3.1 -3.523,2.936 -2.72,2.738 -2.063,2.504 -1.553,2.232 -1.044,1.961 -0.657,1.639 -0.394,1.268 -0.131,0.896 0,0.475 0,0"
             style="fill:#5ea4dd;fill-opacity:1;fill-rule:nonzero;stroke:none"
             id="path192"
             inkscape:connector-curvature="0" /></g><g
           id="g194"
           transform="translate(315.6729,33.3027)"><path
             d="m 0,0 0,-7.494 c 0,-0.52 -0.124,-0.912 -0.371,-1.178 -0.247,-0.266 -0.56,-0.398 -0.941,-0.398 -0.379,0 -0.688,0.134 -0.925,0.408 -0.239,0.271 -0.357,0.662 -0.357,1.168 l 0,7.418 c 0,0.512 0.118,0.898 0.357,1.158 0.237,0.26 0.546,0.391 0.925,0.391 0.381,0 0.694,-0.131 0.941,-0.391 C -0.124,0.822 0,0.461 0,0 m -1.283,2.678 c -0.361,0 -0.669,0.111 -0.926,0.332 -0.256,0.22 -0.385,0.535 -0.385,0.941 0,0.367 0.132,0.668 0.395,0.906 0.262,0.239 0.568,0.358 0.916,0.358 0.336,0 0.634,-0.108 0.892,-0.324 C -0.131,4.676 0,4.363 0,3.951 0,3.551 -0.128,3.24 -0.381,3.016 -0.634,2.791 -0.935,2.678 -1.283,2.678"
             style="fill:#5ea4dd;fill-opacity:1;fill-rule:nonzero;stroke:none"
             id="path196"
             inkscape:connector-curvature="0" /></g><g
           id="g198"
           transform="translate(319.5186,29.5879)"><path
             d="m 0,0 c 0,-1.051 0.229,-1.846 0.687,-2.383 0.459,-0.539 1.054,-0.808 1.782,-0.808 0.43,0 0.837,0.117 1.219,0.347 0.384,0.231 0.696,0.58 0.937,1.045 0.24,0.465 0.361,1.029 0.361,1.695 0,1.057 -0.232,1.881 -0.698,2.469 C 3.822,2.953 3.21,3.248 2.449,3.248 1.708,3.248 1.115,2.967 0.669,2.402 0.223,1.84 0,1.039 0,0 m 7.513,3.287 0,-7.531 C 7.513,-5.105 7.42,-5.848 7.236,-6.469 7.054,-7.088 6.759,-7.602 6.354,-8.006 5.948,-8.41 5.418,-8.713 4.763,-8.908 4.107,-9.105 3.292,-9.203 2.316,-9.203 c -0.892,0 -1.69,0.125 -2.393,0.375 -0.702,0.252 -1.243,0.574 -1.624,0.969 -0.379,0.396 -0.57,0.802 -0.57,1.22 0,0.317 0.108,0.577 0.324,0.774 0.215,0.201 0.474,0.301 0.778,0.301 0.38,0 0.712,-0.168 0.997,-0.504 0.139,-0.17 0.283,-0.344 0.432,-0.518 0.149,-0.176 0.314,-0.324 0.494,-0.447 0.181,-0.123 0.397,-0.215 0.65,-0.276 0.254,-0.058 0.546,-0.089 0.874,-0.089 0.672,0 1.193,0.093 1.564,0.281 0.37,0.185 0.63,0.447 0.778,0.783 0.15,0.334 0.236,0.693 0.262,1.078 0.025,0.383 0.044,0.998 0.056,1.848 C 4.539,-3.967 4.079,-4.391 3.556,-4.682 3.034,-4.973 2.411,-5.119 1.69,-5.119 c -0.868,0 -1.626,0.223 -2.275,0.666 -0.648,0.443 -1.147,1.062 -1.495,1.861 -0.349,0.799 -0.523,1.719 -0.523,2.764 0,0.777 0.106,1.482 0.318,2.107 0.213,0.629 0.515,1.157 0.907,1.588 0.393,0.43 0.846,0.754 1.358,0.973 0.513,0.219 1.077,0.328 1.691,0.328 0.734,0 1.371,-0.143 1.909,-0.422 C 4.118,4.463 4.619,4.021 5.081,3.42 l 0,0.351 c 0,0.45 0.11,0.797 0.332,1.045 0.222,0.246 0.507,0.371 0.856,0.371 0.5,0 0.832,-0.164 0.996,-0.49 C 7.43,4.371 7.513,3.9 7.513,3.287"
             style="fill:#5ea4dd;fill-opacity:1;fill-rule:nonzero;stroke:none"
             id="path200"
             inkscape:connector-curvature="0" /></g><g
           id="g202"
           transform="translate(331.1523,33.3398)"><path
             d="M 0,0 0,-0.312 C 0.455,0.289 0.954,0.73 1.495,1.012 2.037,1.293 2.658,1.436 3.361,1.436 4.046,1.436 4.656,1.285 5.195,0.988 5.732,0.689 6.136,0.27 6.4,-0.273 6.572,-0.592 6.683,-0.934 6.733,-1.301 6.784,-1.668 6.811,-2.137 6.811,-2.707 l 0,-4.824 c 0,-0.52 -0.12,-0.912 -0.358,-1.178 -0.237,-0.266 -0.546,-0.398 -0.926,-0.398 -0.386,0 -0.699,0.134 -0.94,0.408 -0.241,0.271 -0.36,0.662 -0.36,1.168 l 0,4.322 c 0,0.854 -0.12,1.508 -0.357,1.961 -0.238,0.451 -0.711,0.68 -1.421,0.68 -0.461,0 -0.883,-0.139 -1.262,-0.414 C 0.807,-1.258 0.528,-1.637 0.351,-2.117 0.225,-2.504 0.161,-3.225 0.161,-4.283 l 0,-3.248 c 0,-0.526 -0.123,-0.92 -0.365,-1.184 -0.244,-0.262 -0.559,-0.392 -0.945,-0.392 -0.374,0 -0.681,0.134 -0.922,0.408 -0.241,0.271 -0.361,0.662 -0.361,1.168 l 0,7.494 c 0,0.494 0.108,0.863 0.323,1.107 0.215,0.242 0.509,0.366 0.882,0.366 0.229,0 0.435,-0.055 0.62,-0.163 0.182,-0.109 0.33,-0.269 0.441,-0.484 C -0.056,0.574 0,0.311 0,0"
             style="fill:#5ea4dd;fill-opacity:1;fill-rule:nonzero;stroke:none"
             id="path204"
             inkscape:connector-curvature="0" /></g><g
           id="g206"
           transform="translate(341.8555,30.3379)"><path
             d="M 0,0 4.701,0 C 4.638,0.887 4.398,1.551 3.984,1.99 3.569,2.432 3.023,2.65 2.346,2.65 1.699,2.65 1.169,2.428 0.754,1.982 0.339,1.535 0.089,0.875 0,0 m 5.071,-1.473 -5.071,0 c 0.007,-0.588 0.124,-1.107 0.356,-1.556 0.231,-0.45 0.538,-0.789 0.921,-1.016 0.382,-0.228 0.806,-0.342 1.268,-0.342 0.31,0 0.594,0.035 0.851,0.108 0.255,0.074 0.503,0.187 0.746,0.343 0.239,0.155 0.461,0.321 0.665,0.498 0.201,0.178 0.464,0.42 0.787,0.723 0.133,0.113 0.323,0.172 0.57,0.172 0.266,0 0.482,-0.074 0.646,-0.221 0.165,-0.146 0.247,-0.349 0.247,-0.617 0,-0.234 -0.092,-0.506 -0.276,-0.82 C 6.597,-4.516 6.32,-4.816 5.949,-5.104 5.579,-5.393 5.114,-5.631 4.554,-5.82 3.993,-6.012 3.349,-6.105 2.621,-6.105 c -1.665,0 -2.96,0.474 -3.886,1.423 -0.923,0.95 -1.385,2.239 -1.385,3.866 0,0.767 0.114,1.478 0.341,2.132 0.228,0.657 0.561,1.217 0.998,1.686 0.437,0.469 0.975,0.828 1.615,1.078 0.638,0.25 1.348,0.375 2.128,0.375 1.012,0 1.88,-0.213 2.605,-0.641 C 5.763,3.387 6.306,2.834 6.667,2.158 7.027,1.48 7.209,0.789 7.209,0.088 7.209,-0.566 7.022,-0.988 6.648,-1.182 6.275,-1.375 5.749,-1.473 5.071,-1.473"
             style="fill:#5ea4dd;fill-opacity:1;fill-rule:nonzero;stroke:none"
             id="path208"
             inkscape:connector-curvature="0" /></g><g
           id="g210"
           transform="translate(352.3965,29.5215)"><path
             d="M 0,0 C 0,-0.703 0.108,-1.301 0.327,-1.795 0.546,-2.289 0.845,-2.66 1.226,-2.91 1.605,-3.16 2.02,-3.287 2.469,-3.287 c 0.457,0 0.873,0.119 1.249,0.357 0.377,0.237 0.678,0.602 0.902,1.092 C 4.846,-1.348 4.958,-0.732 4.958,0 4.958,0.691 4.846,1.285 4.62,1.783 4.396,2.279 4.092,2.658 3.709,2.922 3.325,3.184 2.906,3.314 2.45,3.314 1.976,3.314 1.551,3.18 1.178,2.912 0.805,2.643 0.515,2.258 0.309,1.754 0.103,1.25 0,0.666 0,0 m 5.1,-3.809 0,0.258 C 4.752,-3.949 4.408,-4.275 4.069,-4.523 3.73,-4.775 3.364,-4.965 2.968,-5.094 2.573,-5.227 2.141,-5.289 1.672,-5.289 c -0.621,0 -1.195,0.131 -1.724,0.393 -0.529,0.263 -0.986,0.638 -1.373,1.126 -0.387,0.487 -0.679,1.059 -0.878,1.719 -0.2,0.658 -0.3,1.371 -0.3,2.137 0,1.621 0.396,2.885 1.188,3.791 C -0.624,4.781 0.418,5.234 1.71,5.234 2.457,5.234 3.087,5.105 3.6,4.85 4.112,4.594 4.613,4.197 5.1,3.668 l 0,3.826 c 0,0.533 0.106,0.934 0.319,1.207 0.211,0.272 0.515,0.408 0.907,0.408 0.392,0 0.695,-0.125 0.906,-0.375 C 7.444,8.482 7.551,8.115 7.551,7.627 l 0,-11.436 C 7.551,-4.303 7.437,-4.672 7.209,-4.92 6.981,-5.166 6.687,-5.289 6.326,-5.289 5.972,-5.289 5.679,-5.162 5.447,-4.906 5.216,-4.648 5.1,-4.283 5.1,-3.809"
             style="fill:#5ea4dd;fill-opacity:1;fill-rule:nonzero;stroke:none"
             id="path212"
             inkscape:connector-curvature="0" /></g><g
           id="g214"
           transform="translate(368.2178,29.4453)"><path
             d="m 0,0 c 0,-1.031 0.236,-1.824 0.708,-2.377 0.472,-0.555 1.091,-0.834 1.856,-0.834 0.653,0 1.215,0.283 1.686,0.852 0.472,0.566 0.708,1.379 0.708,2.435 C 4.958,0.76 4.86,1.35 4.664,1.844 4.467,2.338 4.189,2.719 3.828,2.988 3.467,3.256 3.046,3.391 2.564,3.391 2.071,3.391 1.63,3.256 1.244,2.988 0.858,2.719 0.555,2.33 0.332,1.82 0.111,1.311 0,0.703 0,0 m -0.123,7.703 0,-3.959 C 0.364,4.25 0.861,4.639 1.368,4.906 1.874,5.176 2.502,5.311 3.249,5.311 4.11,5.311 4.864,5.105 5.515,4.699 6.162,4.289 6.666,3.697 7.024,2.922 7.382,2.146 7.562,1.227 7.562,0.162 c 0,-0.785 -0.101,-1.504 -0.3,-2.16 C 7.062,-2.654 6.772,-3.223 6.393,-3.703 6.013,-4.184 5.552,-4.557 5.011,-4.82 4.469,-5.082 3.872,-5.213 3.221,-5.213 c -0.4,0 -0.776,0.047 -1.126,0.143 -0.352,0.093 -0.652,0.218 -0.898,0.375 -0.246,0.154 -0.457,0.314 -0.632,0.478 -0.173,0.164 -0.404,0.412 -0.688,0.742 l 0,-0.257 c 0,-0.487 -0.117,-0.856 -0.352,-1.108 -0.233,-0.25 -0.531,-0.373 -0.892,-0.373 -0.367,0 -0.66,0.123 -0.879,0.373 -0.219,0.252 -0.327,0.621 -0.327,1.108 l 0,11.322 c 0,0.525 0.105,0.924 0.317,1.191 0.212,0.27 0.509,0.405 0.889,0.405 0.399,0 0.706,-0.129 0.921,-0.385 0.215,-0.258 0.323,-0.621 0.323,-1.098"
             style="fill:#5ea4dd;fill-opacity:1;fill-rule:nonzero;stroke:none"
             id="path216"
             inkscape:connector-curvature="0" /></g><g
           id="g218"
           transform="translate(379.1406,23.9082)"><path
             d="m 0,0 0.237,0.58 -3.191,8.035 c -0.196,0.461 -0.295,0.799 -0.295,1.008 0,0.221 0.058,0.426 0.171,0.615 0.114,0.192 0.27,0.344 0.47,0.457 0.2,0.116 0.407,0.172 0.623,0.172 0.373,0 0.654,-0.119 0.845,-0.357 0.191,-0.237 0.358,-0.576 0.503,-1.02 l 2.195,-6.383 2.08,5.936 c 0.164,0.48 0.312,0.857 0.446,1.131 0.133,0.271 0.273,0.455 0.422,0.549 0.148,0.095 0.359,0.144 0.632,0.144 0.197,0 0.384,-0.053 0.565,-0.158 C 5.884,10.605 6.022,10.465 6.121,10.287 6.219,10.109 6.269,9.924 6.269,9.727 6.242,9.607 6.202,9.436 6.145,9.213 6.087,8.992 6.019,8.766 5.937,8.539 L 2.555,-0.312 C 2.263,-1.092 1.979,-1.701 1.699,-2.145 1.421,-2.588 1.053,-2.93 0.593,-3.166 0.134,-3.404 -0.485,-3.523 -1.264,-3.523 c -0.759,0 -1.33,0.082 -1.709,0.246 -0.381,0.166 -0.57,0.466 -0.57,0.904 0,0.297 0.09,0.527 0.272,0.687 0.179,0.163 0.447,0.245 0.8,0.245 0.14,0 0.277,-0.02 0.409,-0.059 0.166,-0.037 0.307,-0.057 0.427,-0.057 0.298,0 0.532,0.043 0.704,0.133 0.17,0.088 0.324,0.242 0.46,0.461 C -0.335,-0.746 -0.178,-0.424 0,0"
             style="fill:#5ea4dd;fill-opacity:1;fill-rule:nonzero;stroke:none"
             id="path220"
             inkscape:connector-curvature="0" /></g><g
           id="g222"
           transform="translate(416.7031,34.5508)"><path
             d="m 0,0 0.619,0 0,0.777 c 0,0.815 0.1,1.457 0.307,1.938 0.203,0.478 0.554,0.826 1.047,1.045 0.49,0.217 1.162,0.326 2.015,0.326 1.52,0 2.274,-0.367 2.274,-1.113 C 6.262,2.734 6.182,2.527 6.021,2.357 5.867,2.188 5.678,2.102 5.463,2.102 5.363,2.102 5.186,2.119 4.936,2.16 4.699,2.193 4.484,2.217 4.312,2.217 3.846,2.217 3.547,2.076 3.408,1.801 3.281,1.525 3.213,1.133 3.213,0.617 L 3.213,0 3.846,0 c 0.99,0 1.48,-0.297 1.48,-0.896 0,-0.418 -0.127,-0.69 -0.392,-0.805 -0.262,-0.113 -0.623,-0.17 -1.088,-0.17 l -0.633,0 0,-6.871 c 0,-0.512 -0.121,-0.901 -0.369,-1.168 -0.242,-0.274 -0.555,-0.406 -0.944,-0.406 -0.367,0 -0.67,0.132 -0.918,0.406 -0.244,0.267 -0.363,0.656 -0.363,1.168 l 0,6.871 -0.715,0 c -0.388,0 -0.681,0.084 -0.892,0.262 -0.209,0.17 -0.315,0.398 -0.315,0.677 C -1.303,-0.309 -0.869,0 0,0"
             style="fill:#5ea4dd;fill-opacity:1;fill-rule:nonzero;stroke:none"
             id="path224"
             inkscape:connector-curvature="0" /></g><g
           id="g226"
           transform="translate(425.1934,27.9766)"><path
             d="m 0,0 0,-2.168 c 0,-0.523 -0.133,-0.92 -0.375,-1.18 -0.246,-0.265 -0.559,-0.394 -0.937,-0.394 -0.381,0 -0.688,0.131 -0.926,0.4 -0.237,0.264 -0.362,0.656 -0.362,1.174 l 0,7.223 c 0,1.166 0.42,1.748 1.262,1.748 0.434,0 0.742,-0.135 0.934,-0.408 0.189,-0.274 0.295,-0.674 0.316,-1.208 0.309,0.534 0.625,0.934 0.949,1.208 0.332,0.273 0.762,0.408 1.309,0.408 0.549,0 1.072,-0.135 1.586,-0.408 C 4.271,6.121 4.527,5.758 4.527,5.311 4.527,4.996 4.416,4.73 4.201,4.529 3.98,4.32 3.746,4.217 3.494,4.217 3.395,4.217 3.164,4.279 2.803,4.396 2.438,4.51 2.113,4.57 1.84,4.57 1.459,4.57 1.146,4.467 0.908,4.271 0.666,4.066 0.477,3.775 0.344,3.385 0.215,2.99 0.125,2.52 0.07,1.98 0.021,1.439 0,0.777 0,0"
             style="fill:#5ea4dd;fill-opacity:1;fill-rule:nonzero;stroke:none"
             id="path228"
             inkscape:connector-curvature="0" /></g><g
           id="g230"
           transform="translate(432.0391,30.3438)"><path
             d="M 0,0 4.701,0 C 4.639,0.885 4.404,1.549 3.988,1.986 3.57,2.428 3.029,2.646 2.348,2.646 1.701,2.646 1.17,2.426 0.756,1.977 0.342,1.531 0.088,0.873 0,0 m 5.074,-1.475 -5.074,0 c 0.01,-0.588 0.125,-1.111 0.355,-1.558 0.235,-0.447 0.54,-0.787 0.924,-1.018 0.385,-0.226 0.805,-0.34 1.27,-0.34 0.31,0 0.592,0.034 0.849,0.112 0.254,0.07 0.504,0.185 0.745,0.341 0.242,0.153 0.461,0.319 0.664,0.5 0.203,0.174 0.466,0.417 0.791,0.719 0.134,0.114 0.324,0.174 0.568,0.174 0.268,0 0.48,-0.074 0.648,-0.223 0.166,-0.146 0.245,-0.349 0.245,-0.617 0,-0.234 -0.09,-0.508 -0.268,-0.818 C 6.604,-4.521 6.328,-4.82 5.955,-5.109 5.58,-5.395 5.115,-5.637 4.557,-5.824 3.998,-6.014 3.352,-6.109 2.625,-6.109 c -1.67,0 -2.963,0.472 -3.887,1.422 -0.924,0.951 -1.39,2.242 -1.39,3.867 0,0.767 0.117,1.478 0.347,2.134 0.225,0.659 0.557,1.217 0.998,1.688 0.436,0.471 0.971,0.828 1.614,1.078 0.636,0.25 1.345,0.375 2.127,0.375 1.011,0 1.88,-0.215 2.607,-0.646 C 5.764,3.387 6.314,2.832 6.67,2.154 7.031,1.475 7.211,0.787 7.211,0.08 7.211,-0.568 7.023,-0.99 6.65,-1.186 6.277,-1.379 5.752,-1.475 5.074,-1.475"
             style="fill:#5ea4dd;fill-opacity:1;fill-rule:nonzero;stroke:none"
             id="path232"
             inkscape:connector-curvature="0" /></g><g
           id="g234"
           transform="translate(442.8281,30.3438)"><path
             d="M 0,0 4.701,0 C 4.637,0.885 4.396,1.549 3.986,1.986 3.564,2.428 3.023,2.646 2.344,2.646 1.697,2.646 1.168,2.426 0.75,1.977 0.338,1.531 0.084,0.873 0,0 m 5.072,-1.475 -5.072,0 c 0.006,-0.588 0.125,-1.111 0.354,-1.558 0.232,-0.447 0.539,-0.787 0.921,-1.018 0.383,-0.226 0.805,-0.34 1.272,-0.34 0.307,0 0.592,0.034 0.844,0.112 0.259,0.07 0.505,0.185 0.75,0.341 0.242,0.153 0.461,0.319 0.664,0.5 0.199,0.174 0.465,0.417 0.789,0.719 0.135,0.114 0.326,0.174 0.568,0.174 0.268,0 0.483,-0.074 0.65,-0.223 0.165,-0.146 0.241,-0.349 0.241,-0.617 0,-0.234 -0.088,-0.508 -0.274,-0.818 C 6.602,-4.521 6.324,-4.82 5.949,-5.109 5.578,-5.395 5.109,-5.637 4.553,-5.824 3.996,-6.014 3.346,-6.109 2.619,-6.109 c -1.668,0 -2.959,0.472 -3.887,1.422 -0.923,0.951 -1.388,2.242 -1.388,3.867 0,0.767 0.115,1.478 0.347,2.134 0.227,0.659 0.559,1.217 0.997,1.688 C -0.877,3.473 -0.34,3.83 0.301,4.08 0.939,4.33 1.652,4.455 2.43,4.455 3.439,4.455 4.309,4.24 5.043,3.809 5.764,3.387 6.309,2.832 6.664,2.154 7.023,1.475 7.209,0.787 7.209,0.08 7.209,-0.568 7.018,-0.99 6.648,-1.186 6.273,-1.379 5.748,-1.475 5.072,-1.475"
             style="fill:#5ea4dd;fill-opacity:1;fill-rule:nonzero;stroke:none"
             id="path236"
             inkscape:connector-curvature="0" /></g><g
           id="g238"
           transform="translate(458.6641,29.5527)"><path
             d="m 0,0 c 0,0.686 -0.105,1.273 -0.314,1.764 -0.209,0.492 -0.498,0.867 -0.866,1.127 -0.367,0.263 -0.783,0.396 -1.232,0.396 -0.715,0 -1.318,-0.283 -1.809,-0.844 -0.492,-0.566 -0.74,-1.394 -0.74,-2.492 0,-1.027 0.244,-1.834 0.736,-2.406 0.487,-0.574 1.086,-0.859 1.813,-0.859 0.428,0 0.83,0.126 1.197,0.373 0.371,0.252 0.664,0.627 0.883,1.127 C -0.111,-1.312 0,-0.707 0,0 m -5.084,3.768 0,-0.311 c 0.486,0.602 0.994,1.043 1.525,1.324 0.518,0.285 1.118,0.428 1.782,0.428 C -0.982,5.209 -0.242,5 0.43,4.592 1.102,4.178 1.629,3.576 2.02,2.785 2.408,1.99 2.605,1.055 2.605,-0.029 2.605,-0.824 2.492,-1.561 2.27,-2.23 2.045,-2.898 1.732,-3.457 1.34,-3.91 0.947,-4.359 0.484,-4.711 -0.049,-4.955 -0.592,-5.197 -1.16,-5.318 -1.777,-5.318 c -0.739,0 -1.364,0.148 -1.866,0.447 -0.502,0.291 -0.982,0.732 -1.441,1.305 l 0,-3.893 c 0,-1.135 -0.416,-1.709 -1.244,-1.709 -0.49,0 -0.809,0.147 -0.971,0.439 -0.152,0.299 -0.234,0.723 -0.234,1.292 l 0,11.193 c 0,0.494 0.107,0.859 0.32,1.107 0.215,0.239 0.512,0.364 0.885,0.364 0.369,0 0.666,-0.125 0.896,-0.373 0.235,-0.254 0.348,-0.612 0.348,-1.086"
             style="fill:#5ea4dd;fill-opacity:1;fill-rule:nonzero;stroke:none"
             id="path240"
             inkscape:connector-curvature="0" /></g><g
           id="g242"
           transform="translate(465.1641,33.3086)"><path
             d="m 0,0 0,-7.502 c 0,-0.516 -0.123,-0.908 -0.369,-1.172 -0.25,-0.269 -0.561,-0.4 -0.942,-0.4 -0.38,0 -0.685,0.133 -0.927,0.406 -0.235,0.275 -0.356,0.664 -0.356,1.166 l 0,7.428 c 0,0.51 0.121,0.894 0.356,1.154 0.242,0.264 0.547,0.391 0.927,0.391 0.381,0 0.692,-0.127 0.942,-0.391 C -0.123,0.82 0,0.457 0,0 m -1.283,2.678 c -0.363,0 -0.67,0.115 -0.924,0.336 -0.26,0.222 -0.387,0.531 -0.387,0.935 0,0.369 0.131,0.67 0.397,0.91 0.261,0.235 0.566,0.356 0.914,0.356 0.34,0 0.635,-0.106 0.892,-0.319 C -0.131,4.678 0,4.361 0,3.949 0,3.551 -0.127,3.238 -0.377,3.014 -0.631,2.793 -0.932,2.678 -1.283,2.678"
             style="fill:#5ea4dd;fill-opacity:1;fill-rule:nonzero;stroke:none"
             id="path244"
             inkscape:connector-curvature="0" /></g><g
           id="g246"
           transform="translate(473.5234,25.418)"><path
             d="m 0,0 -2.283,3.766 -1.408,-1.328 0,-2.067 c 0,-0.498 -0.133,-0.881 -0.397,-1.148 -0.258,-0.274 -0.566,-0.407 -0.906,-0.407 -0.399,0 -0.715,0.131 -0.942,0.401 -0.226,0.263 -0.343,0.656 -0.343,1.174 l 0,11.062 c 0,0.574 0.115,1.012 0.332,1.315 0.222,0.304 0.545,0.451 0.953,0.451 0.398,0 0.713,-0.137 0.949,-0.41 0.234,-0.272 0.354,-0.674 0.354,-1.204 l 0,-6.293 2.916,3.063 c 0.361,0.377 0.632,0.641 0.826,0.779 0.189,0.139 0.42,0.207 0.689,0.207 0.326,0 0.594,-0.103 0.817,-0.308 C 1.768,8.848 1.877,8.588 1.877,8.279 1.877,7.9 1.523,7.391 0.822,6.758 L -0.555,5.496 2.104,1.312 C 2.297,1 2.443,0.77 2.527,0.607 2.611,0.447 2.658,0.287 2.658,0.145 2.658,-0.268 2.543,-0.59 2.316,-0.83 2.092,-1.066 1.793,-1.184 1.432,-1.184 c -0.317,0 -0.565,0.08 -0.735,0.256 C 0.527,-0.756 0.291,-0.445 0,0"
             style="fill:#5ea4dd;fill-opacity:1;fill-rule:nonzero;stroke:none"
             id="path248"
             inkscape:connector-curvature="0" /></g><g
           id="g250"
           transform="translate(479.1602,24.2344)"><path
             d="m 0,0 c -0.393,0 -0.729,0.125 -1.014,0.381 -0.285,0.248 -0.429,0.605 -0.429,1.064 0,0.385 0.138,0.719 0.41,0.994 0.275,0.28 0.607,0.42 1.008,0.42 0.398,0 0.736,-0.14 1.023,-0.412 C 1.277,2.172 1.42,1.834 1.42,1.445 1.42,0.992 1.277,0.637 0.998,0.385 0.711,0.125 0.379,0 0,0"
             style="fill:#5ea4dd;fill-opacity:1;fill-rule:nonzero;stroke:none"
             id="path252"
             inkscape:connector-curvature="0" /></g><g
           id="g254"
           transform="translate(492.0586,27.4434)"><path
             d="m 0,0 c 0,-0.32 -0.098,-0.668 -0.291,-1.033 -0.191,-0.371 -0.488,-0.719 -0.887,-1.051 -0.394,-0.332 -0.89,-0.602 -1.494,-0.803 -0.601,-0.203 -1.281,-0.306 -2.031,-0.306 -1.606,0 -2.858,0.468 -3.758,1.4 -0.894,0.936 -1.346,2.189 -1.346,3.76 0,1.068 0.205,2.006 0.619,2.824 0.409,0.814 1.004,1.447 1.782,1.895 0.779,0.447 1.717,0.669 2.795,0.669 0.673,0 1.287,-0.097 1.851,-0.294 0.561,-0.196 1.033,-0.452 1.426,-0.76 0.387,-0.315 0.686,-0.643 0.889,-0.992 0.207,-0.352 0.308,-0.68 0.308,-0.987 C -0.137,4.014 -0.25,3.75 -0.48,3.535 -0.715,3.32 -0.996,3.211 -1.318,3.211 c -0.219,0 -0.399,0.057 -0.541,0.166 -0.145,0.111 -0.305,0.289 -0.479,0.541 -0.318,0.478 -0.646,0.842 -0.996,1.08 -0.344,0.242 -0.781,0.361 -1.314,0.361 -0.762,0 -1.383,-0.297 -1.854,-0.896 -0.467,-0.596 -0.703,-1.42 -0.703,-2.455 0,-0.488 0.062,-0.94 0.184,-1.348 0.117,-0.406 0.291,-0.756 0.519,-1.043 0.231,-0.287 0.504,-0.506 0.826,-0.654 0.324,-0.154 0.682,-0.227 1.065,-0.227 0.521,0 0.966,0.121 1.336,0.362 0.377,0.24 0.703,0.607 0.986,1.101 0.158,0.291 0.328,0.518 0.51,0.684 0.181,0.164 0.408,0.25 0.675,0.25 0.317,0 0.581,-0.123 0.786,-0.363 C -0.107,0.529 0,0.271 0,0"
             style="fill:#5ea4dd;fill-opacity:1;fill-rule:nonzero;stroke:none"
             id="path256"
             inkscape:connector-curvature="0" /></g><g
           id="g258"
           transform="translate(500.6445,29.5039)"><path
             d="M 0,0 C 0,1.059 -0.234,1.881 -0.697,2.469 -1.16,3.064 -1.787,3.357 -2.572,3.357 -3.08,3.357 -3.527,3.225 -3.914,2.963 -4.301,2.701 -4.596,2.314 -4.805,1.799 -5.014,1.285 -5.119,0.686 -5.119,0 c 0,-0.678 0.101,-1.268 0.308,-1.773 0.209,-0.51 0.502,-0.897 0.887,-1.166 0.385,-0.266 0.834,-0.405 1.352,-0.405 0.785,0 1.412,0.297 1.875,0.893 C -0.234,-1.861 0,-1.041 0,0 m 2.604,0 c 0,-0.77 -0.122,-1.484 -0.356,-2.139 -0.246,-0.652 -0.592,-1.213 -1.049,-1.677 -0.455,-0.469 -1.002,-0.829 -1.633,-1.08 -0.638,-0.249 -1.349,-0.375 -2.138,-0.375 -0.785,0 -1.492,0.126 -2.121,0.382 -0.623,0.248 -1.17,0.614 -1.625,1.082 -0.461,0.477 -0.809,1.034 -1.053,1.676 -0.229,0.645 -0.35,1.356 -0.35,2.131 0,0.787 0.123,1.506 0.358,2.158 0.242,0.655 0.59,1.213 1.039,1.674 0.451,0.461 0.994,0.816 1.631,1.07 0.644,0.248 1.349,0.373 2.121,0.373 0.785,0 1.498,-0.125 2.138,-0.38 C 0.205,4.643 0.75,4.279 1.211,3.814 1.668,3.34 2.014,2.785 2.25,2.143 2.484,1.492 2.604,0.783 2.604,0"
             style="fill:#5ea4dd;fill-opacity:1;fill-rule:nonzero;stroke:none"
             id="path260"
             inkscape:connector-curvature="0" /></g><g
           id="g262"
           transform="translate(513.1406,29.3145)"><path
             d="m 0,0 0,-3.447 c 0,-0.547 -0.121,-0.951 -0.369,-1.227 -0.25,-0.273 -0.572,-0.408 -0.979,-0.408 -0.392,0 -0.713,0.135 -0.951,0.408 -0.246,0.276 -0.371,0.68 -0.371,1.227 l 0,4.131 c 0,0.654 -0.021,1.162 -0.064,1.525 -0.045,0.354 -0.168,0.654 -0.362,0.883 -0.197,0.234 -0.509,0.351 -0.931,0.351 -0.85,0 -1.407,-0.291 -1.676,-0.88 C -5.971,1.986 -6.109,1.148 -6.109,0.055 l 0,-3.502 c 0,-0.537 -0.123,-0.946 -0.362,-1.223 -0.25,-0.273 -0.568,-0.412 -0.965,-0.412 -0.396,0 -0.716,0.139 -0.966,0.412 -0.252,0.277 -0.377,0.686 -0.377,1.223 l 0,7.42 c 0,0.488 0.111,0.859 0.336,1.111 0.228,0.256 0.525,0.381 0.888,0.381 0.358,0 0.653,-0.123 0.893,-0.356 0.236,-0.238 0.353,-0.566 0.353,-0.984 l 0,-0.244 c 0.454,0.535 0.936,0.931 1.446,1.18 0.515,0.259 1.082,0.386 1.713,0.386 0.65,0 1.211,-0.131 1.677,-0.39 0.469,-0.26 0.854,-0.655 1.161,-1.176 0.439,0.527 0.908,0.922 1.41,1.18 0.5,0.257 1.052,0.386 1.662,0.386 0.705,0 1.32,-0.142 1.834,-0.42 C 5.104,4.75 5.486,4.348 5.74,3.832 5.961,3.359 6.07,2.623 6.07,1.615 l 0,-5.062 C 6.07,-3.994 5.949,-4.398 5.703,-4.674 5.457,-4.947 5.129,-5.082 4.725,-5.082 4.33,-5.082 4.01,-4.943 3.76,-4.67 3.51,-4.393 3.383,-3.984 3.383,-3.447 l 0,4.361 C 3.383,1.473 3.359,1.918 3.314,2.252 3.268,2.59 3.137,2.873 2.932,3.1 2.719,3.326 2.4,3.443 1.979,3.443 1.637,3.443 1.312,3.336 1.004,3.135 0.697,2.938 0.457,2.658 0.283,2.322 0.098,1.885 0,1.109 0,0"
             style="fill:#5ea4dd;fill-opacity:1;fill-rule:nonzero;stroke:none"
             id="path264"
             inkscape:connector-curvature="0" /></g><g
           id="g266"
           transform="translate(392.4355,30.1328)"><path
             d="M 0,0 C -0.002,0.004 -0.002,0.01 -0.002,0.018 -0.002,0.01 -0.002,0.004 0,0"
             style="fill:#5ea4dd;fill-opacity:1;fill-rule:nonzero;stroke:none"
             id="path268"
             inkscape:connector-curvature="0" /></g><g
           id="g270"
           transform="translate(392.5664,29.3027)"><path
             d="M 0,0 0.003,0 C -0.047,0.236 -0.086,0.471 -0.116,0.703 -0.086,0.469 -0.047,0.234 0,0"
             style="fill:#5ea4dd;fill-opacity:1;fill-rule:nonzero;stroke:none"
             id="path272"
             inkscape:connector-curvature="0" /></g><g
           id="g274"
           transform="translate(393.4248,26.8965)"><path
             d="M 0,0 C -0.006,0.01 -0.011,0.021 -0.018,0.033 -0.011,0.021 -0.006,0.01 0,0"
             style="fill:#5ea4dd;fill-opacity:1;fill-rule:nonzero;stroke:none"
             id="path276"
             inkscape:connector-curvature="0" /></g><g
           id="g278"
           transform="translate(393.3428,27.0566)"><path
             d="M 0,0 C -0.022,0.045 -0.044,0.09 -0.065,0.135 -0.044,0.088 -0.022,0.045 0,0"
             style="fill:#5ea4dd;fill-opacity:1;fill-rule:nonzero;stroke:none"
             id="path280"
             inkscape:connector-curvature="0" /></g><g
           id="g282"
           transform="translate(392.8076,28.377)"><path
             d="M 0,0 C 0.127,-0.4 0.279,-0.789 0.457,-1.158 0.276,-0.781 0.127,-0.393 0.003,0 L 0,0 Z"
             style="fill:#5ea4dd;fill-opacity:1;fill-rule:nonzero;stroke:none"
             id="path284"
             inkscape:connector-curvature="0" /></g><g
           id="g286"
           transform="translate(402.4727,40.0684)"><path
             d="m 0,0 c 0.501,0 0.871,-0.039 1.295,-0.111 l 0.121,0.763 c 0,0 -1.172,0.36 -2.711,0.235 l -0.121,0.414 c 0.479,0.101 0.838,0.527 0.838,1.035 0,0.582 -0.475,1.053 -1.058,1.053 -0.583,0 -1.055,-0.471 -1.055,-1.053 0,-0.508 0.358,-0.934 0.836,-1.035 L -1.722,0.838 C -3.355,0.613 -4.656,-0.023 -4.656,-0.023 l 0.23,-0.706 c 0.988,0.329 1.846,0.53 2.624,0.614 C -1.04,-0.035 -0.467,0 0,0"
             style="fill:#5ea4dd;fill-opacity:1;fill-rule:nonzero;stroke:none"
             id="path288"
             inkscape:connector-curvature="0" /></g><g
           id="g290"
           transform="translate(393.4053,36.2109)"><path
             d="M 0,0 0.006,0.008 C 0.044,0.057 0.081,0.104 0.119,0.15 l -0.313,0.225 -0.488,0.357 c -0.027,-0.039 -0.795,-0.744 -1.401,-2.048 -0.025,0.041 -0.056,0.082 -0.09,0.119 -0.181,0.199 -0.435,0.301 -0.759,0.295 l -0.014,0 c -0.2,0 -0.337,0.066 -0.427,0.146 0.09,0.113 0.144,0.256 0.144,0.414 0,0.367 -0.3,0.668 -0.67,0.668 -0.369,0 -0.668,-0.301 -0.668,-0.668 0,-0.371 0.299,-0.67 0.668,-0.67 0.058,0 0.113,0.01 0.167,0.022 0.165,-0.184 0.425,-0.342 0.807,-0.334 0.197,0.002 0.341,-0.049 0.438,-0.156 0.111,-0.122 0.148,-0.295 0.16,-0.428 -10e-4,-0.002 -10e-4,-0.004 -0.003,-0.004 -0.436,-1.19 -0.312,-2.67 -0.312,-2.67 l 1.058,-0.043 c 0.022,0.539 0.099,1.482 0.371,2.23 C -0.687,-0.945 -0.027,-0.039 0,0"
             style="fill:#5ea4dd;fill-opacity:1;fill-rule:nonzero;stroke:none"
             id="path292"
             inkscape:connector-curvature="0" /></g><g
           id="g294"
           transform="translate(411.6719,39.1855)"><path
             d="m 0,0 c -0.367,0 -0.668,-0.299 -0.668,-0.67 0,-0.057 0.008,-0.111 0.023,-0.164 -0.183,-0.166 -0.343,-0.428 -0.337,-0.811 0.003,-0.197 -0.047,-0.339 -0.155,-0.437 -0.084,-0.074 -0.191,-0.115 -0.295,-0.141 -0.787,1.104 -1.756,1.776 -1.756,1.776 L -3.947,-1.26 c 0.574,-0.521 1.16,-1.176 1.728,-1.99 0.395,-0.564 0.799,-1.291 1.137,-2.016 l 1.023,0.487 c 0,0 -0.466,1.156 -1.125,2.191 0.114,0.041 0.229,0.104 0.33,0.193 0.202,0.18 0.299,0.436 0.293,0.758 -0.001,0.207 0.067,0.348 0.149,0.442 0.115,-0.088 0.258,-0.143 0.412,-0.143 0.371,0 0.67,0.299 0.67,0.668 C 0.67,-0.299 0.371,0 0,0"
             style="fill:#5ea4dd;fill-opacity:1;fill-rule:nonzero;stroke:none"
             id="path296"
             inkscape:connector-curvature="0" /></g><g
           id="g298"
           transform="translate(409.0156,29.9824)"><path
             d="m 0,0 c -1.41,-0.686 -3.729,-1.594 -6.782,-2.02 -1.198,-0.166 -2.36,-0.226 -3.428,-0.226 -1.391,0 -2.62,0.103 -3.562,0.223 -1.077,0.134 -1.918,0.3 -2.433,0.418 0.124,-0.393 0.273,-0.782 0.454,-1.159 0.003,-0.009 0.008,-0.021 0.013,-0.027 0.021,-0.045 0.043,-0.09 0.065,-0.135 0.022,-0.043 0.043,-0.086 0.065,-0.127 0.006,-0.011 0.011,-0.023 0.017,-0.033 0.303,-0.57 0.666,-1.094 1.08,-1.549 1.441,-1.574 2.907,-1.824 2.921,-1.826 l 0.024,-0.002 0.021,-0.008 c 0.013,-0.006 1.314,-0.425 3.291,-0.425 1.945,0 3.856,0.392 5.674,1.167 1.348,0.69 2.623,1.737 3.254,2.67 0.488,0.723 0.842,1.493 1.051,2.293 C 1.836,-0.34 1.924,0.342 1.871,1.061 1.475,0.793 0.848,0.414 0,0"
             style="fill:#5ea4dd;fill-opacity:1;fill-rule:nonzero;stroke:none"
             id="path300"
             inkscape:connector-curvature="0" /></g><g
           id="g302"
           transform="translate(397.8857,36.6133)"><path
             d="m 0,0 c 1.557,0 2.816,-1.262 2.816,-2.818 0,-1.555 -1.259,-2.815 -2.816,-2.815 -1.555,0 -2.816,1.26 -2.816,2.815 C -2.816,-1.262 -1.555,0 0,0 m 8.241,-0.07 c 0.961,0 1.744,-0.782 1.744,-1.742 0,-0.963 -0.783,-1.745 -1.744,-1.745 -0.961,0 -1.742,0.782 -1.742,1.745 0,0.96 0.781,1.742 1.742,1.742 M -4.028,-0.736 C -4.069,-0.797 -4.681,-1.662 -5.163,-2.99 -5.525,-3.984 -5.509,-5.434 -5.509,-5.449 l 0,-0.004 c 0,-0.34 0.019,-0.676 0.057,-1.01 0,-0.008 0,-0.014 0.002,-0.017 0.004,-0.043 0.011,-0.084 0.014,-0.127 0.031,-0.233 0.07,-0.467 0.12,-0.704 0.7,-0.177 4.878,-1.152 9.547,-0.501 2.928,0.408 5.151,1.273 6.5,1.927 1.122,0.543 1.842,1.035 2.12,1.239 C 12.573,-3.619 11.81,-2.006 11.108,-1 9.103,1.865 6.94,2.6 5.831,2.783 5.406,2.852 5.067,2.893 4.587,2.893 4.14,2.893 3.585,2.855 2.844,2.777 2.101,2.701 1.272,2.506 0.312,2.182 -1.036,1.73 -2.256,1.023 -3.215,0.135 L -3.248,0.104 c -0.142,-0.131 -0.439,-0.407 -0.78,-0.84"
             style="fill:#5ea4dd;fill-opacity:1;fill-rule:nonzero;stroke:none"
             id="path304"
             inkscape:connector-curvature="0" /></g></g></g><text
       transform="matrix(1,0,0,-1,396.7871,559.3975)"
       style="font-variant:normal;font-weight:normal;font-stretch:normal;font-size:47.47790146px;font-family:DayPosterBlack;-inkscape-font-specification:DayPosterBlack;writing-mode:lr-tb;fill:#e0384c;fill-opacity:1;fill-rule:nonzero;stroke:none"
       id="text306"><tspan
         x="0 29.293865 64.664902 90.018097 115.22887 140.58206 172.62964 206.29147 231.50224"
         y="0"
         sodipodi:role="line"
         id="tspan308">presents </tspan></text>
<text
       transform="matrix(1,0,0,-1,399.2993,519.9146)"
       style="font-variant:normal;font-weight:normal;font-stretch:normal;font-size:30.60269928px;font-family:DayPosterBlack;-inkscape-font-specification:DayPosterBlack;writing-mode:lr-tb;fill:#e0384c;fill-opacity:1;fill-rule:nonzero;stroke:none"
       id="text310"><tspan
         x="0 14.536283 37.090473 59.889484 71.334892 91.196045 113.75024 132.99933"
         y="0"
         sodipodi:role="line"
         id="tspan312">for you!</tspan></text>
</g></svg>